ultracondensed-italic.ufo
<glyph name="exclam" format="2">
  <advance height="1920" width="290"/>
  <unicode hex="0021"/>
  <outline>
    <contour>
      <point x="77.0" y="0.0" type="curve" smooth="yes"/>
      <point x="-26.0" y="0.0" type="line" smooth="yes"/>
      <point x="-33.0" y="0.0"/>
      <point x="-36.0" y="3.0"/>
      <point x="-34.0" y="10.0" type="curve" smooth="yes"/>
      <point x="15.0" y="219.0" type="line" smooth="yes"/>
      <point x="17.0" y="226.0"/>
      <point x="20.0" y="229.0"/>
      <point x="27.0" y="229.0" type="curve" smooth="yes"/>
      <point x="130.0" y="229.0" type="line" smooth="yes"/>
      <point x="137.0" y="229.0"/>
      <point x="140.0" y="226.0"/>
      <point x="138.0" y="219.0" type="curve" smooth="yes"/>
      <point x="89.0" y="10.0" type="line" smooth="yes"/>
      <point x="87.0" y="3.0"/>
      <point x="84.0" y="0.0"/>
    </contour>
    <contour>
      <point x="179.0" y="950.0" type="curve" smooth="yes"/>
      <point x="292.0" y="1440.0" type="line" smooth="yes"/>
      <point x="294.0" y="1447.0"/>
      <point x="298.0" y="1450.0"/>
      <point x="305.0" y="1450.0" type="curve" smooth="yes"/>
      <point x="416.0" y="1450.0" type="line" smooth="yes"/>
      <point x="423.0" y="1450.0"/>
      <point x="425.0" y="1447.0"/>
      <point x="423.0" y="1440.0" type="curve" smooth="yes"/>
      <point x="310.0" y="950.0" type="line" smooth="yes"/>
      <point x="308.0" y="943.0"/>
      <point x="308.0" y="937.0"/>
      <point x="305.0" y="930.0" type="curve" smooth="yes"/>
      <point x="157.0" y="449.0" type="line" smooth="yes"/>
      <point x="154.0" y="442.0"/>
      <point x="150.0" y="439.0"/>
      <point x="143.0" y="439.0" type="curve" smooth="yes"/>
      <point x="110.0" y="439.0" type="line" smooth="yes"/>
      <point x="103.0" y="439.0"/>
      <point x="101.0" y="442.0"/>
      <point x="102.0" y="449.0" type="curve" smooth="yes"/>
      <point x="176.0" y="930.0" type="line" smooth="yes"/>
      <point x="177.0" y="937.0"/>
      <point x="177.0" y="943.0"/>
    </contour>
  </outline>
</glyph>
<glyph name="numbersign" format="2">
  <advance height="1920" width="573"/>
  <unicode hex="0023"/>
  <outline>
    <contour>
      <point x="35.0" y="514.0" type="curve" smooth="yes"/>
      <point x="497.0" y="514.0" type="line" smooth="yes"/>
      <point x="501.0" y="514.0"/>
      <point x="501.0" y="513.0"/>
      <point x="500.0" y="509.0" type="curve" smooth="yes"/>
      <point x="486.0" y="452.0" type="line" smooth="yes"/>
      <point x="485.0" y="448.0"/>
      <point x="485.0" y="447.0"/>
      <point x="481.0" y="447.0" type="curve" smooth="yes"/>
      <point x="19.0" y="447.0" type="line" smooth="yes"/>
      <point x="15.0" y="447.0"/>
      <point x="14.0" y="448.0"/>
      <point x="15.0" y="452.0" type="curve" smooth="yes"/>
      <point x="29.0" y="509.0" type="line" smooth="yes"/>
      <point x="30.0" y="513.0"/>
      <point x="31.0" y="514.0"/>
    </contour>
    <contour>
      <point x="193.0" y="1028.0" type="curve" smooth="yes"/>
      <point x="655.0" y="1028.0" type="line" smooth="yes"/>
      <point x="659.0" y="1028.0"/>
      <point x="659.0" y="1027.0"/>
      <point x="658.0" y="1023.0" type="curve" smooth="yes"/>
      <point x="645.0" y="966.0" type="line" smooth="yes"/>
      <point x="644.0" y="962.0"/>
      <point x="644.0" y="961.0"/>
      <point x="640.0" y="961.0" type="curve" smooth="yes"/>
      <point x="178.0" y="961.0" type="line" smooth="yes"/>
      <point x="174.0" y="961.0"/>
      <point x="173.0" y="962.0"/>
      <point x="174.0" y="966.0" type="curve" smooth="yes"/>
      <point x="187.0" y="1023.0" type="line" smooth="yes"/>
      <point x="188.0" y="1027.0"/>
      <point x="189.0" y="1028.0"/>
    </contour>
    <contour>
      <point x="613.0" y="1400.0" type="curve" smooth="yes"/>
      <point x="697.0" y="1400.0" type="line" smooth="yes"/>
      <point x="702.0" y="1400.0"/>
      <point x="702.0" y="1399.0"/>
      <point x="700.0" y="1395.0" type="curve" smooth="yes"/>
      <point x="216.0" y="5.0" type="line" smooth="yes"/>
      <point x="214.0" y="1.0"/>
      <point x="214.0" y="0.0"/>
      <point x="209.0" y="0.0" type="curve" smooth="yes"/>
      <point x="125.0" y="0.0" type="line" smooth="yes"/>
      <point x="120.0" y="0.0"/>
      <point x="120.0" y="1.0"/>
      <point x="122.0" y="5.0" type="curve" smooth="yes"/>
      <point x="606.0" y="1395.0" type="line" smooth="yes"/>
      <point x="608.0" y="1399.0"/>
      <point x="608.0" y="1400.0"/>
    </contour>
    <contour>
      <point x="437.0" y="1400.0" type="curve" smooth="yes"/>
      <point x="521.0" y="1400.0" type="line" smooth="yes"/>
      <point x="525.0" y="1400.0"/>
      <point x="526.0" y="1399.0"/>
      <point x="524.0" y="1395.0" type="curve" smooth="yes"/>
      <point x="40.0" y="5.0" type="line" smooth="yes"/>
      <point x="38.0" y="1.0"/>
      <point x="37.0" y="0.0"/>
      <point x="33.0" y="0.0" type="curve" smooth="yes"/>
      <point x="-51.0" y="0.0" type="line" smooth="yes"/>
      <point x="-55.0" y="0.0"/>
      <point x="-56.0" y="1.0"/>
      <point x="-54.0" y="5.0" type="curve" smooth="yes"/>
      <point x="430.0" y="1395.0" type="line" smooth="yes"/>
      <point x="432.0" y="1399.0"/>
      <point x="433.0" y="1400.0"/>
    </contour>
  </outline>
</glyph>
<glyph name="dollar" format="2">
  <advance height="1920" width="455"/>
  <unicode hex="0024"/>
  <outline>
    <contour>
      <point x="50.0" y="520.0" type="curve" smooth="yes"/>
      <point x="139.0" y="520.0" type="line" smooth="yes"/>
      <point x="140.0" y="520.0"/>
      <point x="144.0" y="519.0"/>
      <point x="143.0" y="515.0" type="curve" smooth="yes"/>
      <point x="85.0" y="266.0" type="line" smooth="yes"/>
      <point x="48.0" y="102.0"/>
      <point x="66.0" y="70.0"/>
      <point x="118.0" y="70.0" type="curve" smooth="yes"/>
      <point x="163.0" y="70.0"/>
      <point x="219.0" y="118.0"/>
      <point x="268.0" y="331.0" type="curve" smooth="yes"/>
      <point x="305.0" y="493.0"/>
      <point x="281.0" y="602.0"/>
      <point x="244.0" y="678.0" type="curve" smooth="yes"/>
      <point x="190.0" y="784.0"/>
      <point x="149.0" y="890.0"/>
      <point x="203.0" y="1126.0" type="curve" smooth="yes"/>
      <point x="257.0" y="1358.0"/>
      <point x="332.0" y="1420.0"/>
      <point x="440.0" y="1420.0" type="curve" smooth="yes"/>
      <point x="543.0" y="1420.0"/>
      <point x="588.0" y="1364.0"/>
      <point x="538.0" y="1146.0" type="curve" smooth="yes"/>
      <point x="484.0" y="914.0" type="line" smooth="yes"/>
      <point x="483.0" y="910.0"/>
      <point x="481.0" y="910.0"/>
      <point x="478.0" y="910.0" type="curve" smooth="yes"/>
      <point x="392.0" y="910.0" type="line" smooth="yes"/>
      <point x="389.0" y="910.0"/>
      <point x="387.0" y="910.0"/>
      <point x="388.0" y="914.0" type="curve" smooth="yes"/>
      <point x="441.0" y="1144.0" type="line" smooth="yes"/>
      <point x="479.0" y="1309.0"/>
      <point x="462.0" y="1338.0"/>
      <point x="422.0" y="1338.0" type="curve" smooth="yes"/>
      <point x="384.0" y="1338.0"/>
      <point x="345.0" y="1297.0"/>
      <point x="305.0" y="1124.0" type="curve" smooth="yes"/>
      <point x="266.0" y="955.0"/>
      <point x="292.0" y="832.0"/>
      <point x="330.0" y="766.0" type="curve" smooth="yes"/>
      <point x="385.0" y="669.0"/>
      <point x="428.0" y="559.0"/>
      <point x="377.0" y="336.0" type="curve" smooth="yes"/>
      <point x="314.0" y="62.0"/>
      <point x="221.0" y="-20.0"/>
      <point x="96.0" y="-20.0" type="curve" smooth="yes"/>
      <point x="-23.0" y="-20.0"/>
      <point x="-63.0" y="48.0"/>
      <point x="-18.0" y="245.0" type="curve" smooth="yes"/>
      <point x="44.0" y="515.0" type="line" smooth="yes"/>
      <point x="45.0" y="519.0"/>
      <point x="49.0" y="520.0"/>
    </contour>
    <contour>
      <point x="463.0" y="1590.0" type="curve" smooth="yes"/>
      <point x="493.0" y="1590.0" type="line" smooth="yes"/>
      <point x="497.0" y="1590.0"/>
      <point x="498.0" y="1588.0"/>
      <point x="497.0" y="1584.0" type="curve" smooth="yes"/>
      <point x="89.0" y="-184.0" type="line" smooth="yes"/>
      <point x="88.0" y="-188.0"/>
      <point x="86.0" y="-190.0"/>
      <point x="82.0" y="-190.0" type="curve" smooth="yes"/>
      <point x="52.0" y="-190.0" type="line" smooth="yes"/>
      <point x="48.0" y="-190.0"/>
      <point x="48.0" y="-188.0"/>
      <point x="49.0" y="-184.0" type="curve" smooth="yes"/>
      <point x="457.0" y="1584.0" type="line" smooth="yes"/>
      <point x="458.0" y="1588.0"/>
      <point x="459.0" y="1590.0"/>
    </contour>
  </outline>
</glyph>
<glyph name="percent" format="2">
  <advance height="2048" width="752"/>
  <unicode hex="0025"/>
  <outline>
    <contour>
      <point x="153.0" y="981.0" type="curve" smooth="yes"/>
      <point x="210.0" y="1226.0" type="line" smooth="yes"/>
      <point x="239.0" y="1352.0"/>
      <point x="302.0" y="1418.0"/>
      <point x="405.0" y="1418.0" type="curve" smooth="yes"/>
      <point x="508.0" y="1418.0"/>
      <point x="548.0" y="1352.0"/>
      <point x="519.0" y="1226.0" type="curve" smooth="yes"/>
      <point x="462.0" y="981.0" type="line" smooth="yes"/>
      <point x="433.0" y="855.0"/>
      <point x="363.0" y="788.0"/>
      <point x="260.0" y="788.0" type="curve" smooth="yes"/>
      <point x="157.0" y="788.0"/>
      <point x="124.0" y="855.0"/>
    </contour>
    <contour>
      <point x="250.0" y="970.0" type="line" smooth="yes"/>
      <point x="231.0" y="888.0"/>
      <point x="235.0" y="860.0"/>
      <point x="277.0" y="860.0" type="curve" smooth="yes"/>
      <point x="319.0" y="860.0"/>
      <point x="340.0" y="888.0"/>
      <point x="359.0" y="970.0" type="curve" smooth="yes"/>
      <point x="421.0" y="1237.0" type="line" smooth="yes"/>
      <point x="440.0" y="1319.0"/>
      <point x="431.0" y="1346.0"/>
      <point x="389.0" y="1346.0" type="curve" smooth="yes"/>
      <point x="347.0" y="1346.0"/>
      <point x="331.0" y="1319.0"/>
      <point x="312.0" y="1237.0" type="curve" smooth="yes"/>
    </contour>
    <contour>
      <point x="316.0" y="174.0" type="curve" smooth="yes"/>
      <point x="373.0" y="420.0" type="line" smooth="yes"/>
      <point x="402.0" y="546.0"/>
      <point x="467.0" y="612.0"/>
      <point x="570.0" y="612.0" type="curve" smooth="yes"/>
      <point x="673.0" y="612.0"/>
      <point x="711.0" y="546.0"/>
      <point x="682.0" y="420.0" type="curve" smooth="yes"/>
      <point x="625.0" y="174.0" type="line" smooth="yes"/>
      <point x="596.0" y="48.0"/>
      <point x="528.0" y="-18.0"/>
      <point x="425.0" y="-18.0" type="curve" smooth="yes"/>
      <point x="322.0" y="-18.0"/>
      <point x="287.0" y="48.0"/>
    </contour>
    <contour>
      <point x="414.0" y="164.0" type="line" smooth="yes"/>
      <point x="395.0" y="82.0"/>
      <point x="399.0" y="54.0"/>
      <point x="441.0" y="54.0" type="curve" smooth="yes"/>
      <point x="483.0" y="54.0"/>
      <point x="505.0" y="82.0"/>
      <point x="524.0" y="164.0" type="curve" smooth="yes"/>
      <point x="586.0" y="431.0" type="line" smooth="yes"/>
      <point x="605.0" y="513.0"/>
      <point x="596.0" y="540.0"/>
      <point x="554.0" y="540.0" type="curve" smooth="yes"/>
      <point x="512.0" y="540.0"/>
      <point x="495.0" y="513.0"/>
      <point x="476.0" y="431.0" type="curve" smooth="yes"/>
    </contour>
    <contour>
      <point x="894.0" y="1395.0" type="curve" smooth="yes"/>
      <point x="33.0" y="5.0" type="line" smooth="yes"/>
      <point x="30.0" y="1.0"/>
      <point x="28.0" y="0.0"/>
      <point x="24.0" y="0.0" type="curve" smooth="yes"/>
      <point x="-59.0" y="0.0" type="line" smooth="yes"/>
      <point x="-63.0" y="0.0"/>
      <point x="-63.0" y="1.0"/>
      <point x="-60.0" y="5.0" type="curve" smooth="yes"/>
      <point x="802.0" y="1395.0" type="line" smooth="yes"/>
      <point x="805.0" y="1399.0"/>
      <point x="807.0" y="1400.0"/>
      <point x="811.0" y="1400.0" type="curve" smooth="yes"/>
      <point x="893.0" y="1400.0" type="line" smooth="yes"/>
      <point x="897.0" y="1400.0"/>
      <point x="897.0" y="1399.0"/>
    </contour>
  </outline>
</glyph>
<glyph name="ampersand" format="2">
  <advance height="1920" width="616"/>
  <unicode hex="0026"/>
  <outline>
    <contour>
      <point x="345.0" y="5.0" type="curve" smooth="yes"/>
      <point x="309.0" y="1036.0" type="line" smooth="yes"/>
      <point x="304.0" y="1126.0"/>
      <point x="301.0" y="1178.0"/>
      <point x="316.0" y="1243.0" type="curve" smooth="yes"/>
      <point x="337.0" y="1332.0"/>
      <point x="416.0" y="1417.0"/>
      <point x="546.0" y="1417.0" type="curve" smooth="yes"/>
      <point x="678.0" y="1417.0"/>
      <point x="722.0" y="1336.0"/>
      <point x="698.0" y="1230.0" type="curve" smooth="yes"/>
      <point x="666.0" y="1092.0"/>
      <point x="531.0" y="994.0"/>
      <point x="373.0" y="930.0" type="curve" smooth="yes"/>
      <point x="241.0" y="877.0"/>
      <point x="206.0" y="819.0"/>
      <point x="179.0" y="703.0" type="curve" smooth="yes"/>
      <point x="170.0" y="663.0"/>
      <point x="166.0" y="602.0"/>
      <point x="171.0" y="535.0" type="curve" smooth="yes"/>
      <point x="181.0" y="266.0" type="line" smooth="yes"/>
      <point x="185.0" y="156.0"/>
      <point x="182.0" y="90.0"/>
      <point x="231.0" y="90.0" type="curve" smooth="yes"/>
      <point x="321.0" y="90.0"/>
      <point x="485.0" y="409.0"/>
      <point x="553.0" y="643.0" type="curve" smooth="yes"/>
      <point x="554.0" y="646.0"/>
      <point x="557.0" y="647.0"/>
      <point x="560.0" y="647.0" type="curve" smooth="yes"/>
      <point x="627.0" y="647.0" type="line" smooth="yes"/>
      <point x="631.0" y="647.0"/>
      <point x="632.0" y="645.0"/>
      <point x="631.0" y="641.0" type="curve" smooth="yes"/>
      <point x="544.0" y="357.0"/>
      <point x="327.0" y="-16.0"/>
      <point x="175.0" y="-16.0" type="curve" smooth="yes"/>
      <point x="73.0" y="-16.0"/>
      <point x="64.0" y="75.0"/>
      <point x="57.0" y="246.0" type="curve" smooth="yes"/>
      <point x="48.0" y="480.0" type="line" smooth="yes"/>
      <point x="41.0" y="568.0"/>
      <point x="43.0" y="638.0"/>
      <point x="57.0" y="697.0" type="curve" smooth="yes"/>
      <point x="92.0" y="847.0"/>
      <point x="207.0" y="932.0"/>
      <point x="353.0" y="994.0" type="curve" smooth="yes"/>
      <point x="502.0" y="1058.0"/>
      <point x="574.0" y="1123.0"/>
      <point x="597.0" y="1222.0" type="curve" smooth="yes"/>
      <point x="614.0" y="1296.0"/>
      <point x="598.0" y="1340.0"/>
      <point x="532.0" y="1340.0" type="curve" smooth="yes"/>
      <point x="479.0" y="1340.0"/>
      <point x="444.0" y="1299.0"/>
      <point x="430.0" y="1239.0" type="curve" smooth="yes"/>
      <point x="417.0" y="1183.0"/>
      <point x="417.0" y="1140.0"/>
      <point x="419.0" y="1107.0" type="curve" smooth="yes"/>
      <point x="464.0" y="5.0" type="line" smooth="yes"/>
      <point x="465.0" y="2.0"/>
      <point x="465.0" y="0.0"/>
      <point x="461.0" y="0.0" type="curve" smooth="yes"/>
      <point x="352.0" y="0.0" type="line" smooth="yes"/>
      <point x="348.0" y="0.0"/>
      <point x="346.0" y="2.0"/>
    </contour>
  </outline>
</glyph>
<glyph name="quotesingle" format="2">
  <advance height="1920" width="285"/>
  <unicode hex="0027"/>
  <outline>
    <contour>
      <point x="245.0" y="918.0" type="curve" smooth="yes"/>
      <point x="223.0" y="918.0" type="line" smooth="yes"/>
      <point x="216.0" y="918.0"/>
      <point x="212.0" y="921.0"/>
      <point x="213.0" y="928.0" type="curve" smooth="yes"/>
      <point x="256.0" y="1204.0" type="line" smooth="yes"/>
      <point x="257.0" y="1211.0"/>
      <point x="257.0" y="1217.0"/>
      <point x="259.0" y="1224.0" type="curve" smooth="yes"/>
      <point x="302.0" y="1410.0" type="line" smooth="yes"/>
      <point x="304.0" y="1417.0"/>
      <point x="307.0" y="1420.0"/>
      <point x="314.0" y="1420.0" type="curve" smooth="yes"/>
      <point x="387.0" y="1420.0" type="line" smooth="yes"/>
      <point x="394.0" y="1420.0"/>
      <point x="397.0" y="1417.0"/>
      <point x="395.0" y="1410.0" type="curve" smooth="yes"/>
      <point x="352.0" y="1224.0" type="line" smooth="yes"/>
      <point x="350.0" y="1217.0"/>
      <point x="348.0" y="1211.0"/>
      <point x="345.0" y="1204.0" type="curve" smooth="yes"/>
      <point x="259.0" y="928.0" type="line" smooth="yes"/>
      <point x="256.0" y="921.0"/>
      <point x="252.0" y="918.0"/>
    </contour>
  </outline>
</glyph>
<glyph name="parenleft" format="2">
  <advance height="2048" width="299"/>
  <unicode hex="0028"/>
  <outline>
    <contour>
      <point x="194.0" y="1220.0" type="line" smooth="yes"/>
      <point x="241.0" y="1422.0"/>
      <point x="350.0" y="1582.0"/>
      <point x="505.0" y="1610.0" type="curve" smooth="yes"/>
      <point x="509.0" y="1611.0"/>
      <point x="510.0" y="1610.0"/>
      <point x="509.0" y="1606.0" type="curve" smooth="yes"/>
      <point x="499.0" y="1562.0" type="line" smooth="yes"/>
      <point x="498.0" y="1559.0"/>
      <point x="495.0" y="1557.0"/>
      <point x="492.0" y="1555.0" type="curve" smooth="yes"/>
      <point x="419.0" y="1525.0"/>
      <point x="347.0" y="1427.0"/>
      <point x="301.0" y="1227.0" type="curve" smooth="yes"/>
      <point x="22.0" y="19.0" type="line" smooth="yes"/>
      <point x="-24.0" y="-181.0"/>
      <point x="3.0" y="-279.0"/>
      <point x="62.0" y="-309.0" type="curve" smooth="yes"/>
      <point x="65.0" y="-311.0"/>
      <point x="66.0" y="-313.0"/>
      <point x="65.0" y="-316.0" type="curve" smooth="yes"/>
      <point x="55.0" y="-360.0" type="line" smooth="yes"/>
      <point x="54.0" y="-364.0"/>
      <point x="53.0" y="-365.0"/>
      <point x="49.0" y="-364.0" type="curve" smooth="yes"/>
      <point x="-94.0" y="-336.0"/>
      <point x="-129.0" y="-176.0"/>
      <point x="-82.0" y="26.0" type="curve" smooth="yes"/>
    </contour>
  </outline>
</glyph>
<glyph name="parenright" format="2">
  <advance height="2048" width="298"/>
  <unicode hex="0029"/>
  <outline>
    <contour>
      <point x="153.0" y="26.0" type="line" smooth="yes"/>
      <point x="106.0" y="-176.0"/>
      <point x="-3.0" y="-336.0"/>
      <point x="-158.0" y="-364.0" type="curve" smooth="yes"/>
      <point x="-162.0" y="-365.0"/>
      <point x="-162.0" y="-364.0"/>
      <point x="-161.0" y="-360.0" type="curve" smooth="yes"/>
      <point x="-151.0" y="-316.0" type="line" smooth="yes"/>
      <point x="-150.0" y="-313.0"/>
      <point x="-148.0" y="-311.0"/>
      <point x="-145.0" y="-309.0" type="curve" smooth="yes"/>
      <point x="-72.0" y="-279.0"/>
      <point x="-1.0" y="-181.0"/>
      <point x="45.0" y="19.0" type="curve" smooth="yes"/>
      <point x="324.0" y="1227.0" type="line" smooth="yes"/>
      <point x="370.0" y="1427.0"/>
      <point x="344.0" y="1525.0"/>
      <point x="285.0" y="1555.0" type="curve" smooth="yes"/>
      <point x="282.0" y="1557.0"/>
      <point x="282.0" y="1559.0"/>
      <point x="283.0" y="1562.0" type="curve" smooth="yes"/>
      <point x="293.0" y="1606.0" type="line" smooth="yes"/>
      <point x="294.0" y="1610.0"/>
      <point x="294.0" y="1611.0"/>
      <point x="298.0" y="1610.0" type="curve" smooth="yes"/>
      <point x="441.0" y="1582.0"/>
      <point x="476.0" y="1422.0"/>
      <point x="429.0" y="1220.0" type="curve" smooth="yes"/>
    </contour>
  </outline>
</glyph>
<glyph name="asterisk" format="2">
  <advance height="2048" width="518"/>
  <unicode hex="002A"/>
  <outline>
    <contour>
      <point x="421.0" y="1194.0" type="line"/>
      <point x="416.0" y="1227.0" type="line"/>
      <point x="596.0" y="1315.0" type="line" smooth="yes"/>
      <point x="599.0" y="1317.0"/>
      <point x="602.0" y="1318.0"/>
      <point x="606.0" y="1318.0" type="curve" smooth="yes"/>
      <point x="640.0" y="1324.0" type="line" smooth="yes"/>
      <point x="644.0" y="1324.0"/>
      <point x="646.0" y="1324.0"/>
      <point x="646.0" y="1320.0" type="curve" smooth="yes"/>
      <point x="654.0" y="1242.0" type="line" smooth="yes"/>
      <point x="654.0" y="1238.0"/>
      <point x="651.0" y="1236.0"/>
      <point x="648.0" y="1234.0" type="curve" smooth="yes"/>
      <point x="616.0" y="1220.0" type="line" smooth="yes"/>
      <point x="613.0" y="1218.0"/>
      <point x="609.0" y="1217.0"/>
      <point x="605.0" y="1217.0" type="curve" smooth="yes"/>
    </contour>
    <contour>
      <point x="401.0" y="1201.0" type="line"/>
      <point x="434.0" y="1221.0" type="line"/>
      <point x="538.0" y="1098.0" type="line" smooth="yes"/>
      <point x="540.0" y="1096.0"/>
      <point x="541.0" y="1092.0"/>
      <point x="542.0" y="1089.0" type="curve" smooth="yes"/>
      <point x="551.0" y="1060.0" type="line" smooth="yes"/>
      <point x="552.0" y="1057.0"/>
      <point x="551.0" y="1056.0"/>
      <point x="548.0" y="1054.0" type="curve" smooth="yes"/>
      <point x="469.0" y="1004.0" type="line" smooth="yes"/>
      <point x="466.0" y="1002.0"/>
      <point x="464.0" y="1003.0"/>
      <point x="462.0" y="1005.0" type="curve" smooth="yes"/>
      <point x="446.0" y="1029.0" type="line" smooth="yes"/>
      <point x="444.0" y="1031.0"/>
      <point x="442.0" y="1034.0"/>
      <point x="441.0" y="1037.0" type="curve" smooth="yes"/>
    </contour>
    <contour>
      <point x="407.0" y="1221.0" type="line"/>
      <point x="430.0" y="1201.0" type="line"/>
      <point x="315.0" y="1037.0" type="line" smooth="yes"/>
      <point x="312.0" y="1034.0"/>
      <point x="310.0" y="1031.0"/>
      <point x="308.0" y="1029.0" type="curve" smooth="yes"/>
      <point x="280.0" y="1005.0" type="line" smooth="yes"/>
      <point x="278.0" y="1003.0"/>
      <point x="275.0" y="1002.0"/>
      <point x="272.0" y="1004.0" type="curve" smooth="yes"/>
      <point x="216.0" y="1054.0" type="line" smooth="yes"/>
      <point x="213.0" y="1056.0"/>
      <point x="213.0" y="1057.0"/>
      <point x="216.0" y="1060.0" type="curve" smooth="yes"/>
      <point x="238.0" y="1089.0" type="line" smooth="yes"/>
      <point x="241.0" y="1092.0"/>
      <point x="244.0" y="1096.0"/>
      <point x="246.0" y="1098.0" type="curve" smooth="yes"/>
    </contour>
    <contour>
      <point x="427.0" y="1227.0" type="line"/>
      <point x="409.0" y="1194.0" type="line"/>
      <point x="235.0" y="1217.0" type="line" smooth="yes"/>
      <point x="231.0" y="1217.0"/>
      <point x="230.0" y="1218.0"/>
      <point x="227.0" y="1220.0" type="curve" smooth="yes"/>
      <point x="199.0" y="1234.0" type="line" smooth="yes"/>
      <point x="196.0" y="1236.0"/>
      <point x="196.0" y="1238.0"/>
      <point x="198.0" y="1242.0" type="curve" smooth="yes"/>
      <point x="242.0" y="1320.0" type="line" smooth="yes"/>
      <point x="244.0" y="1324.0"/>
      <point x="245.0" y="1324.0"/>
      <point x="249.0" y="1324.0" type="curve" smooth="yes"/>
      <point x="280.0" y="1318.0" type="line" smooth="yes"/>
      <point x="284.0" y="1318.0"/>
      <point x="286.0" y="1317.0"/>
      <point x="289.0" y="1315.0" type="curve" smooth="yes"/>
    </contour>
    <contour>
      <point x="436.0" y="1211.0" type="line"/>
      <point x="401.0" y="1211.0" type="line"/>
      <point x="408.0" y="1389.0" type="line" smooth="yes"/>
      <point x="409.0" y="1393.0"/>
      <point x="409.0" y="1395.0"/>
      <point x="410.0" y="1399.0" type="curve" smooth="yes"/>
      <point x="422.0" y="1432.0" type="line" smooth="yes"/>
      <point x="423.0" y="1436.0"/>
      <point x="425.0" y="1437.0"/>
      <point x="429.0" y="1437.0" type="curve" smooth="yes"/>
      <point x="513.0" y="1437.0" type="line" smooth="yes"/>
      <point x="517.0" y="1437.0"/>
      <point x="518.0" y="1436.0"/>
      <point x="517.0" y="1432.0" type="curve" smooth="yes"/>
      <point x="513.0" y="1399.0" type="line" smooth="yes"/>
      <point x="512.0" y="1395.0"/>
      <point x="512.0" y="1393.0"/>
      <point x="511.0" y="1389.0" type="curve" smooth="yes"/>
    </contour>
  </outline>
</glyph>
<glyph name="plus" format="2">
  <advance height="1920" width="560"/>
  <unicode hex="002B"/>
  <outline>
    <contour>
      <point x="71.0" y="646.0" type="curve" smooth="yes"/>
      <point x="90.0" y="726.0" type="line" smooth="yes"/>
      <point x="91.0" y="730.0"/>
      <point x="93.0" y="731.0"/>
      <point x="97.0" y="731.0" type="curve" smooth="yes"/>
      <point x="561.0" y="731.0" type="line" smooth="yes"/>
      <point x="565.0" y="731.0"/>
      <point x="567.0" y="730.0"/>
      <point x="566.0" y="726.0" type="curve" smooth="yes"/>
      <point x="547.0" y="646.0" type="line" smooth="yes"/>
      <point x="546.0" y="642.0"/>
      <point x="544.0" y="642.0"/>
      <point x="540.0" y="642.0" type="curve" smooth="yes"/>
      <point x="76.0" y="642.0" type="line" smooth="yes"/>
      <point x="72.0" y="642.0"/>
      <point x="70.0" y="642.0"/>
    </contour>
    <contour>
      <point x="338.0" y="935.0" type="curve" smooth="yes"/>
      <point x="414.0" y="935.0" type="line" smooth="yes"/>
      <point x="418.0" y="935.0"/>
      <point x="420.0" y="934.0"/>
      <point x="419.0" y="930.0" type="curve" smooth="yes"/>
      <point x="303.0" y="430.0" type="line" smooth="yes"/>
      <point x="302.0" y="426.0"/>
      <point x="300.0" y="425.0"/>
      <point x="296.0" y="425.0" type="curve" smooth="yes"/>
      <point x="220.0" y="425.0" type="line" smooth="yes"/>
      <point x="216.0" y="425.0"/>
      <point x="214.0" y="426.0"/>
      <point x="215.0" y="430.0" type="curve" smooth="yes"/>
      <point x="331.0" y="930.0" type="line" smooth="yes"/>
      <point x="332.0" y="934.0"/>
      <point x="334.0" y="935.0"/>
    </contour>
  </outline>
</glyph>
<glyph name="comma" format="2">
  <advance height="1920" width="291"/>
  <unicode hex="002C"/>
  <outline>
    <contour>
      <point x="-91.0" y="-222.0" type="curve" smooth="yes"/>
      <point x="-100.0" y="-222.0" type="line" smooth="yes"/>
      <point x="-107.0" y="-222.0"/>
      <point x="-111.0" y="-220.0"/>
      <point x="-106.0" y="-212.0" type="curve" smooth="yes"/>
      <point x="10.0" y="0.0" type="line"/>
      <point x="-26.0" y="0.0" type="line" smooth="yes"/>
      <point x="-35.0" y="0.0"/>
      <point x="-36.0" y="1.0"/>
      <point x="-34.0" y="10.0" type="curve" smooth="yes"/>
      <point x="15.0" y="219.0" type="line" smooth="yes"/>
      <point x="17.0" y="226.0"/>
      <point x="20.0" y="229.0"/>
      <point x="27.0" y="229.0" type="curve" smooth="yes"/>
      <point x="130.0" y="229.0" type="line" smooth="yes"/>
      <point x="137.0" y="229.0"/>
      <point x="140.0" y="226.0"/>
      <point x="138.0" y="219.0" type="curve" smooth="yes"/>
      <point x="91.0" y="17.0" type="line" smooth="yes"/>
      <point x="89.0" y="10.0"/>
      <point x="89.0" y="8.0"/>
      <point x="83.0" y="0.0" type="curve" smooth="yes"/>
      <point x="-73.0" y="-212.0" type="line" smooth="yes"/>
      <point x="-79.0" y="-221.0"/>
      <point x="-83.0" y="-222.0"/>
    </contour>
  </outline>
</glyph>
<glyph name="hyphen" format="2">
  <advance height="1920" width="329"/>
  <unicode hex="002D"/>
  <outline>
    <contour>
      <point x="54.0" y="573.0" type="curve" smooth="yes"/>
      <point x="73.0" y="652.0" type="line" smooth="yes"/>
      <point x="74.0" y="656.0"/>
      <point x="76.0" y="657.0"/>
      <point x="80.0" y="657.0" type="curve" smooth="yes"/>
      <point x="314.0" y="657.0" type="line" smooth="yes"/>
      <point x="318.0" y="657.0"/>
      <point x="320.0" y="656.0"/>
      <point x="319.0" y="652.0" type="curve" smooth="yes"/>
      <point x="300.0" y="573.0" type="line" smooth="yes"/>
      <point x="299.0" y="569.0"/>
      <point x="297.0" y="568.0"/>
      <point x="293.0" y="568.0" type="curve" smooth="yes"/>
      <point x="59.0" y="568.0" type="line" smooth="yes"/>
      <point x="55.0" y="568.0"/>
      <point x="53.0" y="569.0"/>
    </contour>
  </outline>
</glyph>
<glyph name="period" format="2">
  <advance height="1920" width="290"/>
  <unicode hex="002E"/>
  <outline>
    <contour>
      <point x="77.0" y="0.0" type="curve" smooth="yes"/>
      <point x="-26.0" y="0.0" type="line" smooth="yes"/>
      <point x="-33.0" y="0.0"/>
      <point x="-36.0" y="3.0"/>
      <point x="-34.0" y="10.0" type="curve" smooth="yes"/>
      <point x="15.0" y="219.0" type="line" smooth="yes"/>
      <point x="17.0" y="226.0"/>
      <point x="20.0" y="229.0"/>
      <point x="27.0" y="229.0" type="curve" smooth="yes"/>
      <point x="130.0" y="229.0" type="line" smooth="yes"/>
      <point x="137.0" y="229.0"/>
      <point x="140.0" y="226.0"/>
      <point x="138.0" y="219.0" type="curve" smooth="yes"/>
      <point x="89.0" y="10.0" type="line" smooth="yes"/>
      <point x="87.0" y="3.0"/>
      <point x="84.0" y="0.0"/>
    </contour>
  </outline>
</glyph>
<glyph name="slash" format="2">
  <advance height="2048" width="441"/>
  <unicode hex="002F"/>
  <outline>
    <contour>
      <point x="625.0" y="1395.0" type="curve" smooth="yes"/>
      <point x="-28.0" y="-95.0" type="line" smooth="yes"/>
      <point x="-31.0" y="-99.0"/>
      <point x="-32.0" y="-100.0"/>
      <point x="-36.0" y="-100.0" type="curve" smooth="yes"/>
      <point x="-117.0" y="-100.0" type="line" smooth="yes"/>
      <point x="-121.0" y="-100.0"/>
      <point x="-123.0" y="-99.0"/>
      <point x="-121.0" y="-95.0" type="curve" smooth="yes"/>
      <point x="532.0" y="1395.0" type="line" smooth="yes"/>
      <point x="534.0" y="1399.0"/>
      <point x="537.0" y="1400.0"/>
      <point x="540.0" y="1400.0" type="curve" smooth="yes"/>
      <point x="621.0" y="1400.0" type="line" smooth="yes"/>
      <point x="625.0" y="1400.0"/>
      <point x="627.0" y="1399.0"/>
    </contour>
  </outline>
</glyph>
<glyph name="one" format="2">
  <advance height="1920" width="302"/>
  <unicode hex="0031"/>
  <outline>
    <contour>
      <point x="297.0" y="1372.0" type="curve" smooth="yes"/>
      <point x="329.0" y="1373.0"/>
      <point x="349.0" y="1388.0"/>
      <point x="361.0" y="1420.0" type="curve" smooth="yes"/>
      <point x="363.0" y="1424.0"/>
      <point x="365.0" y="1425.0"/>
      <point x="368.0" y="1425.0" type="curve" smooth="yes"/>
      <point x="412.0" y="1425.0" type="line" smooth="yes"/>
      <point x="416.0" y="1425.0"/>
      <point x="417.0" y="1424.0"/>
      <point x="416.0" y="1420.0" type="curve" smooth="yes"/>
      <point x="89.0" y="5.0" type="line" smooth="yes"/>
      <point x="88.0" y="1.0"/>
      <point x="87.0" y="0.0"/>
      <point x="83.0" y="0.0" type="curve" smooth="yes"/>
      <point x="-20.0" y="0.0" type="line" smooth="yes"/>
      <point x="-24.0" y="0.0"/>
      <point x="-26.0" y="1.0"/>
      <point x="-25.0" y="5.0" type="curve" smooth="yes"/>
      <point x="290.0" y="1368.0" type="line" smooth="yes"/>
      <point x="291.0" y="1371.0"/>
      <point x="293.0" y="1372.0"/>
    </contour>
  </outline>
</glyph>
<glyph name="two" format="2">
  <advance height="1920" width="418"/>
  <unicode hex="0032"/>
  <outline>
    <contour>
      <point x="-56.0" y="118.0" type="line" smooth="yes"/>
      <point x="29.0" y="485.0"/>
      <point x="296.0" y="658.0"/>
      <point x="366.0" y="963.0" type="curve" smooth="yes"/>
      <point x="407.0" y="1141.0" type="line" smooth="yes"/>
      <point x="436.0" y="1267.0"/>
      <point x="448.0" y="1329.0"/>
      <point x="398.0" y="1329.0" type="curve" smooth="yes"/>
      <point x="352.0" y="1329.0"/>
      <point x="330.0" y="1264.0"/>
      <point x="302.0" y="1143.0" type="curve" smooth="yes"/>
      <point x="227.0" y="817.0" type="line" smooth="yes"/>
      <point x="226.0" y="813.0"/>
      <point x="225.0" y="812.0"/>
      <point x="221.0" y="812.0" type="curve" smooth="yes"/>
      <point x="122.0" y="812.0" type="line" smooth="yes"/>
      <point x="118.0" y="812.0"/>
      <point x="117.0" y="813.0"/>
      <point x="118.0" y="817.0" type="curve" smooth="yes"/>
      <point x="192.0" y="1139.0" type="line" smooth="yes"/>
      <point x="233.0" y="1318.0"/>
      <point x="286.0" y="1417.0"/>
      <point x="419.0" y="1417.0" type="curve" smooth="yes"/>
      <point x="551.0" y="1417.0"/>
      <point x="561.0" y="1336.0"/>
      <point x="515.0" y="1137.0" type="curve" smooth="yes"/>
      <point x="485.0" y="1004.0" type="line" smooth="yes"/>
      <point x="401.0" y="640.0"/>
      <point x="140.0" y="464.0"/>
      <point x="71.0" y="164.0" type="curve" smooth="yes"/>
      <point x="56.0" y="98.0" type="line"/>
      <point x="288.0" y="98.0" type="line" smooth="yes"/>
      <point x="292.0" y="98.0"/>
      <point x="292.0" y="96.0"/>
      <point x="291.0" y="92.0" type="curve" smooth="yes"/>
      <point x="271.0" y="5.0" type="line" smooth="yes"/>
      <point x="270.0" y="1.0"/>
      <point x="269.0" y="0.0"/>
      <point x="265.0" y="0.0" type="curve" smooth="yes"/>
      <point x="-78.0" y="0.0" type="line" smooth="yes"/>
      <point x="-82.0" y="0.0"/>
      <point x="-83.0" y="1.0"/>
      <point x="-82.0" y="5.0" type="curve" smooth="yes"/>
    </contour>
  </outline>
</glyph>
<glyph name="three" format="2">
  <advance height="1920" width="464"/>
  <unicode hex="0033"/>
  <outline>
    <contour>
      <point x="18.0" y="413.0" type="curve" smooth="yes"/>
      <point x="121.0" y="413.0" type="line" smooth="yes"/>
      <point x="125.0" y="413.0"/>
      <point x="126.0" y="411.0"/>
      <point x="125.0" y="407.0" type="curve" smooth="yes"/>
      <point x="72.0" y="176.0" type="line" smooth="yes"/>
      <point x="58.0" y="116.0"/>
      <point x="61.0" y="70.0"/>
      <point x="125.0" y="70.0" type="curve" smooth="yes"/>
      <point x="193.0" y="70.0"/>
      <point x="220.0" y="122.0"/>
      <point x="235.0" y="187.0" type="curve" smooth="yes"/>
      <point x="322.0" y="562.0" type="line" smooth="yes"/>
      <point x="336.0" y="624.0"/>
      <point x="324.0" y="664.0"/>
      <point x="254.0" y="664.0" type="curve" smooth="yes"/>
      <point x="214.0" y="664.0" type="line" smooth="yes"/>
      <point x="210.0" y="664.0"/>
      <point x="209.0" y="665.0"/>
      <point x="210.0" y="669.0" type="curve" smooth="yes"/>
      <point x="228.0" y="746.0" type="line" smooth="yes"/>
      <point x="229.0" y="750.0"/>
      <point x="230.0" y="751.0"/>
      <point x="234.0" y="751.0" type="curve" smooth="yes"/>
      <point x="264.0" y="751.0" type="line" smooth="yes"/>
      <point x="329.0" y="751.0"/>
      <point x="352.0" y="794.0"/>
      <point x="365.0" y="852.0" type="curve" smooth="yes"/>
      <point x="452.0" y="1232.0" type="line" smooth="yes"/>
      <point x="465.0" y="1288.0"/>
      <point x="466.0" y="1328.0"/>
      <point x="412.0" y="1328.0" type="curve" smooth="yes"/>
      <point x="352.0" y="1328.0"/>
      <point x="338.0" y="1280.0"/>
      <point x="323.0" y="1216.0" type="curve" smooth="yes"/>
      <point x="263.0" y="957.0" type="line" smooth="yes"/>
      <point x="262.0" y="953.0"/>
      <point x="260.0" y="952.0"/>
      <point x="256.0" y="952.0" type="curve" smooth="yes"/>
      <point x="157.0" y="952.0" type="line" smooth="yes"/>
      <point x="153.0" y="952.0"/>
      <point x="153.0" y="953.0"/>
      <point x="154.0" y="957.0" type="curve" smooth="yes"/>
      <point x="215.0" y="1220.0" type="line" smooth="yes"/>
      <point x="242.0" y="1337.0"/>
      <point x="301.0" y="1417.0"/>
      <point x="435.0" y="1417.0" type="curve" smooth="yes"/>
      <point x="569.0" y="1417.0"/>
      <point x="596.0" y="1349.0"/>
      <point x="569.0" y="1234.0" type="curve" smooth="yes"/>
      <point x="486.0" y="875.0" type="line" smooth="yes"/>
      <point x="456.0" y="745.0"/>
      <point x="390.0" y="700.0"/>
      <point x="256.0" y="700.0" type="curve"/>
      <point x="271.0" y="725.0" type="line"/>
      <point x="405.0" y="725.0"/>
      <point x="463.0" y="676.0"/>
      <point x="433.0" y="545.0" type="curve" smooth="yes"/>
      <point x="350.0" y="185.0" type="line" smooth="yes"/>
      <point x="321.0" y="59.0"/>
      <point x="251.0" y="-18.0"/>
      <point x="97.0" y="-18.0" type="curve" smooth="yes"/>
      <point x="-33.0" y="-18.0"/>
      <point x="-69.0" y="55.0"/>
      <point x="-42.0" y="173.0" type="curve" smooth="yes"/>
      <point x="12.0" y="407.0" type="line" smooth="yes"/>
      <point x="13.0" y="411.0"/>
      <point x="14.0" y="413.0"/>
    </contour>
  </outline>
</glyph>
<glyph name="four" format="2">
  <advance height="1920" width="461"/>
  <unicode hex="0034"/>
  <outline>
    <contour>
      <point x="432.0" y="451.0" type="curve" smooth="yes"/>
      <point x="414.0" y="374.0" type="line" smooth="yes"/>
      <point x="413.0" y="370.0"/>
      <point x="412.0" y="369.0"/>
      <point x="408.0" y="369.0" type="curve" smooth="yes"/>
      <point x="318.0" y="369.0" type="line"/>
      <point x="234.0" y="5.0" type="line" smooth="yes"/>
      <point x="233.0" y="1.0"/>
      <point x="232.0" y="0.0"/>
      <point x="228.0" y="0.0" type="curve" smooth="yes"/>
      <point x="124.0" y="0.0" type="line" smooth="yes"/>
      <point x="120.0" y="0.0"/>
      <point x="119.0" y="1.0"/>
      <point x="120.0" y="5.0" type="curve" smooth="yes"/>
      <point x="204.0" y="369.0" type="line"/>
      <point x="-7.0" y="369.0" type="line" smooth="yes"/>
      <point x="-11.0" y="369.0"/>
      <point x="-12.0" y="370.0"/>
      <point x="-11.0" y="374.0" type="curve" smooth="yes"/>
      <point x="10.0" y="462.0" type="line" smooth="yes"/>
      <point x="11.0" y="466.0"/>
      <point x="14.0" y="474.0"/>
      <point x="16.0" y="478.0" type="curve" smooth="yes"/>
      <point x="471.0" y="1395.0" type="line" smooth="yes"/>
      <point x="473.0" y="1398.0"/>
      <point x="477.0" y="1400.0"/>
      <point x="481.0" y="1400.0" type="curve" smooth="yes"/>
      <point x="551.0" y="1400.0" type="line" smooth="yes"/>
      <point x="555.0" y="1400.0"/>
      <point x="556.0" y="1399.0"/>
      <point x="555.0" y="1395.0" type="curve" smooth="yes"/>
      <point x="338.0" y="456.0" type="line"/>
      <point x="428.0" y="456.0" type="line" smooth="yes"/>
      <point x="432.0" y="456.0"/>
      <point x="433.0" y="455.0"/>
    </contour>
    <contour>
      <point x="229.0" y="456.0" type="line"/>
      <point x="367.0" y="1052.0" type="line"/>
      <point x="83.0" y="456.0" type="line"/>
    </contour>
  </outline>
</glyph>
<glyph name="five" format="2">
  <advance height="1920" width="425"/>
  <unicode hex="0035"/>
  <outline>
    <contour>
      <point x="21.0" y="364.0" type="curve" smooth="yes"/>
      <point x="115.0" y="364.0" type="line" smooth="yes"/>
      <point x="118.0" y="364.0"/>
      <point x="120.0" y="363.0"/>
      <point x="119.0" y="360.0" type="curve" smooth="yes"/>
      <point x="65.0" y="128.0"/>
      <point x="58.0" y="64.0"/>
      <point x="100.0" y="64.0" type="curve" smooth="yes"/>
      <point x="142.0" y="64.0"/>
      <point x="182.0" y="166.0"/>
      <point x="219.0" y="326.0" type="curve" smooth="yes"/>
      <point x="286.0" y="614.0" type="line" smooth="yes"/>
      <point x="333.0" y="818.0"/>
      <point x="338.0" y="848.0"/>
      <point x="307.0" y="848.0" type="curve" smooth="yes"/>
      <point x="282.0" y="848.0"/>
      <point x="258.0" y="805.0"/>
      <point x="195.0" y="646.0" type="curve" smooth="yes"/>
      <point x="193.0" y="641.0"/>
      <point x="189.0" y="640.0"/>
      <point x="186.0" y="640.0" type="curve" smooth="yes"/>
      <point x="95.0" y="640.0" type="line" smooth="yes"/>
      <point x="91.0" y="640.0"/>
      <point x="90.0" y="642.0"/>
      <point x="92.0" y="646.0" type="curve" smooth="yes"/>
      <point x="301.0" y="1395.0" type="line" smooth="yes"/>
      <point x="303.0" y="1398.0"/>
      <point x="304.0" y="1400.0"/>
      <point x="308.0" y="1400.0" type="curve" smooth="yes"/>
      <point x="582.0" y="1400.0" type="line" smooth="yes"/>
      <point x="586.0" y="1400.0"/>
      <point x="586.0" y="1399.0"/>
      <point x="585.0" y="1395.0" type="curve" smooth="yes"/>
      <point x="576.0" y="1357.0" type="line" smooth="yes"/>
      <point x="567.0" y="1319.0"/>
      <point x="550.0" y="1312.0"/>
      <point x="462.0" y="1312.0" type="curve" smooth="yes"/>
      <point x="370.0" y="1312.0" type="line"/>
      <point x="192.0" y="690.0" type="line"/>
      <point x="184.0" y="690.0" type="line"/>
      <point x="219.0" y="810.0"/>
      <point x="281.0" y="937.0"/>
      <point x="365.0" y="937.0" type="curve" smooth="yes"/>
      <point x="441.0" y="937.0"/>
      <point x="455.0" y="855.0"/>
      <point x="397.0" y="603.0" type="curve" smooth="yes"/>
      <point x="328.0" y="305.0" type="line" smooth="yes"/>
      <point x="275.0" y="77.0"/>
      <point x="206.0" y="-17.0"/>
      <point x="88.0" y="-17.0" type="curve" smooth="yes"/>
      <point x="-26.0" y="-17.0"/>
      <point x="-52.0" y="51.0"/>
      <point x="15.0" y="359.0" type="curve" smooth="yes"/>
      <point x="16.0" y="363.0"/>
      <point x="17.0" y="364.0"/>
    </contour>
  </outline>
</glyph>
<glyph name="six" format="2">
  <advance height="1920" width="486"/>
  <unicode hex="0036"/>
  <outline>
    <contour>
      <point x="288.0" y="713.0" type="curve" smooth="yes"/>
      <point x="241.0" y="713.0"/>
      <point x="206.0" y="681.0"/>
      <point x="185.0" y="588.0" type="curve" smooth="yes"/>
      <point x="177.0" y="554.0" type="line"/>
      <point x="156.0" y="602.0" type="line"/>
      <point x="186.0" y="734.0"/>
      <point x="239.0" y="794.0"/>
      <point x="339.0" y="794.0" type="curve" smooth="yes"/>
      <point x="460.0" y="794.0"/>
      <point x="475.0" y="712.0"/>
      <point x="442.0" y="570.0" type="curve" smooth="yes"/>
      <point x="359.0" y="212.0" type="line" smooth="yes"/>
      <point x="325.0" y="66.0"/>
      <point x="268.0" y="-18.0"/>
      <point x="124.0" y="-18.0" type="curve" smooth="yes"/>
      <point x="-50.0" y="-18.0"/>
      <point x="-43.0" y="84.0"/>
      <point x="-0.0" y="272.0" type="curve" smooth="yes"/>
      <point x="196.0" y="1121.0" type="line" smooth="yes"/>
      <point x="242.0" y="1320.0"/>
      <point x="295.0" y="1417.0"/>
      <point x="440.0" y="1417.0" type="curve" smooth="yes"/>
      <point x="586.0" y="1417.0"/>
      <point x="589.0" y="1321.0"/>
      <point x="557.0" y="1184.0" type="curve" smooth="yes"/>
      <point x="503.0" y="949.0" type="line" smooth="yes"/>
      <point x="502.0" y="945.0"/>
      <point x="500.0" y="944.0"/>
      <point x="496.0" y="944.0" type="curve" smooth="yes"/>
      <point x="403.0" y="944.0" type="line" smooth="yes"/>
      <point x="399.0" y="944.0"/>
      <point x="398.0" y="945.0"/>
      <point x="399.0" y="949.0" type="curve" smooth="yes"/>
      <point x="453.0" y="1182.0" type="line" smooth="yes"/>
      <point x="471.0" y="1261.0"/>
      <point x="485.0" y="1328.0"/>
      <point x="425.0" y="1328.0" type="curve" smooth="yes"/>
      <point x="366.0" y="1328.0"/>
      <point x="341.0" y="1267.0"/>
      <point x="307.0" y="1118.0" type="curve" smooth="yes"/>
      <point x="100.0" y="221.0" type="line" smooth="yes"/>
      <point x="78.0" y="125.0"/>
      <point x="70.0" y="71.0"/>
      <point x="138.0" y="71.0" type="curve" smooth="yes"/>
      <point x="212.0" y="71.0"/>
      <point x="225.0" y="127.0"/>
      <point x="246.0" y="218.0" type="curve" smooth="yes"/>
      <point x="328.0" y="571.0" type="line" smooth="yes"/>
      <point x="349.0" y="664.0"/>
      <point x="352.0" y="713.0"/>
    </contour>
  </outline>
</glyph>
<glyph name="seven" format="2">
  <advance height="1920" width="374"/>
  <unicode hex="0037"/>
  <outline>
    <contour>
      <point x="577.0" y="1395.0" type="curve" smooth="yes"/>
      <point x="70.0" y="5.0" type="line" smooth="yes"/>
      <point x="67.0" y="1.0"/>
      <point x="65.0" y="0.0"/>
      <point x="61.0" y="0.0" type="curve" smooth="yes"/>
      <point x="-37.0" y="0.0" type="line" smooth="yes"/>
      <point x="-41.0" y="0.0"/>
      <point x="-43.0" y="2.0"/>
      <point x="-40.0" y="5.0" type="curve" smooth="yes"/>
      <point x="455.0" y="1302.0" type="line"/>
      <point x="220.0" y="1302.0" type="line" smooth="yes"/>
      <point x="216.0" y="1302.0"/>
      <point x="216.0" y="1303.0"/>
      <point x="217.0" y="1307.0" type="curve" smooth="yes"/>
      <point x="237.0" y="1395.0" type="line" smooth="yes"/>
      <point x="238.0" y="1399.0"/>
      <point x="238.0" y="1400.0"/>
      <point x="242.0" y="1400.0" type="curve" smooth="yes"/>
      <point x="574.0" y="1400.0" type="line" smooth="yes"/>
      <point x="578.0" y="1400.0"/>
      <point x="580.0" y="1398.0"/>
    </contour>
  </outline>
</glyph>
<glyph name="eight" format="2">
  <advance height="1920" width="469"/>
  <unicode hex="0038"/>
  <outline>
    <contour>
      <point x="130.0" y="68.0" type="curve" smooth="yes"/>
      <point x="191.0" y="68.0"/>
      <point x="203.0" y="108.0"/>
      <point x="219.0" y="177.0" type="curve" smooth="yes"/>
      <point x="306.0" y="556.0" type="line" smooth="yes"/>
      <point x="322.0" y="626.0"/>
      <point x="329.0" y="665.0"/>
      <point x="268.0" y="665.0" type="curve" smooth="yes"/>
      <point x="207.0" y="665.0"/>
      <point x="194.0" y="626.0"/>
      <point x="178.0" y="556.0" type="curve" smooth="yes"/>
      <point x="91.0" y="177.0" type="line" smooth="yes"/>
      <point x="75.0" y="108.0"/>
      <point x="69.0" y="68.0"/>
    </contour>
    <contour>
      <point x="288.0" y="752.0" type="curve" smooth="yes"/>
      <point x="322.0" y="752.0"/>
      <point x="351.0" y="789.0"/>
      <point x="366.0" y="852.0" type="curve" smooth="yes"/>
      <point x="455.0" y="1238.0" type="line" smooth="yes"/>
      <point x="468.0" y="1296.0"/>
      <point x="455.0" y="1332.0"/>
      <point x="422.0" y="1332.0" type="curve" smooth="yes"/>
      <point x="389.0" y="1332.0"/>
      <point x="359.0" y="1296.0"/>
      <point x="346.0" y="1238.0" type="curve" smooth="yes"/>
      <point x="257.0" y="852.0" type="line" smooth="yes"/>
      <point x="242.0" y="789.0"/>
      <point x="254.0" y="752.0"/>
    </contour>
    <contour>
      <point x="296.0" y="721.0" type="line"/>
      <point x="445.0" y="721.0"/>
      <point x="443.0" y="651.0"/>
      <point x="415.0" y="531.0" type="curve" smooth="yes"/>
      <point x="334.0" y="180.0" type="line" smooth="yes"/>
      <point x="304.0" y="52.0"/>
      <point x="273.0" y="-18.0"/>
      <point x="110.0" y="-18.0" type="curve" smooth="yes"/>
      <point x="-50.0" y="-18.0"/>
      <point x="-52.0" y="52.0"/>
      <point x="-22.0" y="180.0" type="curve" smooth="yes"/>
      <point x="59.0" y="531.0" type="line" smooth="yes"/>
      <point x="87.0" y="651.0"/>
      <point x="119.0" y="721.0"/>
      <point x="265.0" y="721.0" type="curve"/>
      <point x="262.0" y="701.0" type="line"/>
      <point x="141.0" y="704.0"/>
      <point x="121.0" y="763.0"/>
      <point x="148.0" y="879.0" type="curve" smooth="yes"/>
      <point x="229.0" y="1232.0" type="line" smooth="yes"/>
      <point x="256.0" y="1349.0"/>
      <point x="301.0" y="1417.0"/>
      <point x="441.0" y="1417.0" type="curve" smooth="yes"/>
      <point x="584.0" y="1417.0"/>
      <point x="593.0" y="1349.0"/>
      <point x="566.0" y="1232.0" type="curve" smooth="yes"/>
      <point x="485.0" y="879.0" type="line" smooth="yes"/>
      <point x="458.0" y="763.0"/>
      <point x="417.0" y="704.0"/>
      <point x="291.0" y="701.0" type="curve"/>
    </contour>
  </outline>
</glyph>
<glyph name="nine" format="2">
  <advance height="1920" width="469"/>
  <unicode hex="0039"/>
  <outline>
    <contour>
      <point x="273.0" y="686.0" type="curve" smooth="yes"/>
      <point x="311.0" y="686.0"/>
      <point x="346.0" y="718.0"/>
      <point x="367.0" y="811.0" type="curve" smooth="yes"/>
      <point x="375.0" y="845.0" type="line"/>
      <point x="396.0" y="797.0" type="line"/>
      <point x="366.0" y="665.0"/>
      <point x="314.0" y="605.0"/>
      <point x="222.0" y="605.0" type="curve" smooth="yes"/>
      <point x="101.0" y="605.0"/>
      <point x="96.0" y="688.0"/>
      <point x="129.0" y="830.0" type="curve" smooth="yes"/>
      <point x="211.0" y="1187.0" type="line" smooth="yes"/>
      <point x="245.0" y="1333.0"/>
      <point x="293.0" y="1417.0"/>
      <point x="437.0" y="1417.0" type="curve" smooth="yes"/>
      <point x="611.0" y="1417.0"/>
      <point x="595.0" y="1315.0"/>
      <point x="552.0" y="1127.0" type="curve" smooth="yes"/>
      <point x="356.0" y="278.0" type="line" smooth="yes"/>
      <point x="310.0" y="79.0"/>
      <point x="257.0" y="-18.0"/>
      <point x="112.0" y="-18.0" type="curve" smooth="yes"/>
      <point x="-34.0" y="-18.0"/>
      <point x="-37.0" y="78.0"/>
      <point x="-5.0" y="215.0" type="curve" smooth="yes"/>
      <point x="49.0" y="450.0" type="line" smooth="yes"/>
      <point x="50.0" y="454.0"/>
      <point x="51.0" y="455.0"/>
      <point x="55.0" y="455.0" type="curve" smooth="yes"/>
      <point x="148.0" y="455.0" type="line" smooth="yes"/>
      <point x="152.0" y="455.0"/>
      <point x="153.0" y="454.0"/>
      <point x="152.0" y="450.0" type="curve" smooth="yes"/>
      <point x="98.0" y="217.0" type="line" smooth="yes"/>
      <point x="80.0" y="138.0"/>
      <point x="66.0" y="71.0"/>
      <point x="127.0" y="71.0" type="curve" smooth="yes"/>
      <point x="187.0" y="71.0"/>
      <point x="211.0" y="132.0"/>
      <point x="245.0" y="281.0" type="curve" smooth="yes"/>
      <point x="452.0" y="1178.0" type="line" smooth="yes"/>
      <point x="474.0" y="1274.0"/>
      <point x="482.0" y="1328.0"/>
      <point x="423.0" y="1328.0" type="curve" smooth="yes"/>
      <point x="358.0" y="1328.0"/>
      <point x="345.0" y="1272.0"/>
      <point x="324.0" y="1181.0" type="curve" smooth="yes"/>
      <point x="242.0" y="828.0" type="line" smooth="yes"/>
      <point x="221.0" y="735.0"/>
      <point x="217.0" y="686.0"/>
    </contour>
  </outline>
</glyph>
<glyph name="less" format="2">
  <advance height="1920" width="491"/>
  <unicode hex="003C"/>
  <outline>
    <contour>
      <point x="390.0" y="343.0" type="curve" smooth="yes"/>
      <point x="56.0" y="566.0" type="line" smooth="yes"/>
      <point x="52.0" y="568.0"/>
      <point x="53.0" y="570.0"/>
      <point x="54.0" y="574.0" type="curve" smooth="yes"/>
      <point x="66.0" y="626.0" type="line" smooth="yes"/>
      <point x="67.0" y="630.0"/>
      <point x="67.0" y="632.0"/>
      <point x="71.0" y="634.0" type="curve" smooth="yes"/>
      <point x="509.0" y="857.0" type="line" smooth="yes"/>
      <point x="513.0" y="859.0"/>
      <point x="513.0" y="859.0"/>
      <point x="512.0" y="855.0" type="curve" smooth="yes"/>
      <point x="491.0" y="762.0" type="line" smooth="yes"/>
      <point x="490.0" y="758.0"/>
      <point x="489.0" y="756.0"/>
      <point x="485.0" y="754.0" type="curve" smooth="yes"/>
      <point x="164.0" y="600.0" type="line"/>
      <point x="414.0" y="446.0" type="line" smooth="yes"/>
      <point x="418.0" y="444.0"/>
      <point x="417.0" y="442.0"/>
      <point x="416.0" y="438.0" type="curve" smooth="yes"/>
      <point x="395.0" y="345.0" type="line" smooth="yes"/>
      <point x="394.0" y="341.0"/>
      <point x="394.0" y="341.0"/>
    </contour>
  </outline>
</glyph>
<glyph name="equal" format="2">
  <advance height="1920" width="537"/>
  <unicode hex="003D"/>
  <outline>
    <contour>
      <point x="13.0" y="362.0" type="curve" smooth="yes"/>
      <point x="31.0" y="442.0" type="line" smooth="yes"/>
      <point x="32.0" y="446.0"/>
      <point x="33.0" y="447.0"/>
      <point x="37.0" y="447.0" type="curve" smooth="yes"/>
      <point x="467.0" y="447.0" type="line" smooth="yes"/>
      <point x="471.0" y="447.0"/>
      <point x="472.0" y="446.0"/>
      <point x="471.0" y="442.0" type="curve" smooth="yes"/>
      <point x="453.0" y="362.0" type="line" smooth="yes"/>
      <point x="452.0" y="358.0"/>
      <point x="450.0" y="357.0"/>
      <point x="446.0" y="357.0" type="curve" smooth="yes"/>
      <point x="16.0" y="357.0" type="line" smooth="yes"/>
      <point x="12.0" y="357.0"/>
      <point x="12.0" y="358.0"/>
    </contour>
    <contour>
      <point x="57.0" y="553.0" type="curve" smooth="yes"/>
      <point x="75.0" y="633.0" type="line" smooth="yes"/>
      <point x="76.0" y="637.0"/>
      <point x="77.0" y="638.0"/>
      <point x="81.0" y="638.0" type="curve" smooth="yes"/>
      <point x="511.0" y="638.0" type="line" smooth="yes"/>
      <point x="515.0" y="638.0"/>
      <point x="516.0" y="637.0"/>
      <point x="515.0" y="633.0" type="curve" smooth="yes"/>
      <point x="497.0" y="553.0" type="line" smooth="yes"/>
      <point x="496.0" y="549.0"/>
      <point x="495.0" y="548.0"/>
      <point x="491.0" y="548.0" type="curve" smooth="yes"/>
      <point x="61.0" y="548.0" type="line" smooth="yes"/>
      <point x="57.0" y="548.0"/>
      <point x="56.0" y="549.0"/>
    </contour>
  </outline>
</glyph>
<glyph name="greater" format="2">
  <advance height="1920" width="491"/>
  <unicode hex="003E"/>
  <outline>
    <contour>
      <point x="138.0" y="857.0" type="curve" smooth="yes"/>
      <point x="472.0" y="634.0" type="line" smooth="yes"/>
      <point x="476.0" y="632.0"/>
      <point x="476.0" y="630.0"/>
      <point x="475.0" y="626.0" type="curve" smooth="yes"/>
      <point x="463.0" y="574.0" type="line" smooth="yes"/>
      <point x="462.0" y="570.0"/>
      <point x="461.0" y="568.0"/>
      <point x="457.0" y="566.0" type="curve" smooth="yes"/>
      <point x="19.0" y="343.0" type="line" smooth="yes"/>
      <point x="15.0" y="341.0"/>
      <point x="15.0" y="341.0"/>
      <point x="16.0" y="345.0" type="curve" smooth="yes"/>
      <point x="37.0" y="438.0" type="line" smooth="yes"/>
      <point x="38.0" y="442.0"/>
      <point x="39.0" y="444.0"/>
      <point x="43.0" y="446.0" type="curve" smooth="yes"/>
      <point x="365.0" y="600.0" type="line"/>
      <point x="114.0" y="754.0" type="line" smooth="yes"/>
      <point x="110.0" y="756.0"/>
      <point x="111.0" y="758.0"/>
      <point x="112.0" y="762.0" type="curve" smooth="yes"/>
      <point x="133.0" y="855.0" type="line" smooth="yes"/>
      <point x="134.0" y="859.0"/>
      <point x="134.0" y="859.0"/>
    </contour>
  </outline>
</glyph>
<glyph name="question" format="2">
  <advance height="1920" width="421"/>
  <unicode hex="003F"/>
  <outline>
    <contour>
      <point x="139.0" y="0.0" type="curve" smooth="yes"/>
      <point x="36.0" y="0.0" type="line" smooth="yes"/>
      <point x="29.0" y="0.0"/>
      <point x="26.0" y="3.0"/>
      <point x="28.0" y="10.0" type="curve" smooth="yes"/>
      <point x="77.0" y="219.0" type="line" smooth="yes"/>
      <point x="79.0" y="226.0"/>
      <point x="82.0" y="229.0"/>
      <point x="89.0" y="229.0" type="curve" smooth="yes"/>
      <point x="192.0" y="229.0" type="line" smooth="yes"/>
      <point x="199.0" y="229.0"/>
      <point x="202.0" y="226.0"/>
      <point x="200.0" y="219.0" type="curve" smooth="yes"/>
      <point x="151.0" y="10.0" type="line" smooth="yes"/>
      <point x="149.0" y="3.0"/>
      <point x="146.0" y="0.0"/>
    </contour>
    <contour>
      <point x="194.0" y="404.0" type="curve" smooth="yes"/>
      <point x="137.0" y="404.0" type="line" smooth="yes"/>
      <point x="133.0" y="404.0"/>
      <point x="131.0" y="405.0"/>
      <point x="132.0" y="408.0" type="curve" smooth="yes"/>
      <point x="151.0" y="580.0"/>
      <point x="273.0" y="607.0"/>
      <point x="357.0" y="969.0" type="curve" smooth="yes"/>
      <point x="416.0" y="1226.0" type="line" smooth="yes"/>
      <point x="431.0" y="1290.0"/>
      <point x="445.0" y="1378.0"/>
      <point x="401.0" y="1378.0" type="curve" smooth="yes"/>
      <point x="355.0" y="1378.0"/>
      <point x="331.0" y="1288.0"/>
      <point x="315.0" y="1218.0" type="curve" smooth="yes"/>
      <point x="255.0" y="957.0" type="line" smooth="yes"/>
      <point x="254.0" y="953.0"/>
      <point x="254.0" y="952.0"/>
      <point x="250.0" y="952.0" type="curve" smooth="yes"/>
      <point x="152.0" y="952.0" type="line" smooth="yes"/>
      <point x="148.0" y="952.0"/>
      <point x="146.0" y="953.0"/>
      <point x="147.0" y="957.0" type="curve" smooth="yes"/>
      <point x="208.0" y="1222.0" type="line" smooth="yes"/>
      <point x="235.0" y="1338.0"/>
      <point x="296.0" y="1467.0"/>
      <point x="429.0" y="1467.0" type="curve" smooth="yes"/>
      <point x="548.0" y="1467.0"/>
      <point x="567.0" y="1347.0"/>
      <point x="541.0" y="1233.0" type="curve" smooth="yes"/>
      <point x="484.0" y="986.0" type="line" smooth="yes"/>
      <point x="414.0" y="682.0"/>
      <point x="280.0" y="614.0"/>
      <point x="201.0" y="408.0" type="curve" smooth="yes"/>
      <point x="200.0" y="405.0"/>
      <point x="197.0" y="404.0"/>
    </contour>
  </outline>
</glyph>
<glyph name="at" format="2">
  <advance height="1920" width="790"/>
  <unicode hex="0040"/>
  <outline>
    <contour>
      <point x="418.0" y="199.0" type="line"/>
      <point x="385.0" y="54.0"/>
      <point x="326.0" y="-17.0"/>
      <point x="241.0" y="-17.0" type="curve" smooth="yes"/>
      <point x="163.0" y="-17.0"/>
      <point x="119.0" y="41.0"/>
      <point x="158.0" y="211.0" type="curve" smooth="yes"/>
      <point x="302.0" y="838.0" type="line" smooth="yes"/>
      <point x="339.0" y="998.0"/>
      <point x="410.0" y="1067.0"/>
      <point x="490.0" y="1067.0" type="curve" smooth="yes"/>
      <point x="580.0" y="1067.0"/>
      <point x="609.0" y="996.0"/>
      <point x="576.0" y="851.0" type="curve"/>
      <point x="520.0" y="841.0" type="line"/>
      <point x="543.0" y="939.0"/>
      <point x="542.0" y="988.0"/>
      <point x="497.0" y="988.0" type="curve" smooth="yes"/>
      <point x="455.0" y="988.0"/>
      <point x="439.0" y="949.0"/>
      <point x="416.0" y="851.0" type="curve" smooth="yes"/>
      <point x="266.0" y="199.0" type="line" smooth="yes"/>
      <point x="243.0" y="101.0"/>
      <point x="241.0" y="62.0"/>
      <point x="283.0" y="62.0" type="curve" smooth="yes"/>
      <point x="328.0" y="62.0"/>
      <point x="351.0" y="111.0"/>
      <point x="374.0" y="209.0" type="curve"/>
    </contour>
    <contour>
      <point x="377.0" y="-324.0" type="curve" smooth="yes"/>
      <point x="336.0" y="-354.0"/>
      <point x="271.0" y="-377.0"/>
      <point x="191.0" y="-377.0" type="curve" smooth="yes"/>
      <point x="-80.0" y="-377.0"/>
      <point x="-114.0" y="-191.0"/>
      <point x="-59.0" y="49.0" type="curve" smooth="yes"/>
      <point x="159.0" y="990.0" type="line" smooth="yes"/>
      <point x="218.0" y="1245.0"/>
      <point x="363.0" y="1417.0"/>
      <point x="610.0" y="1417.0" type="curve" smooth="yes"/>
      <point x="882.0" y="1417.0"/>
      <point x="905.0" y="1230.0"/>
      <point x="856.0" y="1016.0" type="curve" smooth="yes"/>
      <point x="675.0" y="235.0" type="line" smooth="yes"/>
      <point x="633.0" y="55.0"/>
      <point x="573.0" y="-17.0"/>
      <point x="464.0" y="-17.0" type="curve" smooth="yes"/>
      <point x="374.0" y="-17.0"/>
      <point x="339.0" y="55.0"/>
      <point x="364.0" y="165.0" type="curve" smooth="yes"/>
      <point x="548.0" y="961.0" type="line"/>
      <point x="648.0" y="1061.0" type="line" smooth="yes"/>
      <point x="651.0" y="1064.0"/>
      <point x="654.0" y="1067.0"/>
      <point x="658.0" y="1067.0" type="curve" smooth="yes"/>
      <point x="678.0" y="1067.0" type="line" smooth="yes"/>
      <point x="682.0" y="1067.0"/>
      <point x="684.0" y="1065.0"/>
      <point x="683.0" y="1061.0" type="curve" smooth="yes"/>
      <point x="482.0" y="191.0" type="line" smooth="yes"/>
      <point x="460.0" y="94.0"/>
      <point x="460.0" y="59.0"/>
      <point x="494.0" y="59.0" type="curve" smooth="yes"/>
      <point x="527.0" y="59.0"/>
      <point x="558.0" y="117.0"/>
      <point x="585.0" y="235.0" type="curve" smooth="yes"/>
      <point x="766.0" y="1016.0" type="line" smooth="yes"/>
      <point x="809.0" y="1204.0"/>
      <point x="786.0" y="1347.0"/>
      <point x="594.0" y="1347.0" type="curve" smooth="yes"/>
      <point x="413.0" y="1347.0"/>
      <point x="303.0" y="1206.0"/>
      <point x="255.0" y="996.0" type="curve" smooth="yes"/>
      <point x="35.0" y="45.0" type="line" smooth="yes"/>
      <point x="-9.0" y="-145.0"/>
      <point x="-4.0" y="-307.0"/>
      <point x="207.0" y="-307.0" type="curve" smooth="yes"/>
      <point x="263.0" y="-307.0"/>
      <point x="324.0" y="-287.0"/>
      <point x="366.0" y="-259.0" type="curve" smooth="yes"/>
      <point x="371.0" y="-256.0"/>
      <point x="373.0" y="-257.0"/>
      <point x="373.0" y="-261.0" type="curve" smooth="yes"/>
      <point x="381.0" y="-315.0" type="line" smooth="yes"/>
      <point x="381.0" y="-319.0"/>
      <point x="381.0" y="-321.0"/>
    </contour>
  </outline>
</glyph>
<glyph name="A" format="2">
  <advance height="960" width="437"/>
  <unicode hex="0041"/>
  <anchor x="102.0" y="0.0" name="bottom"/>
  <anchor x="255.0" y="0.0" name="ogonek"/>
  <anchor x="425.0" y="1400.0" name="top"/>
  <outline>
    <contour>
      <point x="110.138671875" y="498.0" type="line"/>
      <point x="314.390625" y="498.0" type="line"/>
      <point x="295.404296875" y="417.0" type="line"/>
      <point x="91.140625" y="417.0" type="line"/>
    </contour>
    <contour>
      <point x="383.870117188" y="1250.0" type="line"/>
      <point x="2.7978515625" y="5.0" type="line" smooth="yes"/>
      <point x="0.86328125" y="2.0"/>
      <point x="-1.0595703125" y="0.0"/>
      <point x="-4.859375" y="0.0" type="curve" smooth="yes"/>
      <point x="-93.859375" y="0.0" type="line" smooth="yes"/>
      <point x="-97.859375" y="0.0"/>
      <point x="-97.859375" y="2.0"/>
      <point x="-95.859375" y="5.0" type="curve" smooth="yes"/>
      <point x="355.143554688" y="1395.0" type="line" smooth="yes"/>
      <point x="357.078125" y="1398.0"/>
      <point x="358.05078125" y="1400.0"/>
      <point x="361.8515625" y="1400.0" type="curve" smooth="yes"/>
      <point x="489.151367188" y="1400.0" type="line" smooth="yes"/>
      <point x="492.951171875" y="1400.0"/>
      <point x="493.877929688" y="1398.0"/>
      <point x="493.84375" y="1395.0" type="curve" smooth="yes"/>
      <point x="313.390625" y="5.0" type="line" smooth="yes"/>
      <point x="313.390625" y="2.0"/>
      <point x="313.390625" y="0.0"/>
      <point x="309.390625" y="0.0" type="curve" smooth="yes"/>
      <point x="199.390625" y="0.0" type="line" smooth="yes"/>
      <point x="195.590820312" y="0.0"/>
      <point x="193.702148438" y="1.0"/>
      <point x="193.748046875" y="5.0" type="curve" smooth="yes"/>
    </contour>
  </outline>
</glyph>
<glyph name="B" format="2">
  <advance height="960" width="471"/>
  <unicode hex="0042"/>
  <anchor x="112.0" y="0.0" name="bottom"/>
  <anchor x="435.0" y="1400.0" name="top"/>
  <outline>
    <contour>
      <point x="247.057617188" y="748.0" type="line"/>
      <point x="296.458007812" y="748.0" type="line" smooth="yes"/>
      <point x="339.208007812" y="748.0"/>
      <point x="372.143554688" y="801.0"/>
      <point x="402.143554688" y="933.0" type="curve" smooth="yes"/>
      <point x="449.143554688" y="1133.0" type="line" smooth="yes"/>
      <point x="479.143554688" y="1265.0"/>
      <point x="470.16796875" y="1312.0"/>
      <point x="426.46875" y="1312.0" type="curve" smooth="yes"/>
      <point x="377.057617188" y="1312.0" type="line"/>
    </contour>
    <contour>
      <point x="306.642578125" y="725.0" type="line"/>
      <point x="397.143554688" y="725.0"/>
      <point x="479.143554688" y="673.0"/>
      <point x="433.163085938" y="478.0" type="curve" smooth="yes"/>
      <point x="381.163085938" y="250.0" type="line" smooth="yes"/>
      <point x="335.163085938" y="49.0"/>
      <point x="256.163085938" y="0.0"/>
      <point x="140.573242188" y="0.0" type="curve" smooth="yes"/>
      <point x="-33.9423828125" y="0.0" type="line" smooth="yes"/>
      <point x="-37.9423828125" y="0.0"/>
      <point x="-38.9423828125" y="1.0"/>
      <point x="-37.9423828125" y="5.0" type="curve" smooth="yes"/>
      <point x="283.057617188" y="1395.0" type="line" smooth="yes"/>
      <point x="284.057617188" y="1399.0"/>
      <point x="285.057617188" y="1400.0"/>
      <point x="289.057617188" y="1400.0" type="curve" smooth="yes"/>
      <point x="454.083984375" y="1400.0" type="line" smooth="yes"/>
      <point x="570.143554688" y="1400.0"/>
      <point x="613.143554688" y="1342.0"/>
      <point x="570.143554688" y="1156.0" type="curve" smooth="yes"/>
      <point x="520.143554688" y="942.0" type="line" smooth="yes"/>
      <point x="477.143554688" y="756.0"/>
      <point x="382.143554688" y="700.0"/>
      <point x="292.103515625" y="700.0" type="curve"/>
    </contour>
    <contour>
      <point x="282.22265625" y="667.0" type="curve" smooth="yes"/>
      <point x="228.057617188" y="667.0" type="line"/>
      <point x="94.0576171875" y="88.0" type="line"/>
      <point x="148.239257812" y="88.0" type="line" smooth="yes"/>
      <point x="211.889648438" y="88.0"/>
      <point x="237.163085938" y="136.0"/>
      <point x="268.163085938" y="272.0" type="curve" smooth="yes"/>
      <point x="315.1796875" y="477.0" type="line" smooth="yes"/>
      <point x="348.203125" y="622.0"/>
      <point x="347.143554688" y="667.0"/>
    </contour>
  </outline>
</glyph>
<glyph name="C" format="2">
  <advance height="960" width="482"/>
  <unicode hex="0043"/>
  <anchor x="112.0" y="0.0" name="bottom"/>
  <anchor x="455.0" y="1400.0" name="top"/>
  <outline>
    <contour>
      <point x="462.415039062" y="603.0" type="curve" smooth="yes"/>
      <point x="443.4140625" y="522.0"/>
      <point x="421.415039062" y="429.0"/>
      <point x="398.4140625" y="332.0" type="curve" smooth="yes"/>
      <point x="342.415039062" y="96.0"/>
      <point x="259.415039062" y="-18.0"/>
      <point x="114.045898438" y="-18.0" type="curve" smooth="yes"/>
      <point x="-54.3671875" y="-18.0"/>
      <point x="-39.3671875" y="127.0"/>
      <point x="13.6328125" y="358.0" type="curve" smooth="yes"/>
      <point x="171.6328125" y="1042.0" type="line" smooth="yes"/>
      <point x="228.6328125" y="1290.0"/>
      <point x="302.6328125" y="1418.0"/>
      <point x="450.772460938" y="1418.0" type="curve" smooth="yes"/>
      <point x="595.4140625" y="1418.0"/>
      <point x="623.415039062" y="1273.0"/>
      <point x="569.415039062" y="1092.0" type="curve" smooth="yes"/>
      <point x="552.762695312" y="1036.18164062"/>
      <point x="510.4140625" y="924.0"/>
      <point x="457.4140625" y="866.0" type="curve" smooth="yes"/>
      <point x="454.633789062" y="862.956054688"/>
      <point x="455.415039062" y="862.0"/>
      <point x="451.415039062" y="862.0" type="curve" smooth="yes"/>
      <point x="367.404296875" y="862.0" type="line" smooth="yes"/>
      <point x="363.604492188" y="862.0"/>
      <point x="361.725585938" y="862.384765625"/>
      <point x="363.650390625" y="866.0" type="curve" smooth="yes"/>
      <point x="530.415039062" y="1176.0"/>
      <point x="508.576171875" y="1323.0"/>
      <point x="439.225585938" y="1323.0" type="curve" smooth="yes"/>
      <point x="369.875976562" y="1323.0"/>
      <point x="333.6328125" y="1231.0"/>
      <point x="290.6328125" y="1046.0" type="curve" smooth="yes"/>
      <point x="130.6328125" y="349.0" type="line" smooth="yes"/>
      <point x="92.6162109375" y="183.0"/>
      <point x="73.3427734375" y="77.0"/>
      <point x="143.642578125" y="77.0" type="curve" smooth="yes"/>
      <point x="215.842773438" y="77.0"/>
      <point x="257.465820312" y="144.0"/>
      <point x="364.415039062" y="603.0" type="curve" smooth="yes"/>
      <point x="365.4140625" y="607.0"/>
      <point x="366.415039062" y="608.0"/>
      <point x="370.415039062" y="608.0" type="curve" smooth="yes"/>
      <point x="458.415039062" y="608.0" type="line" smooth="yes"/>
      <point x="462.415039062" y="608.0"/>
      <point x="463.4140625" y="607.0"/>
    </contour>
  </outline>
</glyph>
<glyph name="D" format="2">
  <advance height="960" width="490"/>
  <unicode hex="0044"/>
  <anchor x="92.0" y="0.0" name="bottom"/>
  <anchor x="430.0" y="1400.0" name="top"/>
  <outline>
    <contour>
      <point x="110.141601562" y="0.0" type="curve" smooth="yes"/>
      <point x="-33.9423828125" y="0.0" type="line" smooth="yes"/>
      <point x="-37.9423828125" y="0.0"/>
      <point x="-38.9423828125" y="1.0"/>
      <point x="-37.9423828125" y="5.0" type="curve" smooth="yes"/>
      <point x="283.057617188" y="1395.0" type="line" smooth="yes"/>
      <point x="284.057617188" y="1399.0"/>
      <point x="285.057617188" y="1400.0"/>
      <point x="289.057617188" y="1400.0" type="curve" smooth="yes"/>
      <point x="433.153320312" y="1400.0" type="line" smooth="yes"/>
      <point x="603.6015625" y="1400.0"/>
      <point x="628.6015625" y="1276.0"/>
      <point x="568.6015625" y="1018.0" type="curve" smooth="yes"/>
      <point x="419.6015625" y="374.0" type="line" smooth="yes"/>
      <point x="359.6015625" y="116.0"/>
      <point x="300.6015625" y="0.0"/>
    </contour>
    <contour>
      <point x="132.057617188" y="88.0" type="line" smooth="yes"/>
      <point x="211.857421875" y="88.0"/>
      <point x="252.624023438" y="163.0"/>
      <point x="300.6015625" y="369.0" type="curve" smooth="yes"/>
      <point x="451.6015625" y="1022.0" type="line" smooth="yes"/>
      <point x="499.6015625" y="1228.0"/>
      <point x="494.836914062" y="1312.0"/>
      <point x="415.037109375" y="1312.0" type="curve" smooth="yes"/>
      <point x="377.037109375" y="1312.0" type="line"/>
      <point x="94.0576171875" y="88.0" type="line"/>
    </contour>
  </outline>
</glyph>
<glyph name="E" format="2">
  <advance height="960" width="431"/>
  <unicode hex="0045"/>
  <anchor x="122.0" y="0.0" name="bottom"/>
  <anchor x="230.0" y="0.0" name="ogonek"/>
  <anchor x="445.0" y="1400.0" name="top"/>
  <outline>
    <contour>
      <point x="247.057617188" y="748.0" type="line"/>
      <point x="363.057617188" y="748.0" type="line" smooth="yes"/>
      <point x="367.057617188" y="748.0"/>
      <point x="368.057617188" y="747.0"/>
      <point x="367.057617188" y="743.0" type="curve" smooth="yes"/>
      <point x="350.057617188" y="672.0" type="line" smooth="yes"/>
      <point x="349.057617188" y="668.0"/>
      <point x="348.057617188" y="667.0"/>
      <point x="344.057617188" y="667.0" type="curve" smooth="yes"/>
      <point x="228.057617188" y="667.0" type="line"/>
      <point x="94.0576171875" y="88.0" type="line"/>
      <point x="293.057617188" y="88.0" type="line" smooth="yes"/>
      <point x="297.057617188" y="88.0"/>
      <point x="298.057617188" y="86.0"/>
      <point x="297.057617188" y="82.0" type="curve" smooth="yes"/>
      <point x="279.057617188" y="5.0" type="line" smooth="yes"/>
      <point x="278.057617188" y="1.0"/>
      <point x="277.057617188" y="0.0"/>
      <point x="273.057617188" y="0.0" type="curve" smooth="yes"/>
      <point x="-33.9423828125" y="0.0" type="line" smooth="yes"/>
      <point x="-37.9423828125" y="0.0"/>
      <point x="-38.9423828125" y="1.0"/>
      <point x="-37.9423828125" y="5.0" type="curve" smooth="yes"/>
      <point x="283.057617188" y="1395.0" type="line" smooth="yes"/>
      <point x="284.057617188" y="1399.0"/>
      <point x="285.057617188" y="1400.0"/>
      <point x="289.057617188" y="1400.0" type="curve" smooth="yes"/>
      <point x="586.057617188" y="1400.0" type="line" smooth="yes"/>
      <point x="590.057617188" y="1400.0"/>
      <point x="591.057617188" y="1399.0"/>
      <point x="590.057617188" y="1395.0" type="curve" smooth="yes"/>
      <point x="572.057617188" y="1318.0" type="line" smooth="yes"/>
      <point x="571.057617188" y="1314.0"/>
      <point x="570.057617188" y="1312.0"/>
      <point x="566.057617188" y="1312.0" type="curve" smooth="yes"/>
      <point x="377.057617188" y="1312.0" type="line"/>
    </contour>
  </outline>
</glyph>
<glyph name="F" format="2">
  <advance height="960" width="387"/>
  <unicode hex="0046"/>
  <anchor x="102.0" y="0.0" name="bottom"/>
  <anchor x="425.0" y="1400.0" name="top"/>
  <outline>
    <contour>
      <point x="247.057617188" y="749.0" type="line"/>
      <point x="368.057617188" y="749.0" type="line" smooth="yes"/>
      <point x="372.057617188" y="749.0"/>
      <point x="373.057617188" y="748.0"/>
      <point x="372.057617188" y="744.0" type="curve" smooth="yes"/>
      <point x="355.057617188" y="672.0" type="line" smooth="yes"/>
      <point x="354.057617188" y="668.0"/>
      <point x="353.057617188" y="668.0"/>
      <point x="349.057617188" y="668.0" type="curve" smooth="yes"/>
      <point x="228.057617188" y="668.0" type="line"/>
      <point x="75.0576171875" y="5.0" type="line" smooth="yes"/>
      <point x="74.0576171875" y="1.0"/>
      <point x="74.0576171875" y="0.0"/>
      <point x="70.0576171875" y="0.0" type="curve" smooth="yes"/>
      <point x="-33.9423828125" y="0.0" type="line" smooth="yes"/>
      <point x="-37.9423828125" y="0.0"/>
      <point x="-38.9423828125" y="1.0"/>
      <point x="-37.9423828125" y="5.0" type="curve" smooth="yes"/>
      <point x="283.057617188" y="1395.0" type="line" smooth="yes"/>
      <point x="284.057617188" y="1399.0"/>
      <point x="285.057617188" y="1400.0"/>
      <point x="289.057617188" y="1400.0" type="curve" smooth="yes"/>
      <point x="565.057617188" y="1400.0" type="line" smooth="yes"/>
      <point x="569.057617188" y="1400.0"/>
      <point x="570.057617188" y="1399.0"/>
      <point x="569.057617188" y="1395.0" type="curve" smooth="yes"/>
      <point x="551.057617188" y="1318.0" type="line" smooth="yes"/>
      <point x="550.057617188" y="1314.0"/>
      <point x="549.057617188" y="1312.0"/>
      <point x="545.057617188" y="1312.0" type="curve" smooth="yes"/>
      <point x="377.057617188" y="1312.0" type="line"/>
    </contour>
  </outline>
</glyph>
<glyph name="G" format="2">
  <advance height="960" width="488"/>
  <unicode hex="0047"/>
  <anchor x="138.0" y="0.0" name="bottom"/>
  <anchor x="460.0" y="1400.0" name="top"/>
  <outline>
    <contour>
      <point x="298.995117188" y="614.0" type="curve" smooth="yes"/>
      <point x="314.030273438" y="682.0" type="line" smooth="yes"/>
      <point x="315.026367188" y="686.0"/>
      <point x="316.995117188" y="687.0"/>
      <point x="320.995117188" y="687.0" type="curve" smooth="yes"/>
      <point x="483.995117188" y="687.0" type="line" smooth="yes"/>
      <point x="487.995117188" y="687.0"/>
      <point x="487.995117188" y="686.0"/>
      <point x="486.995117188" y="682.0" type="curve" smooth="yes"/>
      <point x="330.995117188" y="5.0" type="line" smooth="yes"/>
      <point x="329.995117188" y="1.0"/>
      <point x="328.995117188" y="0.0"/>
      <point x="324.995117188" y="0.0" type="curve" smooth="yes"/>
      <point x="270.995117188" y="0.0" type="line" smooth="yes"/>
      <point x="266.995117188" y="0.0"/>
      <point x="265.995117188" y="1.0"/>
      <point x="265.995117188" y="5.0" type="curve" smooth="yes"/>
      <point x="291.995117188" y="228.0" type="line"/>
      <point x="411.995117188" y="639.0" type="line"/>
      <point x="294.995117188" y="175.0"/>
      <point x="268.995117188" y="-18.0"/>
      <point x="106.450195312" y="-18.0" type="curve" smooth="yes"/>
      <point x="-46.3291015625" y="-18.0"/>
      <point x="-48.3291015625" y="93.0"/>
      <point x="18.6708984375" y="383.0" type="curve" smooth="yes"/>
      <point x="165.670898438" y="1018.0" type="line" smooth="yes"/>
      <point x="224.670898438" y="1273.0"/>
      <point x="294.670898438" y="1418.0"/>
      <point x="441.276367188" y="1418.0" type="curve" smooth="yes"/>
      <point x="591.995117188" y="1418.0"/>
      <point x="610.995117188" y="1308.0"/>
      <point x="568.995117188" y="1120.0" type="curve" smooth="yes"/>
      <point x="550.995117188" y="1040.0"/>
      <point x="528.995117188" y="948.0"/>
      <point x="511.995117188" y="867.0" type="curve" smooth="yes"/>
      <point x="510.995117188" y="863.0"/>
      <point x="509.995117188" y="863.0"/>
      <point x="505.995117188" y="863.0" type="curve" smooth="yes"/>
      <point x="420.995117188" y="863.0" type="line" smooth="yes"/>
      <point x="416.995117188" y="863.0"/>
      <point x="415.995117188" y="863.0"/>
      <point x="416.995117188" y="867.0" type="curve" smooth="yes"/>
      <point x="501.995117188" y="1253.0"/>
      <point x="515.995117188" y="1333.0"/>
      <point x="436.495117188" y="1333.0" type="curve" smooth="yes"/>
      <point x="360.495117188" y="1333.0"/>
      <point x="330.64453125" y="1216.0"/>
      <point x="285.655273438" y="1022.0" type="curve" smooth="yes"/>
      <point x="136.670898438" y="378.0" type="line" smooth="yes"/>
      <point x="83.6708984375" y="150.0"/>
      <point x="76.0810546875" y="67.0"/>
      <point x="142.581054688" y="67.0" type="curve" smooth="yes"/>
      <point x="208.995117188" y="67.0"/>
      <point x="261.995117188" y="183.0"/>
      <point x="378.995117188" y="637.0" type="curve"/>
      <point x="384.995117188" y="608.0" type="line"/>
      <point x="301.995117188" y="608.0" type="line" smooth="yes"/>
      <point x="297.995117188" y="608.0"/>
      <point x="297.999023438" y="610.0"/>
    </contour>
  </outline>
</glyph>
<glyph name="H" format="2">
  <advance height="960" width="488"/>
  <unicode hex="0048"/>
  <anchor x="128.0" y="0.0" name="bottom"/>
  <anchor x="450.0" y="1400.0" name="top"/>
  <outline>
    <contour>
      <point x="524.658203125" y="1400.0" type="curve" smooth="yes"/>
      <point x="628.658203125" y="1400.0" type="line" smooth="yes"/>
      <point x="632.658203125" y="1400.0"/>
      <point x="633.658203125" y="1399.0"/>
      <point x="632.658203125" y="1395.0" type="curve" smooth="yes"/>
      <point x="311.658203125" y="5.0" type="line" smooth="yes"/>
      <point x="310.658203125" y="1.0"/>
      <point x="309.658203125" y="0.0"/>
      <point x="305.658203125" y="0.0" type="curve" smooth="yes"/>
      <point x="201.658203125" y="0.0" type="line" smooth="yes"/>
      <point x="197.658203125" y="0.0"/>
      <point x="196.662109375" y="1.0"/>
      <point x="197.658203125" y="5.0" type="curve" smooth="yes"/>
      <point x="349.665039062" y="664.0" type="line"/>
      <point x="219.5078125" y="664.0" type="line"/>
      <point x="67.5078125" y="5.0" type="line" smooth="yes"/>
      <point x="66.5078125" y="1.0"/>
      <point x="65.5078125" y="0.0"/>
      <point x="61.5078125" y="0.0" type="curve" smooth="yes"/>
      <point x="-42.4921875" y="0.0" type="line" smooth="yes"/>
      <point x="-46.4921875" y="0.0"/>
      <point x="-47.4921875" y="1.0"/>
      <point x="-46.4921875" y="5.0" type="curve" smooth="yes"/>
      <point x="274.5078125" y="1395.0" type="line" smooth="yes"/>
      <point x="275.5078125" y="1399.0"/>
      <point x="276.5078125" y="1400.0"/>
      <point x="280.5078125" y="1400.0" type="curve" smooth="yes"/>
      <point x="384.5078125" y="1400.0" type="line" smooth="yes"/>
      <point x="388.5078125" y="1400.0"/>
      <point x="389.499023438" y="1399.0"/>
      <point x="388.502929688" y="1395.0" type="curve" smooth="yes"/>
      <point x="239.5078125" y="751.0" type="line"/>
      <point x="369.668945312" y="751.0" type="line"/>
      <point x="518.658203125" y="1395.0" type="line" smooth="yes"/>
      <point x="519.658203125" y="1399.0"/>
      <point x="520.658203125" y="1400.0"/>
    </contour>
  </outline>
</glyph>
<glyph name="I" format="2">
  <advance height="960" width="269"/>
  <unicode hex="0049"/>
  <anchor x="20.0" y="0.0" name="bottom"/>
  <anchor x="20.0" y="0.0" name="ogonek"/>
  <anchor x="343.0" y="1400.0" name="top"/>
  <outline>
    <contour>
      <point x="292.857421875" y="1400.0" type="curve" smooth="yes"/>
      <point x="396.857421875" y="1400.0" type="line" smooth="yes"/>
      <point x="400.857421875" y="1400.0"/>
      <point x="401.857421875" y="1399.0"/>
      <point x="400.857421875" y="1395.0" type="curve" smooth="yes"/>
      <point x="79.857421875" y="5.0" type="line" smooth="yes"/>
      <point x="78.857421875" y="1.0"/>
      <point x="77.857421875" y="0.0"/>
      <point x="73.857421875" y="0.0" type="curve" smooth="yes"/>
      <point x="-30.142578125" y="0.0" type="line" smooth="yes"/>
      <point x="-34.142578125" y="0.0"/>
      <point x="-35.142578125" y="1.0"/>
      <point x="-34.142578125" y="5.0" type="curve" smooth="yes"/>
      <point x="286.857421875" y="1395.0" type="line" smooth="yes"/>
      <point x="287.857421875" y="1399.0"/>
      <point x="288.857421875" y="1400.0"/>
    </contour>
  </outline>
</glyph>
<glyph name="J" format="2">
  <advance height="960" width="408"/>
  <unicode hex="004A"/>
  <anchor x="45.0" y="0.0" name="bottom"/>
  <anchor x="467.0" y="1400.0" name="top"/>
  <outline>
    <contour>
      <point x="413.0" y="1400.0" type="curve" smooth="yes"/>
      <point x="522.0" y="1400.0" type="line" smooth="yes"/>
      <point x="526.0" y="1400.0"/>
      <point x="528.0" y="1399.0"/>
      <point x="527.0" y="1395.0" type="curve" smooth="yes"/>
      <point x="267.0" y="269.0" type="line" smooth="yes"/>
      <point x="219.0" y="59.0"/>
      <point x="179.0" y="-18.0"/>
      <point x="50.0" y="-18.0" type="curve" smooth="yes"/>
      <point x="-62.0" y="-18.0"/>
      <point x="-100.379336341" y="65.3439365828"/>
      <point x="-31.0" y="239.0" type="curve" smooth="yes"/>
      <point x="136.0" y="657.0" type="line" smooth="yes"/>
      <point x="137.0" y="661.0"/>
      <point x="139.0" y="663.0"/>
      <point x="143.0" y="663.0" type="curve" smooth="yes"/>
      <point x="179.0" y="663.0" type="line" smooth="yes"/>
      <point x="183.0" y="663.0"/>
      <point x="185.0" y="661.0"/>
      <point x="184.0" y="657.0" type="curve" smooth="yes"/>
      <point x="58.0" y="244.0" type="line" smooth="yes"/>
      <point x="15.2017993832" y="103.717009089"/>
      <point x="30.0" y="74.0"/>
      <point x="60.0" y="74.0" type="curve" smooth="yes"/>
      <point x="94.0" y="74.0"/>
      <point x="109.0" y="96.0"/>
      <point x="145.0" y="254.0" type="curve" smooth="yes"/>
      <point x="408.0" y="1395.0" type="line" smooth="yes"/>
      <point x="409.0" y="1399.0"/>
      <point x="409.0" y="1400.0"/>
    </contour>
  </outline>
</glyph>
<glyph name="K" format="2">
  <advance height="960" width="449"/>
  <unicode hex="004B"/>
  <anchor x="132.0" y="0.0" name="bottom"/>
  <anchor x="455.0" y="1400.0" name="top"/>
  <outline>
    <contour>
      <point x="280.5078125" y="1400.0" type="curve" smooth="yes"/>
      <point x="384.5078125" y="1400.0" type="line" smooth="yes"/>
      <point x="388.5078125" y="1400.0"/>
      <point x="389.499023438" y="1399.0"/>
      <point x="388.502929688" y="1395.0" type="curve" smooth="yes"/>
      <point x="67.5078125" y="5.0" type="line" smooth="yes"/>
      <point x="66.5078125" y="1.0"/>
      <point x="65.5078125" y="0.0"/>
      <point x="61.5078125" y="0.0" type="curve" smooth="yes"/>
      <point x="-42.4921875" y="0.0" type="line" smooth="yes"/>
      <point x="-46.4921875" y="0.0"/>
      <point x="-47.4921875" y="1.0"/>
      <point x="-46.4921875" y="5.0" type="curve" smooth="yes"/>
      <point x="274.5078125" y="1395.0" type="line" smooth="yes"/>
      <point x="275.5078125" y="1399.0"/>
      <point x="276.5078125" y="1400.0"/>
    </contour>
    <contour>
      <point x="252.76171875" y="746.0" type="line"/>
      <point x="347.711914062" y="824.0" type="line"/>
      <point x="331.799804688" y="5.0" type="line" smooth="yes"/>
      <point x="333.799804688" y="1.0"/>
      <point x="333.799804688" y="0.0"/>
      <point x="329.799804688" y="0.0" type="curve" smooth="yes"/>
      <point x="212.799804688" y="0.0" type="line" smooth="yes"/>
      <point x="209.0" y="0.0"/>
      <point x="207.111328125" y="1.0"/>
      <point x="205.2578125" y="5.0" type="curve" smooth="yes"/>
    </contour>
    <contour>
      <point x="548.799804688" y="1395.0" type="line" smooth="yes"/>
      <point x="551.799804688" y="1397.0"/>
      <point x="554.799804688" y="1400.0"/>
      <point x="559.799804688" y="1400.0" type="curve" smooth="yes"/>
      <point x="643.799804688" y="1400.0" type="line" smooth="yes"/>
      <point x="649.799804688" y="1400.0"/>
      <point x="650.799804688" y="1399.0"/>
      <point x="645.799804688" y="1395.0" type="curve" smooth="yes"/>
      <point x="276.46875" y="660.0" type="line"/>
      <point x="266.365234375" y="690.0" type="line"/>
      <point x="157.5078125" y="463.0" type="line"/>
      <point x="126.5078125" y="518.0" type="line"/>
    </contour>
  </outline>
</glyph>
<glyph name="L" format="2">
  <advance height="960" width="341"/>
  <unicode hex="004C"/>
  <anchor x="92.0" y="0.0" name="bottom"/>
  <anchor x="335.0" y="1400.0" name="top"/>
  <outline>
    <contour>
      <point x="280.5078125" y="1400.0" type="curve" smooth="yes"/>
      <point x="384.5078125" y="1400.0" type="line" smooth="yes"/>
      <point x="388.5078125" y="1400.0"/>
      <point x="389.5078125" y="1399.0"/>
      <point x="388.5078125" y="1395.0" type="curve" smooth="yes"/>
      <point x="86.5078125" y="88.0" type="line"/>
      <point x="217.5078125" y="88.0" type="line" smooth="yes"/>
      <point x="221.5078125" y="88.0"/>
      <point x="222.5078125" y="86.0"/>
      <point x="221.5078125" y="82.0" type="curve" smooth="yes"/>
      <point x="203.5078125" y="5.0" type="line" smooth="yes"/>
      <point x="202.5078125" y="1.0"/>
      <point x="201.5078125" y="0.0"/>
      <point x="197.5078125" y="0.0" type="curve" smooth="yes"/>
      <point x="-42.4921875" y="0.0" type="line" smooth="yes"/>
      <point x="-46.4921875" y="0.0"/>
      <point x="-47.4921875" y="1.0"/>
      <point x="-46.4921875" y="5.0" type="curve" smooth="yes"/>
      <point x="274.5078125" y="1395.0" type="line" smooth="yes"/>
      <point x="275.5078125" y="1399.0"/>
      <point x="276.5078125" y="1400.0"/>
    </contour>
  </outline>
</glyph>
<glyph name="M" format="2">
  <advance height="960" width="604"/>
  <unicode hex="004D"/>
  <anchor x="187.0" y="0.0" name="bottom"/>
  <anchor x="510.0" y="1400.0" name="top"/>
  <outline>
    <contour>
      <point x="300.557617188" y="1137.0" type="line"/>
      <point x="39.5576171875" y="5.0" type="line" smooth="yes"/>
      <point x="38.5576171875" y="1.0"/>
      <point x="37.5576171875" y="0.0"/>
      <point x="33.5576171875" y="0.0" type="curve" smooth="yes"/>
      <point x="-43.4423828125" y="0.0" type="line" smooth="yes"/>
      <point x="-47.4423828125" y="0.0"/>
      <point x="-48.4423828125" y="1.0"/>
      <point x="-47.4423828125" y="5.0" type="curve" smooth="yes"/>
      <point x="273.557617188" y="1395.0" type="line" smooth="yes"/>
      <point x="274.557617188" y="1399.0"/>
      <point x="275.557617188" y="1400.0"/>
      <point x="279.557617188" y="1400.0" type="curve" smooth="yes"/>
      <point x="413.810546875" y="1400.0" type="line" smooth="yes"/>
      <point x="417.611328125" y="1400.0"/>
      <point x="419.499023438" y="1399.0"/>
      <point x="419.453125" y="1395.0" type="curve" smooth="yes"/>
      <point x="283.950195312" y="396.0" type="line"/>
      <point x="608.502929688" y="1395.0" type="line" smooth="yes"/>
      <point x="610.44921875" y="1399.0"/>
      <point x="612.361328125" y="1400.0"/>
      <point x="616.161132812" y="1400.0" type="curve" smooth="yes"/>
      <point x="742.658203125" y="1400.0" type="line" smooth="yes"/>
      <point x="746.658203125" y="1400.0"/>
      <point x="748.658203125" y="1399.0"/>
      <point x="747.658203125" y="1395.0" type="curve" smooth="yes"/>
      <point x="428.7578125" y="5.0" type="line" smooth="yes"/>
      <point x="427.7578125" y="1.0"/>
      <point x="425.7578125" y="0.0"/>
      <point x="421.7578125" y="0.0" type="curve" smooth="yes"/>
      <point x="328.7578125" y="0.0" type="line" smooth="yes"/>
      <point x="324.7578125" y="0.0"/>
      <point x="323.76171875" y="1.0"/>
      <point x="324.7578125" y="5.0" type="curve" smooth="yes"/>
      <point x="586.663085938" y="1149.0" type="line"/>
      <point x="213.607421875" y="5.0" type="line" smooth="yes"/>
      <point x="211.662109375" y="1.0"/>
      <point x="209.75" y="0.0"/>
      <point x="205.950195312" y="0.0" type="curve" smooth="yes"/>
      <point x="163.950195312" y="0.0" type="line" smooth="yes"/>
      <point x="160.150390625" y="0.0"/>
      <point x="158.26171875" y="1.0"/>
      <point x="158.307617188" y="5.0" type="curve" smooth="yes"/>
    </contour>
  </outline>
</glyph>
<glyph name="N" format="2">
  <advance height="960" width="483"/>
  <unicode hex="004E"/>
  <anchor x="142.0" y="0.0" name="bottom"/>
  <anchor x="470.0" y="1400.0" name="top"/>
  <outline>
    <contour>
      <point x="537.821289062" y="1400.0" type="curve" smooth="yes"/>
      <point x="625.615234375" y="1400.0" type="line" smooth="yes"/>
      <point x="629.615234375" y="1400.0"/>
      <point x="630.615234375" y="1399.0"/>
      <point x="629.615234375" y="1395.0" type="curve" smooth="yes"/>
      <point x="308.615234375" y="5.0" type="line" smooth="yes"/>
      <point x="307.615234375" y="1.0"/>
      <point x="306.615234375" y="0.0"/>
      <point x="302.615234375" y="0.0" type="curve" smooth="yes"/>
      <point x="242.615234375" y="0.0" type="line" smooth="yes"/>
      <point x="238.615234375" y="0.0"/>
      <point x="234.615234375" y="1.0"/>
      <point x="234.615234375" y="5.0" type="curve" smooth="yes"/>
      <point x="299.557617188" y="1174.0" type="line"/>
      <point x="319.309570312" y="1174.0" type="line"/>
      <point x="49.3154296875" y="5.0" type="line" smooth="yes"/>
      <point x="48.3193359375" y="1.0"/>
      <point x="47.357421875" y="0.0"/>
      <point x="43.5576171875" y="0.0" type="curve" smooth="yes"/>
      <point x="-43.4423828125" y="0.0" type="line" smooth="yes"/>
      <point x="-47.4423828125" y="0.0"/>
      <point x="-48.4423828125" y="1.0"/>
      <point x="-47.4423828125" y="5.0" type="curve" smooth="yes"/>
      <point x="273.557617188" y="1395.0" type="line" smooth="yes"/>
      <point x="274.557617188" y="1399.0"/>
      <point x="275.557617188" y="1400.0"/>
      <point x="279.557617188" y="1400.0" type="curve" smooth="yes"/>
      <point x="388.418945312" y="1400.0" type="line" smooth="yes"/>
      <point x="392.21875" y="1400.0"/>
      <point x="396.006835938" y="1399.0"/>
      <point x="395.9609375" y="1395.0" type="curve" smooth="yes"/>
      <point x="331.821289062" y="443.0" type="line"/>
      <point x="311.821289062" y="443.0" type="line"/>
      <point x="531.821289062" y="1395.0" type="line" smooth="yes"/>
      <point x="532.821289062" y="1399.0"/>
      <point x="533.821289062" y="1400.0"/>
    </contour>
  </outline>
</glyph>
<glyph name="P" format="2">
  <advance height="960" width="442"/>
  <unicode hex="0050"/>
  <anchor x="28.0" y="0.0" name="bottom"/>
  <anchor x="425.0" y="1400.0" name="top"/>
  <outline>
    <contour>
      <point x="377.044921875" y="1312.0" type="line"/>
      <point x="235.057617188" y="699.0" type="line"/>
      <point x="257.869140625" y="699.0" type="line" smooth="yes"/>
      <point x="312.018554688" y="699.0"/>
      <point x="340.9921875" y="740.0"/>
      <point x="366.973632812" y="851.0" type="curve" smooth="yes"/>
      <point x="438.973632812" y="1160.0" type="line" smooth="yes"/>
      <point x="464.973632812" y="1271.0"/>
      <point x="453.995117188" y="1312.0"/>
      <point x="399.844726562" y="1312.0" type="curve" smooth="yes"/>
    </contour>
    <contour>
      <point x="410.361328125" y="1400.0" type="line" smooth="yes"/>
      <point x="535.973632812" y="1400.0"/>
      <point x="595.973632812" y="1347.0"/>
      <point x="548.973632812" y="1145.0" type="curve" smooth="yes"/>
      <point x="485.973632812" y="872.0" type="line" smooth="yes"/>
      <point x="438.973632812" y="670.0"/>
      <point x="351.973632812" y="618.0"/>
      <point x="230.333984375" y="618.0" type="curve" smooth="yes"/>
      <point x="217.034179688" y="618.0" type="line"/>
      <point x="75.0576171875" y="5.0" type="line" smooth="yes"/>
      <point x="74.0576171875" y="1.0"/>
      <point x="74.0498046875" y="0.0"/>
      <point x="70.0576171875" y="0.0" type="curve" smooth="yes"/>
      <point x="-33.9423828125" y="0.0" type="line" smooth="yes"/>
      <point x="-37.9423828125" y="0.0"/>
      <point x="-38.9423828125" y="1.0"/>
      <point x="-37.9423828125" y="5.0" type="curve" smooth="yes"/>
      <point x="283.057617188" y="1395.0" type="line" smooth="yes"/>
      <point x="284.057617188" y="1399.0"/>
      <point x="285.057617188" y="1400.0"/>
      <point x="289.057617188" y="1400.0" type="curve" smooth="yes"/>
    </contour>
  </outline>
</glyph>
<glyph name="Q" format="2">
  <advance height="960" width="590"/>
  <unicode hex="0051"/>
  <anchor x="152.0" y="0.0" name="bottom"/>
  <anchor x="475.0" y="1400.0" name="top"/>
  <outline>
    <contour>
      <point x="467.356445312" y="82.0" type="curve" smooth="yes"/>
      <point x="449.356445312" y="5.0" type="line" smooth="yes"/>
      <point x="448.356445312" y="1.0"/>
      <point x="449.356445312" y="0.0"/>
      <point x="443.356445312" y="-2.0" type="curve" smooth="yes"/>
      <point x="333.356445312" y="-37.0"/>
      <point x="285.356445312" y="46.0"/>
      <point x="316.356445312" y="179.0" type="curve"/>
      <point x="399.356445312" y="294.0" type="line"/>
      <point x="359.356445312" y="119.0"/>
      <point x="304.356445312" y="-18.0"/>
      <point x="147.30078125" y="-18.0" type="curve" smooth="yes"/>
      <point x="-21.1943359375" y="-18.0"/>
      <point x="-25.1943359375" y="120.0"/>
      <point x="14.8056640625" y="295.0" type="curve" smooth="yes"/>
      <point x="201.805664062" y="1105.0" type="line" smooth="yes"/>
      <point x="241.805664062" y="1280.0"/>
      <point x="283.805664062" y="1418.0"/>
      <point x="463.126953125" y="1418.0" type="curve" smooth="yes"/>
      <point x="640.356445312" y="1418.0"/>
      <point x="659.356445312" y="1280.0"/>
      <point x="619.356445312" y="1105.0" type="curve" smooth="yes"/>
      <point x="407.356445312" y="188.0" type="line" smooth="yes"/>
      <point x="391.356445312" y="118.0"/>
      <point x="405.356445312" y="81.0"/>
      <point x="462.356445312" y="88.0" type="curve" smooth="yes"/>
      <point x="468.356445312" y="89.0"/>
      <point x="468.356445312" y="85.0"/>
    </contour>
    <contour>
      <point x="309.356445312" y="277.0" type="curve" smooth="yes"/>
      <point x="504.383789062" y="1124.0" type="line" smooth="yes"/>
      <point x="533.387695312" y="1250.0"/>
      <point x="540.080078125" y="1336.0"/>
      <point x="463.130859375" y="1336.0" type="curve" smooth="yes"/>
      <point x="386.180664062" y="1336.0"/>
      <point x="353.805664062" y="1250.0"/>
      <point x="324.805664062" y="1124.0" type="curve" smooth="yes"/>
      <point x="129.805664062" y="277.0" type="line" smooth="yes"/>
      <point x="100.790039062" y="150.0"/>
      <point x="93.1474609375" y="64.0"/>
      <point x="170.09765625" y="64.0" type="curve" smooth="yes"/>
      <point x="247.046875" y="64.0"/>
      <point x="280.356445312" y="150.0"/>
    </contour>
  </outline>
</glyph>
<glyph name="R" format="2">
  <advance height="960" width="493"/>
  <unicode hex="0052"/>
  <anchor x="118.0" y="0.0" name="bottom"/>
  <anchor x="440.0" y="1400.0" name="top"/>
  <outline>
    <contour>
      <point x="377.044921875" y="1312.0" type="line"/>
      <point x="245.057617188" y="742.0" type="line"/>
      <point x="281.165039062" y="742.0" type="line" smooth="yes"/>
      <point x="338.165039062" y="742.0"/>
      <point x="369.049804688" y="784.0"/>
      <point x="395.047851562" y="895.0" type="curve" smooth="yes"/>
      <point x="456.047851562" y="1159.0" type="line" smooth="yes"/>
      <point x="481.048828125" y="1269.0"/>
      <point x="470.145507812" y="1312.0"/>
      <point x="413.145507812" y="1312.0" type="curve" smooth="yes"/>
    </contour>
    <contour>
      <point x="434.111328125" y="1400.0" type="line" smooth="yes"/>
      <point x="567.047851562" y="1400.0"/>
      <point x="612.047851562" y="1327.0"/>
      <point x="571.047851562" y="1150.0" type="curve" smooth="yes"/>
      <point x="519.047851562" y="923.0" type="line" smooth="yes"/>
      <point x="478.047851562" y="744.0"/>
      <point x="389.047851562" y="684.0"/>
      <point x="269.095703125" y="684.0" type="curve"/>
      <point x="276.091796875" y="714.0" type="line"/>
      <point x="398.047851562" y="714.0"/>
      <point x="459.047851562" y="678.0"/>
      <point x="429.047851562" y="549.0" type="curve" smooth="yes"/>
      <point x="354.047851562" y="225.0" type="line" smooth="yes"/>
      <point x="321.047851562" y="81.0"/>
      <point x="332.047851562" y="64.0"/>
      <point x="347.047851562" y="30.0" type="curve" smooth="yes"/>
      <point x="350.047851562" y="24.0"/>
      <point x="350.047851562" y="23.0"/>
      <point x="349.047851562" y="20.0" type="curve" smooth="yes"/>
      <point x="345.047851562" y="5.0" type="line" smooth="yes"/>
      <point x="344.047851562" y="1.0"/>
      <point x="342.047851562" y="0.0"/>
      <point x="338.047851562" y="0.0" type="curve" smooth="yes"/>
      <point x="230.047851562" y="0.0" type="line" smooth="yes"/>
      <point x="226.047851562" y="0.0"/>
      <point x="225.047851562" y="0.0"/>
      <point x="223.047851562" y="4.0" type="curve" smooth="yes"/>
      <point x="206.047851562" y="53.0"/>
      <point x="209.047851562" y="90.0"/>
      <point x="240.047851562" y="225.0" type="curve" smooth="yes"/>
      <point x="320.047851562" y="571.0" type="line" smooth="yes"/>
      <point x="333.060546875" y="629.0"/>
      <point x="326.780273438" y="661.0"/>
      <point x="262.180664062" y="661.0" type="curve" smooth="yes"/>
      <point x="227.030273438" y="661.0" type="line"/>
      <point x="75.0576171875" y="5.0" type="line" smooth="yes"/>
      <point x="74.0576171875" y="1.0"/>
      <point x="74.0498046875" y="0.0"/>
      <point x="70.0576171875" y="0.0" type="curve" smooth="yes"/>
      <point x="-33.9423828125" y="0.0" type="line" smooth="yes"/>
      <point x="-37.9423828125" y="0.0"/>
      <point x="-38.9423828125" y="1.0"/>
      <point x="-37.9423828125" y="5.0" type="curve" smooth="yes"/>
      <point x="283.057617188" y="1395.0" type="line" smooth="yes"/>
      <point x="284.057617188" y="1399.0"/>
      <point x="285.057617188" y="1400.0"/>
      <point x="289.057617188" y="1400.0" type="curve" smooth="yes"/>
    </contour>
  </outline>
</glyph>
<glyph name="S" format="2">
  <advance height="960" width="432"/>
  <unicode hex="0053"/>
  <anchor x="112.0" y="0.0" name="bottom"/>
  <anchor x="425.0" y="1400.0" name="top"/>
  <outline>
    <contour>
      <point x="124.094726562" y="524.0" type="curve" smooth="yes"/>
      <point x="192.094726562" y="524.0" type="line" smooth="yes"/>
      <point x="193.094726562" y="524.0"/>
      <point x="198.110351562" y="523.561523438"/>
      <point x="196.094726562" y="520.0" type="curve" smooth="yes"/>
      <point x="147.094726562" y="436.0"/>
      <point x="103.9296875" y="310.780273438"/>
      <point x="77.0947265625" y="231.0" type="curve" smooth="yes"/>
      <point x="40.0947265625" y="121.0"/>
      <point x="71.0947265625" y="72.0"/>
      <point x="114.923828125" y="72.0" type="curve" smooth="yes"/>
      <point x="154.823242188" y="72.0"/>
      <point x="205.693359375" y="117.0"/>
      <point x="246.674804688" y="293.0" type="curve" smooth="yes"/>
      <point x="280.674804688" y="439.0"/>
      <point x="246.106445312" y="573.0"/>
      <point x="222.094726562" y="686.0" type="curve" smooth="yes"/>
      <point x="190.094726562" y="825.0"/>
      <point x="167.094726562" y="958.0"/>
      <point x="214.094726562" y="1160.0" type="curve" smooth="yes"/>
      <point x="260.094726562" y="1361.0"/>
      <point x="334.094726562" y="1418.0"/>
      <point x="438.260742188" y="1418.0" type="curve" smooth="yes"/>
      <point x="535.674804688" y="1418.0"/>
      <point x="601.637695312" y="1311.15234375"/>
      <point x="500.674804688" y="1080.0" type="curve" smooth="yes"/>
      <point x="424.674804688" y="906.0" type="line" smooth="yes"/>
      <point x="423.674804688" y="902.0"/>
      <point x="420.674804688" y="902.0"/>
      <point x="417.674804688" y="902.0" type="curve" smooth="yes"/>
      <point x="353.455078125" y="902.0" type="line" smooth="yes"/>
      <point x="350.604492188" y="902.0"/>
      <point x="348.403320312" y="903.131835938"/>
      <point x="349.701171875" y="906.0" type="curve" smooth="yes"/>
      <point x="387.720703125" y="990.0"/>
      <point x="414.212890625" y="1063.0"/>
      <point x="433.209960938" y="1145.0" type="curve" smooth="yes"/>
      <point x="471.225585938" y="1311.0"/>
      <point x="456.291015625" y="1334.0"/>
      <point x="423.041015625" y="1334.0" type="curve" smooth="yes"/>
      <point x="389.791015625" y="1334.0"/>
      <point x="355.094726562" y="1299.0"/>
      <point x="323.094726562" y="1162.0" type="curve" smooth="yes"/>
      <point x="285.094726562" y="999.0"/>
      <point x="300.892578125" y="875.0"/>
      <point x="330.73046875" y="744.0" type="curve" smooth="yes"/>
      <point x="359.674804688" y="626.0"/>
      <point x="399.674804688" y="481.0"/>
      <point x="356.674804688" y="296.0" type="curve" smooth="yes"/>
      <point x="302.674804688" y="64.0"/>
      <point x="212.674804688" y="-18.0"/>
      <point x="96.78515625" y="-18.0" type="curve" smooth="yes"/>
      <point x="-18.9052734375" y="-18.0"/>
      <point x="-51.2568359375" y="116.1484375"/>
      <point x="3.0947265625" y="245.0" type="curve" smooth="yes"/>
      <point x="119.094726562" y="520.0" type="line" smooth="yes"/>
      <point x="120.094726562" y="524.0"/>
      <point x="123.094726562" y="524.0"/>
    </contour>
  </outline>
</glyph>
<glyph name="T" format="2">
  <advance height="960" width="398"/>
  <unicode hex="0054"/>
  <anchor x="42.0" y="0.0" name="bottom"/>
  <anchor x="405.0" y="1400.0" name="top"/>
  <outline>
    <contour>
      <point x="230.114257812" y="1400.0" type="curve" smooth="yes"/>
      <point x="590.114257812" y="1400.0" type="line" smooth="yes"/>
      <point x="594.114257812" y="1400.0"/>
      <point x="596.114257812" y="1399.0"/>
      <point x="595.114257812" y="1395.0" type="curve" smooth="yes"/>
      <point x="577.114257812" y="1318.0" type="line" smooth="yes"/>
      <point x="576.114257812" y="1314.0"/>
      <point x="574.114257812" y="1312.0"/>
      <point x="570.114257812" y="1312.0" type="curve" smooth="yes"/>
      <point x="447.114257812" y="1312.0" type="line"/>
      <point x="145.114257812" y="5.0" type="line" smooth="yes"/>
      <point x="144.114257812" y="1.0"/>
      <point x="143.114257812" y="0.0"/>
      <point x="139.114257812" y="0.0" type="curve" smooth="yes"/>
      <point x="36.1142578125" y="0.0" type="line" smooth="yes"/>
      <point x="32.1142578125" y="0.0"/>
      <point x="31.1142578125" y="1.0"/>
      <point x="32.1142578125" y="5.0" type="curve" smooth="yes"/>
      <point x="334.114257812" y="1312.0" type="line"/>
      <point x="210.114257812" y="1312.0" type="line" smooth="yes"/>
      <point x="206.114257812" y="1312.0"/>
      <point x="206.114257812" y="1314.0"/>
      <point x="207.114257812" y="1318.0" type="curve" smooth="yes"/>
      <point x="225.114257812" y="1395.0" type="line" smooth="yes"/>
      <point x="226.114257812" y="1399.0"/>
      <point x="226.114257812" y="1400.0"/>
    </contour>
  </outline>
</glyph>
<glyph name="U" format="2">
  <advance height="960" width="484"/>
  <unicode hex="0055"/>
  <anchor x="142.0" y="0.0" name="bottom"/>
  <anchor x="190.0" y="0.0" name="ogonek"/>
  <anchor x="465.0" y="1400.0" name="top"/>
  <outline>
    <contour>
      <point x="254.502929688" y="219.0" type="curve" smooth="yes"/>
      <point x="525.528320312" y="1395.0" type="line" smooth="yes"/>
      <point x="526.524414062" y="1399.0"/>
      <point x="527.502929688" y="1400.0"/>
      <point x="531.502929688" y="1400.0" type="curve" smooth="yes"/>
      <point x="618.502929688" y="1400.0" type="line" smooth="yes"/>
      <point x="622.502929688" y="1400.0"/>
      <point x="624.502929688" y="1399.0"/>
      <point x="623.502929688" y="1395.0" type="curve" smooth="yes"/>
      <point x="358.502929688" y="246.0" type="line" smooth="yes"/>
      <point x="321.502929688" y="86.0"/>
      <point x="284.502929688" y="-18.0"/>
      <point x="134.916992188" y="-18.0" type="curve" smooth="yes"/>
      <point x="0.203125" y="-18.0"/>
      <point x="-28.796875" y="55.0"/>
      <point x="16.203125" y="250.0" type="curve" smooth="yes"/>
      <point x="280.203125" y="1395.0" type="line" smooth="yes"/>
      <point x="281.203125" y="1399.0"/>
      <point x="281.203125" y="1400.0"/>
      <point x="285.203125" y="1400.0" type="curve" smooth="yes"/>
      <point x="394.203125" y="1400.0" type="line" smooth="yes"/>
      <point x="398.203125" y="1400.0"/>
      <point x="399.203125" y="1399.0"/>
      <point x="398.203125" y="1395.0" type="curve" smooth="yes"/>
      <point x="130.203125" y="232.0" type="line" smooth="yes"/>
      <point x="100.203125" y="104.0"/>
      <point x="110.213867188" y="64.0"/>
      <point x="157.713867188" y="64.0" type="curve" smooth="yes"/>
      <point x="209.013671875" y="64.0"/>
      <point x="230.502929688" y="113.0"/>
    </contour>
  </outline>
</glyph>
<glyph name="V" format="2">
  <advance height="960" width="446"/>
  <unicode hex="0056"/>
  <anchor x="108.0" y="0.0" name="bottom"/>
  <anchor x="430.0" y="1400.0" name="top"/>
  <outline>
    <contour>
      <point x="156.375976562" y="150.0" type="line"/>
      <point x="541.375976562" y="1395.0" type="line" smooth="yes"/>
      <point x="543.375976562" y="1398.0"/>
      <point x="544.375976562" y="1400.0"/>
      <point x="548.375976562" y="1400.0" type="curve" smooth="yes"/>
      <point x="638.375976562" y="1400.0" type="line" smooth="yes"/>
      <point x="642.375976562" y="1400.0"/>
      <point x="642.375976562" y="1398.0"/>
      <point x="640.375976562" y="1395.0" type="curve" smooth="yes"/>
      <point x="187.375976562" y="5.0" type="line" smooth="yes"/>
      <point x="185.375976562" y="2.0"/>
      <point x="183.375976562" y="0.0"/>
      <point x="179.375976562" y="0.0" type="curve" smooth="yes"/>
      <point x="46.3759765625" y="0.0" type="line" smooth="yes"/>
      <point x="42.3759765625" y="0.0"/>
      <point x="41.3759765625" y="2.0"/>
      <point x="41.3759765625" y="5.0" type="curve" smooth="yes"/>
      <point x="220.375976562" y="1395.0" type="line" smooth="yes"/>
      <point x="220.375976562" y="1398.0"/>
      <point x="220.375976562" y="1400.0"/>
      <point x="224.375976562" y="1400.0" type="curve" smooth="yes"/>
      <point x="334.375976562" y="1400.0" type="line" smooth="yes"/>
      <point x="338.375976562" y="1400.0"/>
      <point x="340.375976562" y="1399.0"/>
      <point x="340.375976562" y="1395.0" type="curve" smooth="yes"/>
    </contour>
  </outline>
</glyph>
<glyph name="W" format="2">
  <advance height="960" width="699"/>
  <unicode hex="0057"/>
  <anchor x="252.0" y="0.0" name="bottom"/>
  <anchor x="575.0" y="1400.0" name="top"/>
  <outline>
    <contour>
      <point x="157.116210938" y="180.0" type="line"/>
      <point x="531.569335938" y="1395.0" type="line" smooth="yes"/>
      <point x="533.50390625" y="1398.0"/>
      <point x="534.4765625" y="1400.0"/>
      <point x="538.276367188" y="1400.0" type="curve" smooth="yes"/>
      <point x="624.7265625" y="1400.0" type="line" smooth="yes"/>
      <point x="628.526367188" y="1400.0"/>
      <point x="629.453125" y="1398.0"/>
      <point x="629.418945312" y="1395.0" type="curve" smooth="yes"/>
      <point x="435.715820312" y="171.0" type="line"/>
      <point x="813.715820312" y="1395.0" type="line" smooth="yes"/>
      <point x="815.715820312" y="1398.0"/>
      <point x="817.715820312" y="1400.0"/>
      <point x="821.715820312" y="1400.0" type="curve" smooth="yes"/>
      <point x="904.715820312" y="1400.0" type="line" smooth="yes"/>
      <point x="908.715820312" y="1400.0"/>
      <point x="908.715820312" y="1398.0"/>
      <point x="906.715820312" y="1395.0" type="curve" smooth="yes"/>
      <point x="460.715820312" y="5.0" type="line" smooth="yes"/>
      <point x="458.715820312" y="1.0"/>
      <point x="456.715820312" y="0.0"/>
      <point x="452.715820312" y="0.0" type="curve" smooth="yes"/>
      <point x="320.715820312" y="0.0" type="line" smooth="yes"/>
      <point x="317.866210938" y="0.0"/>
      <point x="315.02734375" y="1.0"/>
      <point x="315.073242188" y="5.0" type="curve" smooth="yes"/>
      <point x="483.724609375" y="1036.0" type="line"/>
      <point x="168.7734375" y="5.0" type="line" smooth="yes"/>
      <point x="166.827148438" y="1.0"/>
      <point x="164.916015625" y="0.0"/>
      <point x="161.116210938" y="0.0" type="curve" smooth="yes"/>
      <point x="31.1162109375" y="0.0" type="line" smooth="yes"/>
      <point x="27.1162109375" y="0.0"/>
      <point x="25.1162109375" y="1.0"/>
      <point x="25.1162109375" y="5.0" type="curve" smooth="yes"/>
      <point x="225.116210938" y="1395.0" type="line" smooth="yes"/>
      <point x="225.116210938" y="1398.0"/>
      <point x="226.116210938" y="1400.0"/>
      <point x="230.116210938" y="1400.0" type="curve" smooth="yes"/>
      <point x="336.116210938" y="1400.0" type="line" smooth="yes"/>
      <point x="340.116210938" y="1400.0"/>
      <point x="342.116210938" y="1398.0"/>
      <point x="342.116210938" y="1395.0" type="curve" smooth="yes"/>
    </contour>
  </outline>
</glyph>
<glyph name="X" format="2">
  <advance height="960" width="445"/>
  <unicode hex="0058"/>
  <anchor x="118.0" y="0.0" name="bottom"/>
  <anchor x="440.0" y="1400.0" name="top"/>
  <outline>
    <contour>
      <point x="514.754882812" y="1400.0" type="curve" smooth="yes"/>
      <point x="620.744140625" y="1400.0" type="line" smooth="yes"/>
      <point x="624.744140625" y="1400.0"/>
      <point x="624.744140625" y="1399.0"/>
      <point x="620.744140625" y="1395.0" type="curve" smooth="yes"/>
      <point x="335.84765625" y="715.0" type="line"/>
      <point x="316.744140625" y="5.0" type="line" smooth="yes"/>
      <point x="318.744140625" y="1.0"/>
      <point x="317.744140625" y="0.0"/>
      <point x="313.744140625" y="0.0" type="curve" smooth="yes"/>
      <point x="191.744140625" y="0.0" type="line" smooth="yes"/>
      <point x="187.944335938" y="0.0"/>
      <point x="186.055664062" y="1.0"/>
      <point x="185.151367188" y="5.0" type="curve" smooth="yes"/>
      <point x="249.04296875" y="602.0" type="line"/>
      <point x="24.6015625" y="5.0" type="line" smooth="yes"/>
      <point x="20.755859375" y="1.0"/>
      <point x="19.7939453125" y="0.0"/>
      <point x="15.994140625" y="0.0" type="curve" smooth="yes"/>
      <point x="-91.005859375" y="0.0" type="line" smooth="yes"/>
      <point x="-95.005859375" y="0.0"/>
      <point x="-96.005859375" y="1.0"/>
      <point x="-92.005859375" y="5.0" type="curve" smooth="yes"/>
      <point x="218.743164062" y="693.0" type="line"/>
      <point x="244.994140625" y="1395.0" type="line" smooth="yes"/>
      <point x="242.994140625" y="1399.0"/>
      <point x="242.994140625" y="1400.0"/>
      <point x="246.994140625" y="1400.0" type="curve" smooth="yes"/>
      <point x="366.5546875" y="1400.0" type="line" smooth="yes"/>
      <point x="370.354492188" y="1400.0"/>
      <point x="373.193359375" y="1399.0"/>
      <point x="374.096679688" y="1395.0" type="curve" smooth="yes"/>
      <point x="302.651367188" y="802.0" type="line"/>
      <point x="506.147460938" y="1395.0" type="line" smooth="yes"/>
      <point x="509.993164062" y="1399.0"/>
      <point x="510.955078125" y="1400.0"/>
    </contour>
  </outline>
</glyph>
<glyph name="Y" format="2">
  <advance height="960" width="458"/>
  <unicode hex="0059"/>
  <anchor x="112.0" y="0.0" name="bottom"/>
  <anchor x="435.0" y="1400.0" name="top"/>
  <outline>
    <contour>
      <point x="560.0703125" y="1400.0" type="curve" smooth="yes"/>
      <point x="652.0703125" y="1400.0" type="line" smooth="yes"/>
      <point x="656.0703125" y="1400.0"/>
      <point x="656.0703125" y="1399.0"/>
      <point x="653.0703125" y="1395.0" type="curve" smooth="yes"/>
      <point x="319.0703125" y="625.0" type="line"/>
      <point x="176.0703125" y="5.0" type="line" smooth="yes"/>
      <point x="175.0703125" y="1.0"/>
      <point x="173.0703125" y="0.0"/>
      <point x="169.0703125" y="0.0" type="curve" smooth="yes"/>
      <point x="66.0703125" y="0.0" type="line" smooth="yes"/>
      <point x="62.0703125" y="0.0"/>
      <point x="61.0703125" y="1.0"/>
      <point x="62.0703125" y="5.0" type="curve" smooth="yes"/>
      <point x="205.0703125" y="625.0" type="line"/>
      <point x="227.0703125" y="1395.0" type="line" smooth="yes"/>
      <point x="226.0703125" y="1399.0"/>
      <point x="226.0703125" y="1400.0"/>
      <point x="230.0703125" y="1400.0" type="curve" smooth="yes"/>
      <point x="346.0703125" y="1400.0" type="line" smooth="yes"/>
      <point x="350.0703125" y="1400.0"/>
      <point x="352.0703125" y="1399.0"/>
      <point x="353.0703125" y="1395.0" type="curve" smooth="yes"/>
      <point x="296.0703125" y="717.0" type="line"/>
      <point x="551.0703125" y="1395.0" type="line" smooth="yes"/>
      <point x="554.0703125" y="1399.0"/>
      <point x="556.0703125" y="1400.0"/>
    </contour>
  </outline>
</glyph>
<glyph name="Z" format="2">
  <advance height="960" width="396"/>
  <unicode hex="005A"/>
  <anchor x="98.0" y="0.0" name="bottom"/>
  <anchor x="420.0" y="1400.0" name="top"/>
  <outline>
    <contour>
      <point x="-127.15625" y="5.0" type="curve" smooth="yes"/>
      <point x="447.84375" y="1312.0" type="line"/>
      <point x="237.84375" y="1312.0" type="line" smooth="yes"/>
      <point x="233.84375" y="1312.0"/>
      <point x="232.84375" y="1314.0"/>
      <point x="233.84375" y="1318.0" type="curve" smooth="yes"/>
      <point x="251.84375" y="1395.0" type="line" smooth="yes"/>
      <point x="252.84375" y="1399.0"/>
      <point x="253.84375" y="1400.0"/>
      <point x="257.84375" y="1400.0" type="curve" smooth="yes"/>
      <point x="595.84375" y="1400.0" type="line" smooth="yes"/>
      <point x="599.84375" y="1400.0"/>
      <point x="599.84375" y="1399.0"/>
      <point x="595.84375" y="1395.0" type="curve" smooth="yes"/>
      <point x="22.84375" y="88.0" type="line"/>
      <point x="273.84375" y="88.0" type="line" smooth="yes"/>
      <point x="277.84375" y="88.0"/>
      <point x="278.84375" y="86.0"/>
      <point x="277.84375" y="82.0" type="curve" smooth="yes"/>
      <point x="259.84375" y="5.0" type="line" smooth="yes"/>
      <point x="258.84375" y="1.0"/>
      <point x="257.84375" y="0.0"/>
      <point x="253.84375" y="0.0" type="curve" smooth="yes"/>
      <point x="-126.15625" y="0.0" type="line" smooth="yes"/>
      <point x="-130.15625" y="0.0"/>
      <point x="-131.15625" y="1.0"/>
    </contour>
  </outline>
</glyph>
<glyph name="bracketleft" format="2">
  <advance height="1920" width="288"/>
  <unicode hex="005B"/>
  <outline>
    <contour>
      <point x="374.0" y="1519.0" type="line"/>
      <point x="-41.0" y="-279.0" type="line"/>
      <point x="74.0" y="-279.0" type="line" smooth="yes"/>
      <point x="78.0" y="-279.0"/>
      <point x="78.0" y="-280.0"/>
      <point x="77.0" y="-284.0" type="curve" smooth="yes"/>
      <point x="61.0" y="-355.0" type="line" smooth="yes"/>
      <point x="60.0" y="-359.0"/>
      <point x="59.0" y="-360.0"/>
      <point x="55.0" y="-360.0" type="curve" smooth="yes"/>
      <point x="-163.0" y="-360.0" type="line" smooth="yes"/>
      <point x="-167.0" y="-360.0"/>
      <point x="-168.0" y="-359.0"/>
      <point x="-167.0" y="-355.0" type="curve" smooth="yes"/>
      <point x="283.0" y="1595.0" type="line" smooth="yes"/>
      <point x="284.0" y="1599.0"/>
      <point x="285.0" y="1600.0"/>
      <point x="289.0" y="1600.0" type="curve" smooth="yes"/>
      <point x="507.0" y="1600.0" type="line" smooth="yes"/>
      <point x="511.0" y="1600.0"/>
      <point x="512.0" y="1599.0"/>
      <point x="511.0" y="1595.0" type="curve" smooth="yes"/>
      <point x="495.0" y="1524.0" type="line" smooth="yes"/>
      <point x="494.0" y="1520.0"/>
      <point x="493.0" y="1519.0"/>
      <point x="489.0" y="1519.0" type="curve" smooth="yes"/>
    </contour>
  </outline>
</glyph>
<glyph name="backslash" format="2">
  <advance height="2048" width="440"/>
  <unicode hex="005C"/>
  <outline>
    <contour>
      <point x="278.0" y="-95.0" type="line" smooth="yes"/>
      <point x="278.0" y="-99.0"/>
      <point x="276.0" y="-100.0"/>
      <point x="272.0" y="-100.0" type="curve" smooth="yes"/>
      <point x="191.0" y="-100.0" type="line" smooth="yes"/>
      <point x="187.0" y="-100.0"/>
      <point x="186.0" y="-99.0"/>
      <point x="185.0" y="-95.0" type="curve" smooth="yes"/>
      <point x="220.0" y="1395.0" type="line" smooth="yes"/>
      <point x="220.0" y="1399.0"/>
      <point x="222.0" y="1400.0"/>
      <point x="226.0" y="1400.0" type="curve" smooth="yes"/>
      <point x="307.0" y="1400.0" type="line" smooth="yes"/>
      <point x="310.0" y="1400.0"/>
      <point x="313.0" y="1399.0"/>
      <point x="313.0" y="1395.0" type="curve" smooth="yes"/>
    </contour>
  </outline>
</glyph>
<glyph name="bracketright" format="2">
  <advance height="1920" width="288"/>
  <unicode hex="005D"/>
  <outline>
    <contour>
      <point x="-39.0" y="-279.0" type="line"/>
      <point x="376.0" y="1519.0" type="line"/>
      <point x="261.0" y="1519.0" type="line" smooth="yes"/>
      <point x="257.0" y="1519.0"/>
      <point x="256.0" y="1520.0"/>
      <point x="257.0" y="1524.0" type="curve" smooth="yes"/>
      <point x="273.0" y="1595.0" type="line" smooth="yes"/>
      <point x="274.0" y="1599.0"/>
      <point x="275.0" y="1600.0"/>
      <point x="279.0" y="1600.0" type="curve" smooth="yes"/>
      <point x="497.0" y="1600.0" type="line" smooth="yes"/>
      <point x="501.0" y="1600.0"/>
      <point x="502.0" y="1599.0"/>
      <point x="501.0" y="1595.0" type="curve" smooth="yes"/>
      <point x="51.0" y="-355.0" type="line" smooth="yes"/>
      <point x="50.0" y="-359.0"/>
      <point x="49.0" y="-360.0"/>
      <point x="45.0" y="-360.0" type="curve" smooth="yes"/>
      <point x="-173.0" y="-360.0" type="line" smooth="yes"/>
      <point x="-177.0" y="-360.0"/>
      <point x="-178.0" y="-359.0"/>
      <point x="-177.0" y="-355.0" type="curve" smooth="yes"/>
      <point x="-161.0" y="-284.0" type="line" smooth="yes"/>
      <point x="-160.0" y="-280.0"/>
      <point x="-158.0" y="-279.0"/>
      <point x="-154.0" y="-279.0" type="curve" smooth="yes"/>
    </contour>
  </outline>
</glyph>
<glyph name="asciicircum" format="2">
  <advance height="1920" width="389"/>
  <unicode hex="005E"/>
  <outline>
    <contour>
      <point x="367.0" y="1271.0" type="line"/>
      <point x="148.0" y="740.0" type="line" smooth="yes"/>
      <point x="145.0" y="734.0"/>
      <point x="140.0" y="730.0"/>
      <point x="133.0" y="730.0" type="curve" smooth="yes"/>
      <point x="75.0" y="730.0" type="line" smooth="yes"/>
      <point x="68.0" y="730.0"/>
      <point x="67.0" y="734.0"/>
      <point x="71.0" y="740.0" type="curve" smooth="yes"/>
      <point x="363.0" y="1390.0" type="line" smooth="yes"/>
      <point x="369.0" y="1399.0"/>
      <point x="371.0" y="1400.0"/>
      <point x="378.0" y="1400.0" type="curve" smooth="yes"/>
      <point x="415.0" y="1400.0" type="line" smooth="yes"/>
      <point x="422.0" y="1400.0"/>
      <point x="425.0" y="1399.0"/>
      <point x="427.0" y="1390.0" type="curve" smooth="yes"/>
      <point x="418.0" y="740.0" type="line" smooth="yes"/>
      <point x="420.0" y="734.0"/>
      <point x="421.0" y="730.0"/>
      <point x="410.0" y="730.0" type="curve" smooth="yes"/>
      <point x="352.0" y="730.0" type="line" smooth="yes"/>
      <point x="343.0" y="730.0"/>
      <point x="342.0" y="734.0"/>
      <point x="341.0" y="740.0" type="curve" smooth="yes"/>
    </contour>
  </outline>
</glyph>
<glyph name="underscore" format="2">
  <advance height="1920" width="450"/>
  <unicode hex="005F"/>
  <outline>
    <contour>
      <point x="-139.0" y="-84.0" type="curve" smooth="yes"/>
      <point x="-121.0" y="-5.0" type="line" smooth="yes"/>
      <point x="-120.0" y="-1.0"/>
      <point x="-119.0" y="0.0"/>
      <point x="-115.0" y="0.0" type="curve" smooth="yes"/>
      <point x="325.0" y="0.0" type="line" smooth="yes"/>
      <point x="329.0" y="0.0"/>
      <point x="330.0" y="-1.0"/>
      <point x="329.0" y="-5.0" type="curve" smooth="yes"/>
      <point x="311.0" y="-84.0" type="line" smooth="yes"/>
      <point x="310.0" y="-88.0"/>
      <point x="308.0" y="-90.0"/>
      <point x="304.0" y="-90.0" type="curve" smooth="yes"/>
      <point x="-136.0" y="-90.0" type="line" smooth="yes"/>
      <point x="-140.0" y="-90.0"/>
      <point x="-140.0" y="-88.0"/>
    </contour>
  </outline>
</glyph>
<glyph name="grave" format="2">
  <advance width="320"/>
  <unicode hex="0060"/>
  <outline>
    <contour>
      <point x="378.0" y="1104.0" type="curve" smooth="yes"/>
      <point x="319.0" y="1104.0" type="line" smooth="yes"/>
      <point x="315.0" y="1104.0"/>
      <point x="312.0" y="1109.0"/>
      <point x="311.0" y="1114.0" type="curve" smooth="yes"/>
      <point x="231.0" y="1390.0" type="line" smooth="yes"/>
      <point x="230.0" y="1395.0"/>
      <point x="229.0" y="1400.0"/>
      <point x="233.0" y="1400.0" type="curve" smooth="yes"/>
      <point x="360.0" y="1400.0" type="line" smooth="yes"/>
      <point x="364.0" y="1400.0"/>
      <point x="366.0" y="1397.0"/>
      <point x="366.0" y="1390.0" type="curve" smooth="yes"/>
      <point x="382.0" y="1114.0" type="line" smooth="yes"/>
      <point x="382.0" y="1107.0"/>
      <point x="382.0" y="1104.0"/>
    </contour>
  </outline>
</glyph>
<glyph name="a" format="2">
  <advance height="960" width="378"/>
  <unicode hex="0061"/>
  <anchor x="83.0" y="0.0" name="bottom"/>
  <anchor x="200.0" y="0.0" name="ogonek"/>
  <anchor x="329.0" y="1050.0" name="top"/>
  <outline>
    <contour>
      <point x="184.0" y="205.0" type="line"/>
      <point x="151.0" y="60.0"/>
      <point x="101.0" y="-16.0"/>
      <point x="25.0" y="-16.0" type="curve" smooth="yes"/>
      <point x="-65.0" y="-16.0"/>
      <point x="-85.0" y="54.0"/>
      <point x="-46.0" y="224.0" type="curve" smooth="yes"/>
      <point x="91.0" y="817.0" type="line" smooth="yes"/>
      <point x="128.0" y="977.0"/>
      <point x="183.0" y="1059.0"/>
      <point x="269.0" y="1059.0" type="curve" smooth="yes"/>
      <point x="351.0" y="1059.0"/>
      <point x="390.0" y="987.0"/>
      <point x="360.0" y="859.0" type="curve"/>
      <point x="306.0" y="846.0" type="line"/>
      <point x="329.0" y="947.0"/>
      <point x="321.0" y="977.0"/>
      <point x="290.0" y="977.0" type="curve" smooth="yes"/>
      <point x="255.0" y="977.0"/>
      <point x="231.0" y="929.0"/>
      <point x="208.0" y="830.0" type="curve" smooth="yes"/>
      <point x="65.0" y="213.0" type="line" smooth="yes"/>
      <point x="42.0" y="114.0"/>
      <point x="39.0" y="67.0"/>
      <point x="74.0" y="67.0" type="curve" smooth="yes"/>
      <point x="104.0" y="67.0"/>
      <point x="136.0" y="107.0"/>
      <point x="159.0" y="206.0" type="curve"/>
    </contour>
    <contour>
      <point x="269.0" y="62.0" type="curve" smooth="yes"/>
      <point x="256.0" y="5.0" type="line" smooth="yes"/>
      <point x="255.0" y="1.0"/>
      <point x="255.0" y="0.0"/>
      <point x="251.0" y="-1.0" type="curve" smooth="yes"/>
      <point x="117.0" y="-41.0"/>
      <point x="116.0" y="22.0"/>
      <point x="141.0" y="132.0" type="curve" smooth="yes"/>
      <point x="329.0" y="944.0" type="line"/>
      <point x="438.0" y="1053.0" type="line" smooth="yes"/>
      <point x="442.0" y="1057.0"/>
      <point x="444.0" y="1059.0"/>
      <point x="448.0" y="1059.0" type="curve" smooth="yes"/>
      <point x="464.0" y="1059.0" type="line" smooth="yes"/>
      <point x="468.0" y="1059.0"/>
      <point x="469.0" y="1057.0"/>
      <point x="468.0" y="1053.0" type="curve" smooth="yes"/>
      <point x="256.0" y="135.0" type="line" smooth="yes"/>
      <point x="241.0" y="72.0"/>
      <point x="246.0" y="66.0"/>
      <point x="266.0" y="66.0" type="curve" smooth="yes"/>
      <point x="269.0" y="66.0"/>
      <point x="270.0" y="65.0"/>
    </contour>
  </outline>
</glyph>
<glyph name="b" format="2">
  <advance height="960" width="432"/>
  <unicode hex="0062"/>
  <outline>
    <contour>
      <point x="274.461914062" y="1450.0" type="curve" smooth="yes"/>
      <point x="378.461914062" y="1450.0" type="line" smooth="yes"/>
      <point x="382.461914062" y="1450.0"/>
      <point x="383.461914062" y="1449.0"/>
      <point x="382.461914062" y="1445.0" type="curve" smooth="yes"/>
      <point x="70.4619140625" y="97.0" type="line"/>
      <point x="-38.5380859375" y="-12.0" type="line" smooth="yes"/>
      <point x="-42.5380859375" y="-16.0"/>
      <point x="-44.5380859375" y="-18.0"/>
      <point x="-48.5380859375" y="-18.0" type="curve" smooth="yes"/>
      <point x="-64.5380859375" y="-18.0" type="line" smooth="yes"/>
      <point x="-68.5380859375" y="-18.0"/>
      <point x="-69.5380859375" y="-16.0"/>
      <point x="-68.5380859375" y="-12.0" type="curve" smooth="yes"/>
      <point x="268.461914062" y="1445.0" type="line" smooth="yes"/>
      <point x="269.461914062" y="1449.0"/>
      <point x="270.461914062" y="1450.0"/>
    </contour>
    <contour>
      <point x="217.461914062" y="845.0" type="line"/>
      <point x="250.461914062" y="990.0"/>
      <point x="300.461914062" y="1067.0"/>
      <point x="386.461914062" y="1067.0" type="curve" smooth="yes"/>
      <point x="476.461914062" y="1067.0"/>
      <point x="512.461914062" y="997.0"/>
      <point x="473.461914062" y="827.0" type="curve" smooth="yes"/>
      <point x="334.461914062" y="224.0" type="line" smooth="yes"/>
      <point x="297.461914062" y="64.0"/>
      <point x="237.461914062" y="-18.0"/>
      <point x="141.461914062" y="-18.0" type="curve" smooth="yes"/>
      <point x="49.4619140625" y="-18.0"/>
      <point x="9.4619140625" y="54.0"/>
      <point x="39.4619140625" y="182.0" type="curve"/>
      <point x="93.4619140625" y="195.0" type="line"/>
      <point x="70.4619140625" y="94.0"/>
      <point x="80.4619140625" y="64.0"/>
      <point x="121.461914062" y="64.0" type="curve" smooth="yes"/>
      <point x="166.461914062" y="64.0"/>
      <point x="195.461914062" y="112.0"/>
      <point x="218.461914062" y="211.0" type="curve" smooth="yes"/>
      <point x="362.461914062" y="838.0" type="line" smooth="yes"/>
      <point x="385.461914062" y="937.0"/>
      <point x="378.461914062" y="984.0"/>
      <point x="333.461914062" y="984.0" type="curve" smooth="yes"/>
      <point x="283.461914062" y="984.0"/>
      <point x="266.461914062" y="945.0"/>
      <point x="243.461914062" y="846.0" type="curve"/>
    </contour>
  </outline>
</glyph>
<glyph name="c" format="2">
  <advance height="960" width="359"/>
  <unicode hex="0063"/>
  <anchor x="78.0" y="0.0" name="bottom"/>
  <anchor x="317.0" y="1050.0" name="top"/>
  <outline>
    <contour>
      <point x="317.29296875" y="390.0" type="curve" smooth="yes"/>
      <point x="301.29296875" y="320.0"/>
      <point x="288.29296875" y="269.0"/>
      <point x="271.29296875" y="202.0" type="curve" smooth="yes"/>
      <point x="233.29296875" y="54.0"/>
      <point x="185.29296875" y="-18.0"/>
      <point x="81.47265625" y="-18.0" type="curve" smooth="yes"/>
      <point x="-28.9033203125" y="-18.0"/>
      <point x="-65.9033203125" y="50.0"/>
      <point x="-25.9033203125" y="224.0" type="curve" smooth="yes"/>
      <point x="113.096679688" y="827.0" type="line" smooth="yes"/>
      <point x="149.096679688" y="984.0"/>
      <point x="193.096679688" y="1067.0"/>
      <point x="315.346679688" y="1067.0" type="curve" smooth="yes"/>
      <point x="421.29296875" y="1067.0"/>
      <point x="448.29296875" y="994.0"/>
      <point x="417.29296875" y="851.0" type="curve" smooth="yes"/>
      <point x="403.29296875" y="784.0"/>
      <point x="383.29296875" y="733.0"/>
      <point x="336.29296875" y="661.0" type="curve" smooth="yes"/>
      <point x="335.19921875" y="659.325195312"/>
      <point x="335.29296875" y="657.0"/>
      <point x="331.29296875" y="657.0" type="curve" smooth="yes"/>
      <point x="263.114257812" y="657.0" type="line" smooth="yes"/>
      <point x="259.314453125" y="657.0"/>
      <point x="256.400390625" y="658.318359375"/>
      <point x="257.448242188" y="660.0" type="curve" smooth="yes"/>
      <point x="302.94140625" y="733.0"/>
      <point x="320.560546875" y="778.0"/>
      <point x="334.611328125" y="843.0" type="curve" smooth="yes"/>
      <point x="356.654296875" y="942.0"/>
      <point x="350.465820312" y="982.0"/>
      <point x="312.465820312" y="982.0" type="curve" smooth="yes"/>
      <point x="272.565429688" y="982.0"/>
      <point x="252.096679688" y="938.0"/>
      <point x="228.083984375" y="832.0" type="curve" smooth="yes"/>
      <point x="86.0966796875" y="218.0" type="line" smooth="yes"/>
      <point x="62.0966796875" y="116.0"/>
      <point x="68.3076171875" y="76.0"/>
      <point x="109.157226562" y="76.0" type="curve" smooth="yes"/>
      <point x="146.20703125" y="76.0"/>
      <point x="169.434570312" y="113.0"/>
      <point x="194.29296875" y="209.0" type="curve" smooth="yes"/>
      <point x="211.29296875" y="275.0"/>
      <point x="220.29296875" y="317.0"/>
      <point x="239.29296875" y="390.0" type="curve" smooth="yes"/>
      <point x="239.29296875" y="392.0"/>
      <point x="241.29296875" y="394.0"/>
      <point x="245.29296875" y="394.0" type="curve" smooth="yes"/>
      <point x="313.29296875" y="394.0" type="line" smooth="yes"/>
      <point x="317.29296875" y="394.0"/>
      <point x="317.29296875" y="392.0"/>
    </contour>
  </outline>
</glyph>
<glyph name="d" format="2">
  <advance height="960" width="426"/>
  <unicode hex="0064"/>
  <outline>
    <contour>
      <point x="226.530273438" y="203.0" type="line"/>
      <point x="193.530273438" y="58.0"/>
      <point x="143.203125" y="-18.0"/>
      <point x="66.2529296875" y="-18.0" type="curve" smooth="yes"/>
      <point x="-19.103515625" y="-18.0"/>
      <point x="-61.103515625" y="54.0"/>
      <point x="-22.103515625" y="224.0" type="curve" smooth="yes"/>
      <point x="116.896484375" y="827.0" type="line" smooth="yes"/>
      <point x="155.896484375" y="997.0"/>
      <point x="210.896484375" y="1067.0"/>
      <point x="297.27734375" y="1067.0" type="curve" smooth="yes"/>
      <point x="374.227539062" y="1067.0"/>
      <point x="407.518554688" y="991.0"/>
      <point x="374.518554688" y="846.0" type="curve"/>
      <point x="347.926757812" y="846.0" type="line"/>
      <point x="370.918945312" y="945.0"/>
      <point x="377.069335938" y="984.0"/>
      <point x="325.76953125" y="984.0" type="curve" smooth="yes"/>
      <point x="278.26953125" y="984.0"/>
      <point x="254.896484375" y="937.0"/>
      <point x="231.896484375" y="838.0" type="curve" smooth="yes"/>
      <point x="87.896484375" y="211.0" type="line" smooth="yes"/>
      <point x="64.896484375" y="112.0"/>
      <point x="66.25" y="64.0"/>
      <point x="113.75" y="64.0" type="curve" smooth="yes"/>
      <point x="165.049804688" y="64.0"/>
      <point x="176.922851562" y="105.0"/>
      <point x="199.916015625" y="204.0" type="curve"/>
    </contour>
    <contour>
      <point x="601.518554688" y="1445.0" type="curve" smooth="yes"/>
      <point x="268.530273438" y="5.0" type="line" smooth="yes"/>
      <point x="267.530273438" y="1.0"/>
      <point x="265.530273438" y="0.0"/>
      <point x="261.530273438" y="0.0" type="curve" smooth="yes"/>
      <point x="165.530273438" y="0.0" type="line" smooth="yes"/>
      <point x="161.530273438" y="0.0"/>
      <point x="160.530273438" y="1.0"/>
      <point x="161.530273438" y="5.0" type="curve" smooth="yes"/>
      <point x="185.530273438" y="110.0" type="line"/>
      <point x="181.915039062" y="126.0" type="line"/>
      <point x="486.890625" y="1445.0" type="line" smooth="yes"/>
      <point x="487.887695312" y="1449.0"/>
      <point x="489.798828125" y="1450.0"/>
      <point x="493.598632812" y="1450.0" type="curve" smooth="yes"/>
      <point x="596.518554688" y="1450.0" type="line" smooth="yes"/>
      <point x="600.518554688" y="1450.0"/>
      <point x="602.518554688" y="1449.0"/>
    </contour>
  </outline>
</glyph>
<glyph name="e" format="2">
  <advance height="960" width="393"/>
  <unicode hex="0065"/>
  <anchor x="84.0" y="0.0" name="bottom"/>
  <anchor x="119.0" y="30.0" name="ogonek"/>
  <anchor x="327.0" y="1050.0" name="top"/>
  <outline>
    <contour>
      <point x="343.348632812" y="410.0" type="curve" smooth="yes"/>
      <point x="323.348632812" y="334.0"/>
      <point x="305.348632812" y="273.0"/>
      <point x="288.348632812" y="210.0" type="curve" smooth="yes"/>
      <point x="242.348632812" y="35.0"/>
      <point x="182.348632812" y="-18.0"/>
      <point x="87.134765625" y="-18.0" type="curve" smooth="yes"/>
      <point x="-49.8955078125" y="-18.0"/>
      <point x="-61.89453125" y="69.0"/>
      <point x="-24.89453125" y="230.0" type="curve" smooth="yes"/>
      <point x="112.10546875" y="821.0" type="line" smooth="yes"/>
      <point x="148.10546875" y="977.0"/>
      <point x="192.10546875" y="1067.0"/>
      <point x="325.758789062" y="1067.0" type="curve" smooth="yes"/>
      <point x="454.348632812" y="1067.0"/>
      <point x="470.348632812" y="971.0"/>
      <point x="445.348632812" y="850.0" type="curve" smooth="yes"/>
      <point x="417.348632812" y="717.0"/>
      <point x="399.348632812" y="635.0"/>
      <point x="367.348632812" y="495.0" type="curve" smooth="yes"/>
      <point x="367.348632812" y="493.0"/>
      <point x="365.348632812" y="491.0"/>
      <point x="361.348632812" y="491.0" type="curve" smooth="yes"/>
      <point x="106.104492188" y="491.0" type="line"/>
      <point x="121.104492188" y="554.0" type="line"/>
      <point x="270.4375" y="554.0" type="line"/>
      <point x="355.5625" y="933.0"/>
      <point x="369.56640625" y="994.0"/>
      <point x="315.416992188" y="994.0" type="curve" smooth="yes"/>
      <point x="272.666992188" y="994.0"/>
      <point x="252.092773438" y="940.0"/>
      <point x="229.100585938" y="841.0" type="curve" smooth="yes"/>
      <point x="83.1044921875" y="209.0" type="line" smooth="yes"/>
      <point x="59.0810546875" y="103.0"/>
      <point x="56.650390625" y="57.0"/>
      <point x="98.4501953125" y="57.0" type="curve" smooth="yes"/>
      <point x="145.0" y="57.0"/>
      <point x="166.592773438" y="117.0"/>
      <point x="239.348632812" y="412.0" type="curve" smooth="yes"/>
      <point x="239.37109375" y="414.0"/>
      <point x="242.348632812" y="415.0"/>
      <point x="246.348632812" y="415.0" type="curve" smooth="yes"/>
      <point x="340.348632812" y="415.0" type="line" smooth="yes"/>
      <point x="344.348632812" y="415.0"/>
      <point x="344.348632812" y="413.0"/>
    </contour>
  </outline>
</glyph>
<glyph name="f" format="2">
  <advance height="960" width="265"/>
  <unicode hex="0066"/>
  <outline>
    <contour>
      <point x="342.86328125" y="974.0" type="curve" smooth="yes"/>
      <point x="156.86328125" y="974.0" type="line" smooth="yes"/>
      <point x="152.86328125" y="974.0"/>
      <point x="151.86328125" y="975.0"/>
      <point x="152.86328125" y="979.0" type="curve" smooth="yes"/>
      <point x="167.86328125" y="1045.0" type="line" smooth="yes"/>
      <point x="168.86328125" y="1049.0"/>
      <point x="169.86328125" y="1050.0"/>
      <point x="173.86328125" y="1050.0" type="curve" smooth="yes"/>
      <point x="359.86328125" y="1050.0" type="line" smooth="yes"/>
      <point x="363.86328125" y="1050.0"/>
      <point x="364.86328125" y="1049.0"/>
      <point x="363.86328125" y="1045.0" type="curve" smooth="yes"/>
      <point x="348.86328125" y="979.0" type="line" smooth="yes"/>
      <point x="347.86328125" y="975.0"/>
      <point x="346.86328125" y="974.0"/>
    </contour>
    <contour>
      <point x="270.86328125" y="1334.0" type="line" smooth="yes"/>
      <point x="294.86328125" y="1440.0"/>
      <point x="327.86328125" y="1477.0"/>
      <point x="453.86328125" y="1461.0" type="curve" smooth="yes"/>
      <point x="458.86328125" y="1460.0"/>
      <point x="459.86328125" y="1459.0"/>
      <point x="458.86328125" y="1455.0" type="curve" smooth="yes"/>
      <point x="443.86328125" y="1391.0" type="line" smooth="yes"/>
      <point x="442.86328125" y="1388.0"/>
      <point x="440.86328125" y="1385.0"/>
      <point x="434.86328125" y="1387.0" type="curve" smooth="yes"/>
      <point x="402.86328125" y="1395.0"/>
      <point x="392.86328125" y="1378.0"/>
      <point x="378.86328125" y="1318.0" type="curve" smooth="yes"/>
      <point x="-7.13671875" y="-355.0" type="line" smooth="yes"/>
      <point x="-8.13671875" y="-359.0"/>
      <point x="-10.13671875" y="-360.0"/>
      <point x="-14.13671875" y="-360.0" type="curve" smooth="yes"/>
      <point x="-115.13671875" y="-360.0" type="line" smooth="yes"/>
      <point x="-119.13671875" y="-360.0"/>
      <point x="-120.13671875" y="-359.0"/>
      <point x="-119.13671875" y="-355.0" type="curve" smooth="yes"/>
    </contour>
  </outline>
</glyph>
<glyph name="g" format="2">
  <advance height="960" width="366"/>
  <unicode hex="0067"/>
  <anchor x="263.0" y="1075.0" name="top"/>
  <outline>
    <contour>
      <point x="556.415039062" y="1255.0" type="curve" smooth="yes"/>
      <point x="504.415039062" y="1058.0"/>
      <point x="390.415039062" y="1017.0"/>
      <point x="330.11328125" y="1017.0" type="curve"/>
      <point x="318.932617188" y="1036.0" type="line"/>
      <point x="365.415039062" y="1036.0"/>
      <point x="403.415039062" y="1075.0"/>
      <point x="447.415039062" y="1256.0" type="curve" smooth="yes"/>
      <point x="448.415039062" y="1259.0"/>
      <point x="451.415039062" y="1260.0"/>
      <point x="454.415039062" y="1260.0" type="curve" smooth="yes"/>
      <point x="553.415039062" y="1260.0" type="line" smooth="yes"/>
      <point x="557.415039062" y="1260.0"/>
      <point x="557.415039062" y="1259.0"/>
    </contour>
    <contour>
      <point x="142.561523438" y="162.0" type="line" smooth="yes"/>
      <point x="222.415039062" y="94.0"/>
      <point x="229.415039062" y="29.0"/>
      <point x="198.415039062" y="-104.0" type="curve" smooth="yes"/>
      <point x="169.415039062" y="-228.0"/>
      <point x="111.415039062" y="-360.0"/>
      <point x="-10.06640625" y="-360.0" type="curve" smooth="yes"/>
      <point x="-12.943359375" y="-360.0" type="line" smooth="yes"/>
      <point x="-97.634765625" y="-360.0"/>
      <point x="-148.634765625" y="-284.0"/>
      <point x="-110.634765625" y="-120.0" type="curve" smooth="yes"/>
      <point x="-79.634765625" y="13.0"/>
      <point x="-19.634765625" y="101.0"/>
      <point x="67.1806640625" y="101.0" type="curve"/>
      <point x="83.3232421875" y="84.0" type="line"/>
      <point x="41.1162109375" y="83.0"/>
      <point x="15.365234375" y="-2.0"/>
      <point x="-4.634765625" y="-90.0" type="curve" smooth="yes"/>
      <point x="-33.634765625" y="-215.0"/>
      <point x="-29.4677734375" y="-282.0"/>
      <point x="1.220703125" y="-282.0" type="curve" smooth="yes"/>
      <point x="5.056640625" y="-282.0" type="line" smooth="yes"/>
      <point x="39.58203125" y="-282.0"/>
      <point x="74.4150390625" y="-211.0"/>
      <point x="98.4150390625" y="-108.0" type="curve" smooth="yes"/>
      <point x="116.415039062" y="-32.0"/>
      <point x="126.415039062" y="20.0"/>
      <point x="81.2158203125" y="64.0" type="curve" smooth="yes"/>
      <point x="64.1044921875" y="80.0" type="line" smooth="yes"/>
      <point x="29.365234375" y="113.0"/>
      <point x="-17.634765625" y="173.0"/>
      <point x="-1.634765625" y="242.0" type="curve" smooth="yes"/>
      <point x="14.365234375" y="310.0"/>
      <point x="75.365234375" y="345.0"/>
      <point x="170.186523438" y="345.0" type="curve"/>
      <point x="153.608398438" y="316.0" type="line"/>
      <point x="124.837890625" y="316.0"/>
      <point x="84.365234375" y="317.0"/>
      <point x="76.365234375" y="282.0" type="curve" smooth="yes"/>
      <point x="69.365234375" y="253.0"/>
      <point x="84.552734375" y="214.0"/>
      <point x="109.279296875" y="192.0" type="curve" smooth="yes"/>
    </contour>
    <contour>
      <point x="225.415039062" y="506.0" type="curve" smooth="yes"/>
      <point x="307.415039062" y="860.0" type="line" smooth="yes"/>
      <point x="325.415039062" y="937.0"/>
      <point x="337.470703125" y="996.0"/>
      <point x="305.170898438" y="996.0" type="curve" smooth="yes"/>
      <point x="266.220703125" y="996.0"/>
      <point x="249.35546875" y="934.0"/>
      <point x="232.3515625" y="860.0" type="curve" smooth="yes"/>
      <point x="150.365234375" y="506.0" type="line" smooth="yes"/>
      <point x="133.360351562" y="432.0"/>
      <point x="120.553710938" y="370.0"/>
      <point x="159.874023438" y="370.0" type="curve" smooth="yes"/>
      <point x="192.48046875" y="370.0"/>
      <point x="207.415039062" y="428.0"/>
    </contour>
    <contour>
      <point x="337.415039062" y="529.0" type="line" smooth="yes"/>
      <point x="308.415039062" y="402.0"/>
      <point x="275.415039062" y="297.0"/>
      <point x="159.182617188" y="297.0" type="curve" smooth="yes"/>
      <point x="44.365234375" y="297.0"/>
      <point x="19.365234375" y="402.0"/>
      <point x="48.365234375" y="529.0" type="curve" smooth="yes"/>
      <point x="120.365234375" y="842.0" type="line" smooth="yes"/>
      <point x="149.365234375" y="969.0"/>
      <point x="181.365234375" y="1067.0"/>
      <point x="298.390625" y="1067.0" type="curve" smooth="yes"/>
      <point x="412.415039062" y="1067.0"/>
      <point x="438.415039062" y="969.0"/>
      <point x="409.415039062" y="842.0" type="curve" smooth="yes"/>
    </contour>
  </outline>
</glyph>
<glyph name="h" format="2">
  <advance height="960" width="413"/>
  <unicode hex="0068"/>
  <anchor x="85.0" y="0.0" name="bottom"/>
  <anchor x="334.0" y="1450.0" name="top"/>
  <outline>
    <contour>
      <point x="284.0078125" y="1450.0" type="curve" smooth="yes"/>
      <point x="387.0078125" y="1450.0" type="line" smooth="yes"/>
      <point x="391.0078125" y="1450.0"/>
      <point x="392.9765625" y="1449.0"/>
      <point x="391.98046875" y="1445.0" type="curve" smooth="yes"/>
      <point x="59.0078125" y="5.0" type="line" smooth="yes"/>
      <point x="58.0078125" y="1.0"/>
      <point x="55.0078125" y="0.0"/>
      <point x="52.0078125" y="0.0" type="curve" smooth="yes"/>
      <point x="-50.9921875" y="0.0" type="line" smooth="yes"/>
      <point x="-54.9921875" y="0.0"/>
      <point x="-56.9921875" y="1.0"/>
      <point x="-55.9921875" y="5.0" type="curve" smooth="yes"/>
      <point x="277.0078125" y="1445.0" type="line" smooth="yes"/>
      <point x="278.0078125" y="1449.0"/>
      <point x="280.0078125" y="1450.0"/>
    </contour>
    <contour>
      <point x="243.0078125" y="877.0" type="line"/>
      <point x="269.0078125" y="988.0"/>
      <point x="298.0078125" y="1067.0"/>
      <point x="379.06640625" y="1067.0" type="curve" smooth="yes"/>
      <point x="456.807617188" y="1067.0"/>
      <point x="483.807617188" y="1008.0"/>
      <point x="458.807617188" y="901.0" type="curve" smooth="yes"/>
      <point x="251.807617188" y="5.0" type="line" smooth="yes"/>
      <point x="250.807617188" y="1.0"/>
      <point x="250.807617188" y="0.0"/>
      <point x="246.807617188" y="0.0" type="curve" smooth="yes"/>
      <point x="141.807617188" y="0.0" type="line" smooth="yes"/>
      <point x="137.807617188" y="0.0"/>
      <point x="137.811523438" y="1.0"/>
      <point x="138.807617188" y="5.0" type="curve" smooth="yes"/>
      <point x="344.81640625" y="898.0" type="line" smooth="yes"/>
      <point x="358.807617188" y="957.0"/>
      <point x="359.177734375" y="990.0"/>
      <point x="328.778320312" y="990.0" type="curve" smooth="yes"/>
      <point x="294.578125" y="990.0"/>
      <point x="273.0078125" y="933.0"/>
      <point x="249.0078125" y="828.0" type="curve"/>
    </contour>
  </outline>
</glyph>
<glyph name="i" format="2">
  <advance height="960" width="224"/>
  <unicode hex="0069"/>
  <anchor x="-7.0" y="0.0" name="bottom"/>
  <anchor x="-7.0" y="0.0" name="ogonek"/>
  <outline>
    <contour>
      <point x="374.012695312" y="1436.0" type="curve" smooth="yes"/>
      <point x="321.012695312" y="1209.0" type="line" smooth="yes"/>
      <point x="320.012695312" y="1205.0"/>
      <point x="319.012695312" y="1204.0"/>
      <point x="315.012695312" y="1204.0" type="curve" smooth="yes"/>
      <point x="240.012695312" y="1204.0" type="line" smooth="yes"/>
      <point x="236.012695312" y="1204.0"/>
      <point x="235.012695312" y="1205.0"/>
      <point x="236.012695312" y="1209.0" type="curve" smooth="yes"/>
      <point x="289.012695312" y="1436.0" type="line" smooth="yes"/>
      <point x="290.012695312" y="1440.0"/>
      <point x="291.012695312" y="1441.0"/>
      <point x="295.012695312" y="1441.0" type="curve" smooth="yes"/>
      <point x="370.012695312" y="1441.0" type="line" smooth="yes"/>
      <point x="374.012695312" y="1441.0"/>
      <point x="375.012695312" y="1440.0"/>
    </contour>
    <contour>
      <point x="298.012695312" y="1045.0" type="curve" smooth="yes"/>
      <point x="58.0126953125" y="5.0" type="line" smooth="yes"/>
      <point x="57.0126953125" y="1.0"/>
      <point x="56.0126953125" y="0.0"/>
      <point x="52.0126953125" y="0.0" type="curve" smooth="yes"/>
      <point x="-51.9873046875" y="0.0" type="line" smooth="yes"/>
      <point x="-55.9873046875" y="0.0"/>
      <point x="-56.9873046875" y="1.0"/>
      <point x="-55.9873046875" y="5.0" type="curve" smooth="yes"/>
      <point x="184.012695312" y="1045.0" type="line" smooth="yes"/>
      <point x="185.012695312" y="1049.0"/>
      <point x="186.012695312" y="1050.0"/>
      <point x="190.012695312" y="1050.0" type="curve" smooth="yes"/>
      <point x="294.012695312" y="1050.0" type="line" smooth="yes"/>
      <point x="298.012695312" y="1050.0"/>
      <point x="299.012695312" y="1049.0"/>
    </contour>
  </outline>
</glyph>
<glyph name="j" format="2">
  <advance height="960" width="224"/>
  <unicode hex="006A"/>
  <outline>
    <contour>
      <point x="49.0595703125" y="-59.0" type="line" smooth="yes"/>
      <point x="0.0595703125" y="-271.0"/>
      <point x="-46.9404296875" y="-371.0"/>
      <point x="-145.940429688" y="-371.0" type="curve" smooth="yes"/>
      <point x="-264.940429688" y="-371.0"/>
      <point x="-225.940429688" y="-200.0"/>
      <point x="-190.940429688" y="-107.0" type="curve" smooth="yes"/>
      <point x="-188.940429688" y="-102.0"/>
      <point x="-185.940429688" y="-100.0"/>
      <point x="-178.940429688" y="-100.0" type="curve" smooth="yes"/>
      <point x="-132.940429688" y="-100.0" type="line" smooth="yes"/>
      <point x="-125.940429688" y="-100.0"/>
      <point x="-122.940429688" y="-103.0"/>
      <point x="-124.940429688" y="-107.0" type="curve" smooth="yes"/>
      <point x="-160.940429688" y="-201.0"/>
      <point x="-169.940429688" y="-284.0"/>
      <point x="-149.940429688" y="-284.0" type="curve" smooth="yes"/>
      <point x="-131.940429688" y="-284.0"/>
      <point x="-93.9404296875" y="-185.0"/>
      <point x="-64.9404296875" y="-60.0" type="curve" smooth="yes"/>
      <point x="189.059570312" y="1040.0" type="line" smooth="yes"/>
      <point x="191.059570312" y="1047.0"/>
      <point x="194.059570312" y="1050.0"/>
      <point x="201.059570312" y="1050.0" type="curve" smooth="yes"/>
      <point x="295.059570312" y="1050.0" type="line" smooth="yes"/>
      <point x="302.059570312" y="1050.0"/>
      <point x="305.059570312" y="1047.0"/>
      <point x="303.059570312" y="1040.0" type="curve" smooth="yes"/>
    </contour>
    <contour>
      <point x="380.059570312" y="1436.0" type="curve" smooth="yes"/>
      <point x="327.059570312" y="1209.0" type="line" smooth="yes"/>
      <point x="326.059570312" y="1205.0"/>
      <point x="325.059570312" y="1204.0"/>
      <point x="321.059570312" y="1204.0" type="curve" smooth="yes"/>
      <point x="246.059570312" y="1204.0" type="line" smooth="yes"/>
      <point x="242.059570312" y="1204.0"/>
      <point x="241.059570312" y="1205.0"/>
      <point x="242.059570312" y="1209.0" type="curve" smooth="yes"/>
      <point x="295.059570312" y="1436.0" type="line" smooth="yes"/>
      <point x="296.059570312" y="1440.0"/>
      <point x="297.059570312" y="1441.0"/>
      <point x="301.059570312" y="1441.0" type="curve" smooth="yes"/>
      <point x="376.059570312" y="1441.0" type="line" smooth="yes"/>
      <point x="380.059570312" y="1441.0"/>
      <point x="381.059570312" y="1440.0"/>
    </contour>
  </outline>
</glyph>
<glyph name="k" format="2">
  <advance height="960" width="404"/>
  <unicode hex="006B"/>
  <outline>
    <contour>
      <point x="283.0078125" y="1450.0" type="curve" smooth="yes"/>
      <point x="387.0078125" y="1450.0" type="line" smooth="yes"/>
      <point x="391.0078125" y="1450.0"/>
      <point x="391.9765625" y="1449.0"/>
      <point x="390.98046875" y="1445.0" type="curve" smooth="yes"/>
      <point x="58.0078125" y="5.0" type="line" smooth="yes"/>
      <point x="57.0078125" y="1.0"/>
      <point x="55.0078125" y="0.0"/>
      <point x="52.0078125" y="0.0" type="curve" smooth="yes"/>
      <point x="-51.9921875" y="0.0" type="line" smooth="yes"/>
      <point x="-55.9921875" y="0.0"/>
      <point x="-56.9921875" y="1.0"/>
      <point x="-55.9921875" y="5.0" type="curve" smooth="yes"/>
      <point x="277.0078125" y="1445.0" type="line" smooth="yes"/>
      <point x="278.0078125" y="1449.0"/>
      <point x="279.0078125" y="1450.0"/>
    </contour>
    <contour>
      <point x="111.0078125" y="417.0" type="line"/>
      <point x="414.86328125" y="1045.0" type="line" smooth="yes"/>
      <point x="416.809570312" y="1049.0"/>
      <point x="419.708007812" y="1050.0"/>
      <point x="423.708007812" y="1050.0" type="curve" smooth="yes"/>
      <point x="521.708007812" y="1050.0" type="line" smooth="yes"/>
      <point x="525.708007812" y="1050.0"/>
      <point x="527.708007812" y="1050.0"/>
      <point x="524.708007812" y="1045.0" type="curve" smooth="yes"/>
      <point x="127.0078125" y="352.0" type="line"/>
    </contour>
    <contour>
      <point x="228.21875" y="595.0" type="line"/>
      <point x="312.288085938" y="718.0" type="line"/>
      <point x="300.708007812" y="5.0" type="line" smooth="yes"/>
      <point x="300.708007812" y="1.0"/>
      <point x="300.708007812" y="0.0"/>
      <point x="297.708007812" y="0.0" type="curve" smooth="yes"/>
      <point x="184.708007812" y="0.0" type="line" smooth="yes"/>
      <point x="179.708007812" y="0.0"/>
      <point x="177.708007812" y="1.0"/>
      <point x="177.708007812" y="5.0" type="curve" smooth="yes"/>
    </contour>
  </outline>
</glyph>
<glyph name="l" format="2">
  <advance height="960" width="224"/>
  <unicode hex="006C"/>
  <outline>
    <contour>
      <point x="283.0078125" y="1450.0" type="curve" smooth="yes"/>
      <point x="387.0078125" y="1450.0" type="line" smooth="yes"/>
      <point x="391.0078125" y="1450.0"/>
      <point x="392.0078125" y="1449.0"/>
      <point x="391.0078125" y="1445.0" type="curve" smooth="yes"/>
      <point x="58.0078125" y="5.0" type="line" smooth="yes"/>
      <point x="57.0078125" y="1.0"/>
      <point x="55.0078125" y="0.0"/>
      <point x="52.0078125" y="0.0" type="curve" smooth="yes"/>
      <point x="-51.9921875" y="0.0" type="line" smooth="yes"/>
      <point x="-55.9921875" y="0.0"/>
      <point x="-56.9921875" y="1.0"/>
      <point x="-55.9921875" y="5.0" type="curve" smooth="yes"/>
      <point x="277.0078125" y="1445.0" type="line" smooth="yes"/>
      <point x="278.0078125" y="1449.0"/>
      <point x="279.0078125" y="1450.0"/>
    </contour>
  </outline>
</glyph>
<glyph name="m" format="2">
  <advance height="960" width="552"/>
  <unicode hex="006D"/>
  <outline>
    <contour>
      <point x="397.462890625" y="877.0" type="line"/>
      <point x="423.462890625" y="988.0"/>
      <point x="455.462890625" y="1067.0"/>
      <point x="538.11328125" y="1067.0" type="curve" smooth="yes"/>
      <point x="616.11328125" y="1067.0"/>
      <point x="631.11328125" y="1008.0"/>
      <point x="606.11328125" y="901.0" type="curve" smooth="yes"/>
      <point x="399.11328125" y="5.0" type="line" smooth="yes"/>
      <point x="398.11328125" y="1.0"/>
      <point x="396.11328125" y="0.0"/>
      <point x="392.11328125" y="0.0" type="curve" smooth="yes"/>
      <point x="290.11328125" y="0.0" type="line" smooth="yes"/>
      <point x="286.11328125" y="0.0"/>
      <point x="285.12109375" y="1.0"/>
      <point x="286.11328125" y="5.0" type="curve" smooth="yes"/>
      <point x="493.11328125" y="901.0" type="line" smooth="yes"/>
      <point x="506.11328125" y="957.0"/>
      <point x="506.483398438" y="990.0"/>
      <point x="484.6328125" y="990.0" type="curve" smooth="yes"/>
      <point x="462.783203125" y="990.0"/>
      <point x="437.459960938" y="936.0"/>
      <point x="413.447265625" y="831.0" type="curve"/>
    </contour>
    <contour>
      <point x="181.462890625" y="1050.0" type="curve" smooth="yes"/>
      <point x="270.462890625" y="1050.0" type="line" smooth="yes"/>
      <point x="274.462890625" y="1050.0"/>
      <point x="275.462890625" y="1049.0"/>
      <point x="274.462890625" y="1045.0" type="curve" smooth="yes"/>
      <point x="250.462890625" y="941.0" type="line"/>
      <point x="261.462890625" y="927.0" type="line"/>
      <point x="48.705078125" y="5.0" type="line" smooth="yes"/>
      <point x="47.701171875" y="1.0"/>
      <point x="46.6630859375" y="0.0"/>
      <point x="42.462890625" y="0.0" type="curve" smooth="yes"/>
      <point x="-60.537109375" y="0.0" type="line" smooth="yes"/>
      <point x="-64.537109375" y="0.0"/>
      <point x="-65.537109375" y="1.0"/>
      <point x="-64.537109375" y="5.0" type="curve" smooth="yes"/>
      <point x="175.462890625" y="1045.0" type="line" smooth="yes"/>
      <point x="176.462890625" y="1049.0"/>
      <point x="177.462890625" y="1050.0"/>
    </contour>
    <contour>
      <point x="233.462890625" y="877.0" type="line"/>
      <point x="259.462890625" y="988.0"/>
      <point x="284.462890625" y="1067.0"/>
      <point x="364.462890625" y="1067.0" type="curve" smooth="yes"/>
      <point x="453.462890625" y="1067.0"/>
      <point x="454.440429688" y="1008.0"/>
      <point x="429.456054688" y="901.0" type="curve" smooth="yes"/>
      <point x="226.0546875" y="5.0" type="line" smooth="yes"/>
      <point x="225.0546875" y="1.0"/>
      <point x="224.0546875" y="0.0"/>
      <point x="220.0546875" y="0.0" type="curve" smooth="yes"/>
      <point x="123.0546875" y="0.0" type="line" smooth="yes"/>
      <point x="119.0546875" y="0.0"/>
      <point x="118.051757812" y="1.0"/>
      <point x="119.0546875" y="5.0" type="curve" smooth="yes"/>
      <point x="322.462890625" y="901.0" type="line" smooth="yes"/>
      <point x="335.462890625" y="957.0"/>
      <point x="333.462890625" y="990.0"/>
      <point x="311.462890625" y="990.0" type="curve" smooth="yes"/>
      <point x="288.462890625" y="990.0"/>
      <point x="263.462890625" y="936.0"/>
      <point x="239.462890625" y="831.0" type="curve"/>
    </contour>
  </outline>
</glyph>
<glyph name="n" format="2">
  <advance height="960" width="400"/>
  <unicode hex="006E"/>
  <anchor x="85.0" y="0.0" name="bottom"/>
  <anchor x="327.0" y="1050.0" name="top"/>
  <outline>
    <contour>
      <point x="182.462890625" y="1050.0" type="curve" smooth="yes"/>
      <point x="272.462890625" y="1050.0" type="line" smooth="yes"/>
      <point x="276.462890625" y="1050.0"/>
      <point x="276.462890625" y="1049.0"/>
      <point x="275.462890625" y="1045.0" type="curve" smooth="yes"/>
      <point x="250.462890625" y="934.0" type="line"/>
      <point x="262.462890625" y="921.0" type="line"/>
      <point x="50.462890625" y="5.0" type="line" smooth="yes"/>
      <point x="49.462890625" y="1.0"/>
      <point x="47.462890625" y="0.0"/>
      <point x="43.462890625" y="0.0" type="curve" smooth="yes"/>
      <point x="-59.537109375" y="0.0" type="line" smooth="yes"/>
      <point x="-63.537109375" y="0.0"/>
      <point x="-65.537109375" y="1.0"/>
      <point x="-64.537109375" y="5.0" type="curve" smooth="yes"/>
      <point x="175.462890625" y="1045.0" type="line" smooth="yes"/>
      <point x="176.462890625" y="1049.0"/>
      <point x="178.462890625" y="1050.0"/>
    </contour>
    <contour>
      <point x="234.462890625" y="877.0" type="line"/>
      <point x="260.462890625" y="988.0"/>
      <point x="289.462890625" y="1067.0"/>
      <point x="374.462890625" y="1067.0" type="curve" smooth="yes"/>
      <point x="452.462890625" y="1067.0"/>
      <point x="479.462890625" y="1008.0"/>
      <point x="454.462890625" y="901.0" type="curve" smooth="yes"/>
      <point x="247.462890625" y="5.0" type="line" smooth="yes"/>
      <point x="246.462890625" y="1.0"/>
      <point x="246.462890625" y="0.0"/>
      <point x="242.462890625" y="0.0" type="curve" smooth="yes"/>
      <point x="137.462890625" y="0.0" type="line" smooth="yes"/>
      <point x="133.462890625" y="0.0"/>
      <point x="133.462890625" y="1.0"/>
      <point x="134.462890625" y="5.0" type="curve" smooth="yes"/>
      <point x="340.462890625" y="898.0" type="line" smooth="yes"/>
      <point x="354.462890625" y="957.0"/>
      <point x="354.462890625" y="990.0"/>
      <point x="322.462890625" y="990.0" type="curve" smooth="yes"/>
      <point x="286.462890625" y="990.0"/>
      <point x="264.462890625" y="933.0"/>
      <point x="240.462890625" y="828.0" type="curve"/>
    </contour>
  </outline>
</glyph>
<glyph name="p" format="2">
  <advance height="960" width="426"/>
  <unicode hex="0070"/>
  <outline>
    <contour>
      <point x="217.462890625" y="846.0" type="line"/>
      <point x="250.462890625" y="991.0"/>
      <point x="300.239257812" y="1068.0"/>
      <point x="377.189453125" y="1068.0" type="curve" smooth="yes"/>
      <point x="462.458007812" y="1068.0"/>
      <point x="506.458007812" y="996.0"/>
      <point x="467.458007812" y="826.0" type="curve" smooth="yes"/>
      <point x="327.458007812" y="223.0" type="line" smooth="yes"/>
      <point x="288.458007812" y="53.0"/>
      <point x="231.458007812" y="-17.0"/>
      <point x="145.21484375" y="-17.0" type="curve" smooth="yes"/>
      <point x="68.2646484375" y="-17.0"/>
      <point x="36.462890625" y="60.0"/>
      <point x="69.462890625" y="205.0" type="curve"/>
      <point x="96.462890625" y="205.0" type="line"/>
      <point x="73.462890625" y="106.0"/>
      <point x="68.2607421875" y="65.0"/>
      <point x="119.561523438" y="65.0" type="curve" smooth="yes"/>
      <point x="167.061523438" y="65.0"/>
      <point x="189.46484375" y="113.0"/>
      <point x="212.458007812" y="212.0" type="curve" smooth="yes"/>
      <point x="357.458007812" y="839.0" type="line" smooth="yes"/>
      <point x="380.458007812" y="938.0"/>
      <point x="379.081054688" y="985.0"/>
      <point x="331.581054688" y="985.0" type="curve" smooth="yes"/>
      <point x="280.28125" y="985.0"/>
      <point x="267.462890625" y="945.0"/>
      <point x="244.462890625" y="846.0" type="curve"/>
    </contour>
    <contour>
      <point x="-147.537109375" y="-355.0" type="curve" smooth="yes"/>
      <point x="175.462890625" y="1045.0" type="line" smooth="yes"/>
      <point x="176.462890625" y="1049.0"/>
      <point x="178.462890625" y="1050.0"/>
      <point x="182.462890625" y="1050.0" type="curve" smooth="yes"/>
      <point x="278.462890625" y="1050.0" type="line" smooth="yes"/>
      <point x="282.462890625" y="1050.0"/>
      <point x="283.462890625" y="1049.0"/>
      <point x="282.462890625" y="1045.0" type="curve" smooth="yes"/>
      <point x="258.462890625" y="938.0" type="line"/>
      <point x="262.462890625" y="924.0" type="line"/>
      <point x="-32.537109375" y="-355.0" type="line" smooth="yes"/>
      <point x="-33.537109375" y="-359.0"/>
      <point x="-35.537109375" y="-360.0"/>
      <point x="-39.537109375" y="-360.0" type="curve" smooth="yes"/>
      <point x="-142.537109375" y="-360.0" type="line" smooth="yes"/>
      <point x="-146.537109375" y="-360.0"/>
      <point x="-148.537109375" y="-359.0"/>
    </contour>
  </outline>
</glyph>
<glyph name="q" format="2">
  <advance height="960" width="426"/>
  <unicode hex="0071"/>
  <outline>
    <contour>
      <point x="179.928710938" y="-360.0" type="curve" smooth="yes"/>
      <point x="75.9287109375" y="-360.0" type="line" smooth="yes"/>
      <point x="71.9287109375" y="-360.0"/>
      <point x="70.9326171875" y="-359.0"/>
      <point x="71.9287109375" y="-355.0" type="curve" smooth="yes"/>
      <point x="371.928710938" y="944.0" type="line"/>
      <point x="480.928710938" y="1053.0" type="line" smooth="yes"/>
      <point x="484.928710938" y="1057.0"/>
      <point x="486.928710938" y="1059.0"/>
      <point x="490.928710938" y="1059.0" type="curve" smooth="yes"/>
      <point x="506.928710938" y="1059.0" type="line" smooth="yes"/>
      <point x="510.928710938" y="1059.0"/>
      <point x="511.928710938" y="1057.0"/>
      <point x="510.928710938" y="1053.0" type="curve" smooth="yes"/>
      <point x="185.928710938" y="-355.0" type="line" smooth="yes"/>
      <point x="184.928710938" y="-359.0"/>
      <point x="183.928710938" y="-360.0"/>
    </contour>
    <contour>
      <point x="224.928710938" y="195.0" type="line"/>
      <point x="191.928710938" y="50.0"/>
      <point x="142.2265625" y="-26.0"/>
      <point x="60.5263671875" y="-26.0" type="curve" smooth="yes"/>
      <point x="-28.080078125" y="-26.0"/>
      <point x="-64.080078125" y="44.0"/>
      <point x="-25.080078125" y="214.0" type="curve" smooth="yes"/>
      <point x="114.919921875" y="817.0" type="line" smooth="yes"/>
      <point x="151.919921875" y="977.0"/>
      <point x="211.919921875" y="1059.0"/>
      <point x="306.750976562" y="1059.0" type="curve" smooth="yes"/>
      <point x="394.151367188" y="1059.0"/>
      <point x="432.928710938" y="987.0"/>
      <point x="402.928710938" y="859.0" type="curve"/>
      <point x="348.942382812" y="846.0" type="line"/>
      <point x="371.958984375" y="947.0"/>
      <point x="364.705078125" y="977.0"/>
      <point x="325.754882812" y="977.0" type="curve" smooth="yes"/>
      <point x="283.004882812" y="977.0"/>
      <point x="254.900390625" y="929.0"/>
      <point x="231.908203125" y="830.0" type="curve" smooth="yes"/>
      <point x="86.919921875" y="203.0" type="line" smooth="yes"/>
      <point x="63.919921875" y="104.0"/>
      <point x="70.03515625" y="57.0"/>
      <point x="112.78515625" y="57.0" type="curve" smooth="yes"/>
      <point x="160.28515625" y="57.0"/>
      <point x="175.946289062" y="97.0"/>
      <point x="198.939453125" y="196.0" type="curve"/>
    </contour>
  </outline>
</glyph>
<glyph name="r" format="2">
  <advance height="960" width="357"/>
  <unicode hex="0072"/>
  <anchor x="7.0" y="0.0" name="bottom"/>
  <anchor x="325.0" y="1050.0" name="top"/>
  <outline>
    <contour>
      <point x="221.985351562" y="713.0" type="curve"/>
      <point x="215.012695312" y="770.0" type="line"/>
      <point x="252.012695312" y="930.0"/>
      <point x="295.012695312" y="1060.0"/>
      <point x="384.2890625" y="1060.0" type="curve" smooth="yes"/>
      <point x="473.2890625" y="1060.0"/>
      <point x="505.2890625" y="933.0"/>
      <point x="331.2890625" y="670.0" type="curve" smooth="yes"/>
      <point x="328.2890625" y="666.0"/>
      <point x="326.2890625" y="663.0"/>
      <point x="319.2890625" y="663.0" type="curve" smooth="yes"/>
      <point x="271.2890625" y="663.0" type="line" smooth="yes"/>
      <point x="264.2890625" y="663.0"/>
      <point x="261.342773438" y="666.0"/>
      <point x="263.2890625" y="670.0" type="curve" smooth="yes"/>
      <point x="364.2890625" y="904.0"/>
      <point x="366.2890625" y="977.0"/>
      <point x="339.2890625" y="977.0" type="curve" smooth="yes"/>
      <point x="312.432617188" y="977.0"/>
      <point x="255.009765625" y="858.0"/>
    </contour>
    <contour>
      <point x="190.012695312" y="1050.0" type="curve" smooth="yes"/>
      <point x="285.012695312" y="1050.0" type="line" smooth="yes"/>
      <point x="289.012695312" y="1050.0"/>
      <point x="290.012695312" y="1049.0"/>
      <point x="289.012695312" y="1045.0" type="curve" smooth="yes"/>
      <point x="226.012695312" y="769.0" type="line"/>
      <point x="233.012695312" y="764.0" type="line"/>
      <point x="58.0126953125" y="5.0" type="line" smooth="yes"/>
      <point x="57.0126953125" y="1.0"/>
      <point x="56.0126953125" y="0.0"/>
      <point x="52.0126953125" y="0.0" type="curve" smooth="yes"/>
      <point x="-51.9873046875" y="0.0" type="line" smooth="yes"/>
      <point x="-55.9873046875" y="0.0"/>
      <point x="-56.9873046875" y="1.0"/>
      <point x="-55.9873046875" y="5.0" type="curve" smooth="yes"/>
      <point x="184.012695312" y="1045.0" type="line" smooth="yes"/>
      <point x="185.012695312" y="1049.0"/>
      <point x="186.012695312" y="1050.0"/>
    </contour>
  </outline>
</glyph>
<glyph name="s" format="2">
  <advance height="960" width="354"/>
  <unicode hex="0073"/>
  <anchor x="74.0" y="0.0" name="bottom"/>
  <anchor x="302.0" y="1050.0" name="top"/>
  <outline>
    <contour>
      <point x="58.5166015625" y="399.0" type="curve" smooth="yes"/>
      <point x="134.390625" y="399.0" type="line" smooth="yes"/>
      <point x="138.190429688" y="399.0"/>
      <point x="141.526367188" y="397.254882812"/>
      <point x="139.083007812" y="394.0" type="curve" smooth="yes"/>
      <point x="98.5595703125" y="340.0"/>
      <point x="70.5166015625" y="301.0"/>
      <point x="54.5166015625" y="228.0" type="curve" smooth="yes"/>
      <point x="28.408203125" y="106.0"/>
      <point x="30.8427734375" y="70.0"/>
      <point x="71.6923828125" y="70.0" type="curve" smooth="yes"/>
      <point x="104.942382812" y="70.0"/>
      <point x="137.862304688" y="123.0"/>
      <point x="159.862304688" y="219.0" type="curve" smooth="yes"/>
      <point x="211.26953125" y="433.0"/>
      <point x="52.5166015625" y="548.0"/>
      <point x="120.516601562" y="842.0" type="curve" smooth="yes"/>
      <point x="162.516601562" y="1024.0"/>
      <point x="224.516601562" y="1067.0"/>
      <point x="308.787109375" y="1067.0" type="curve" smooth="yes"/>
      <point x="396.26953125" y="1067.0"/>
      <point x="434.26953125" y="998.0"/>
      <point x="401.26953125" y="846.0" type="curve" smooth="yes"/>
      <point x="389.26953125" y="789.0"/>
      <point x="369.26953125" y="740.0"/>
      <point x="332.26953125" y="666.0" type="curve" smooth="yes"/>
      <point x="330.42578125" y="662.3125"/>
      <point x="331.26953125" y="661.0"/>
      <point x="327.26953125" y="661.0" type="curve" smooth="yes"/>
      <point x="250.26953125" y="661.0" type="line" smooth="yes"/>
      <point x="246.26953125" y="661.0"/>
      <point x="243.3203125" y="663.3984375"/>
      <point x="245.26953125" y="667.0" type="curve" smooth="yes"/>
      <point x="279.26953125" y="728.0"/>
      <point x="297.26953125" y="766.0"/>
      <point x="311.26953125" y="827.0" type="curve" smooth="yes"/>
      <point x="337.26953125" y="942.0"/>
      <point x="337.26953125" y="982.0"/>
      <point x="301.15625" y="982.0" type="curve" smooth="yes"/>
      <point x="275.505859375" y="982.0"/>
      <point x="249.509765625" y="952.0"/>
      <point x="223.516601562" y="840.0" type="curve" smooth="yes"/>
      <point x="164.516601562" y="586.0"/>
      <point x="327.26953125" y="472.0"/>
      <point x="268.862304688" y="228.0" type="curve" smooth="yes"/>
      <point x="232.862304688" y="72.0"/>
      <point x="180.862304688" y="-18.0"/>
      <point x="76.376953125" y="-18.0" type="curve" smooth="yes"/>
      <point x="-23.4833984375" y="-18.0"/>
      <point x="-71.4833984375" y="39.0"/>
      <point x="-39.4833984375" y="200.0" type="curve" smooth="yes"/>
      <point x="-22.4833984375" y="283.0"/>
      <point x="11.5166015625" y="343.0"/>
      <point x="53.5166015625" y="395.0" type="curve" smooth="yes"/>
      <point x="56.107421875" y="398.208007812"/>
      <point x="54.5166015625" y="399.0"/>
    </contour>
  </outline>
</glyph>
<glyph name="t" format="2">
  <advance height="960" width="279"/>
  <unicode hex="0074"/>
  <anchor x="47.0" y="0.0" name="bottom"/>
  <outline>
    <contour>
      <point x="353.913085938" y="974.0" type="curve" smooth="yes"/>
      <point x="155.913085938" y="974.0" type="line" smooth="yes"/>
      <point x="151.913085938" y="974.0"/>
      <point x="150.913085938" y="975.0"/>
      <point x="151.913085938" y="979.0" type="curve" smooth="yes"/>
      <point x="166.913085938" y="1045.0" type="line" smooth="yes"/>
      <point x="167.913085938" y="1049.0"/>
      <point x="168.913085938" y="1050.0"/>
      <point x="172.913085938" y="1050.0" type="curve" smooth="yes"/>
      <point x="370.913085938" y="1050.0" type="line" smooth="yes"/>
      <point x="374.913085938" y="1050.0"/>
      <point x="375.913085938" y="1049.0"/>
      <point x="374.913085938" y="1045.0" type="curve" smooth="yes"/>
      <point x="359.913085938" y="979.0" type="line" smooth="yes"/>
      <point x="358.913085938" y="975.0"/>
      <point x="357.913085938" y="974.0"/>
    </contour>
    <contour>
      <point x="152.913085938" y="72.0" type="curve" smooth="yes"/>
      <point x="136.913085938" y="5.0" type="line" smooth="yes"/>
      <point x="135.913085938" y="1.0"/>
      <point x="135.913085938" y="0.0"/>
      <point x="131.913085938" y="-1.0" type="curve" smooth="yes"/>
      <point x="-8.0869140625" y="-21.0"/>
      <point x="-28.0869140625" y="22.0"/>
      <point x="-3.0869140625" y="132.0" type="curve" smooth="yes"/>
      <point x="288.913085938" y="1395.0" type="line" smooth="yes"/>
      <point x="289.913085938" y="1399.0"/>
      <point x="290.913085938" y="1400.0"/>
      <point x="294.913085938" y="1400.0" type="curve" smooth="yes"/>
      <point x="395.913085938" y="1400.0" type="line" smooth="yes"/>
      <point x="399.913085938" y="1400.0"/>
      <point x="400.913085938" y="1399.0"/>
      <point x="399.913085938" y="1395.0" type="curve" smooth="yes"/>
      <point x="110.913085938" y="145.0" type="line" smooth="yes"/>
      <point x="95.9130859375" y="82.0"/>
      <point x="107.913085938" y="67.0"/>
      <point x="149.913085938" y="76.0" type="curve" smooth="yes"/>
      <point x="152.913085938" y="77.0"/>
      <point x="153.913085938" y="75.0"/>
    </contour>
  </outline>
</glyph>
<glyph name="u" format="2">
  <advance height="960" width="396"/>
  <unicode hex="0075"/>
  <anchor x="81.0" y="0.0" name="bottom"/>
  <anchor x="174.0" y="0.0" name="ogonek"/>
  <anchor x="323.0" y="1050.0" name="top"/>
  <outline>
    <contour>
      <point x="233.459960938" y="0.0" type="curve" smooth="yes"/>
      <point x="142.459960938" y="0.0" type="line" smooth="yes"/>
      <point x="138.459960938" y="0.0"/>
      <point x="137.459960938" y="1.0"/>
      <point x="138.459960938" y="5.0" type="curve" smooth="yes"/>
      <point x="164.459960938" y="116.0" type="line"/>
      <point x="154.459960938" y="129.0" type="line"/>
      <point x="365.459960938" y="1045.0" type="line" smooth="yes"/>
      <point x="366.459960938" y="1049.0"/>
      <point x="367.459960938" y="1050.0"/>
      <point x="371.459960938" y="1050.0" type="curve" smooth="yes"/>
      <point x="475.459960938" y="1050.0" type="line" smooth="yes"/>
      <point x="479.459960938" y="1050.0"/>
      <point x="479.459960938" y="1049.0"/>
      <point x="478.459960938" y="1045.0" type="curve" smooth="yes"/>
      <point x="238.459960938" y="5.0" type="line" smooth="yes"/>
      <point x="237.459960938" y="1.0"/>
      <point x="237.459960938" y="0.0"/>
    </contour>
    <contour>
      <point x="180.459960938" y="174.0" type="line"/>
      <point x="154.459960938" y="63.0"/>
      <point x="120.459960938" y="-18.0"/>
      <point x="39.6884765625" y="-18.0" type="curve" smooth="yes"/>
      <point x="-38.287109375" y="-18.0"/>
      <point x="-60.287109375" y="43.0"/>
      <point x="-35.287109375" y="150.0" type="curve" smooth="yes"/>
      <point x="170.712890625" y="1045.0" type="line" smooth="yes"/>
      <point x="171.712890625" y="1049.0"/>
      <point x="173.712890625" y="1050.0"/>
      <point x="177.712890625" y="1050.0" type="curve" smooth="yes"/>
      <point x="280.712890625" y="1050.0" type="line" smooth="yes"/>
      <point x="284.712890625" y="1050.0"/>
      <point x="285.706054688" y="1049.0"/>
      <point x="284.709960938" y="1045.0" type="curve" smooth="yes"/>
      <point x="78.712890625" y="153.0" type="line" smooth="yes"/>
      <point x="64.712890625" y="94.0"/>
      <point x="64.3388671875" y="60.0"/>
      <point x="94.7392578125" y="60.0" type="curve" smooth="yes"/>
      <point x="128.939453125" y="60.0"/>
      <point x="151.459960938" y="118.0"/>
      <point x="175.470703125" y="223.0" type="curve"/>
    </contour>
  </outline>
</glyph>
<glyph name="v" format="2">
  <advance height="960" width="376"/>
  <unicode hex="0076"/>
  <outline>
    <contour>
      <point x="142.44140625" y="240.0" type="line"/>
      <point x="400.44140625" y="1045.0" type="line" smooth="yes"/>
      <point x="402.44140625" y="1049.0"/>
      <point x="404.44140625" y="1050.0"/>
      <point x="408.44140625" y="1050.0" type="curve" smooth="yes"/>
      <point x="493.44140625" y="1050.0" type="line" smooth="yes"/>
      <point x="497.44140625" y="1050.0"/>
      <point x="498.44140625" y="1049.0"/>
      <point x="495.44140625" y="1045.0" type="curve" smooth="yes"/>
      <point x="139.44140625" y="5.0" type="line" smooth="yes"/>
      <point x="136.44140625" y="1.0"/>
      <point x="135.44140625" y="0.0"/>
      <point x="131.44140625" y="0.0" type="curve" smooth="yes"/>
      <point x="18.44140625" y="0.0" type="line" smooth="yes"/>
      <point x="14.44140625" y="0.0"/>
      <point x="13.44140625" y="1.0"/>
      <point x="12.44140625" y="5.0" type="curve" smooth="yes"/>
      <point x="138.44140625" y="1045.0" type="line" smooth="yes"/>
      <point x="138.44140625" y="1049.0"/>
      <point x="138.44140625" y="1050.0"/>
      <point x="142.44140625" y="1050.0" type="curve" smooth="yes"/>
      <point x="248.44140625" y="1050.0" type="line" smooth="yes"/>
      <point x="252.44140625" y="1050.0"/>
      <point x="254.44140625" y="1049.0"/>
      <point x="254.44140625" y="1045.0" type="curve" smooth="yes"/>
    </contour>
  </outline>
</glyph>
<glyph name="w" format="2">
  <advance height="960" width="568"/>
  <unicode hex="0077"/>
  <outline>
    <contour>
      <point x="358.241210938" y="262.0" type="line"/>
      <point x="608.241210938" y="1045.0" type="line" smooth="yes"/>
      <point x="610.241210938" y="1049.0"/>
      <point x="612.241210938" y="1050.0"/>
      <point x="615.241210938" y="1050.0" type="curve" smooth="yes"/>
      <point x="685.241210938" y="1050.0" type="line" smooth="yes"/>
      <point x="689.241210938" y="1050.0"/>
      <point x="690.241210938" y="1048.0"/>
      <point x="688.241210938" y="1045.0" type="curve" smooth="yes"/>
      <point x="345.241210938" y="5.0" type="line" smooth="yes"/>
      <point x="343.241210938" y="2.0"/>
      <point x="342.241210938" y="0.0"/>
      <point x="338.241210938" y="0.0" type="curve" smooth="yes"/>
      <point x="239.241210938" y="0.0" type="line" smooth="yes"/>
      <point x="236.390625" y="0.0"/>
      <point x="233.552734375" y="1.0"/>
      <point x="233.598632812" y="5.0" type="curve" smooth="yes"/>
      <point x="347.671875" y="752.0" type="line"/>
      <point x="114.848632812" y="5.0" type="line" smooth="yes"/>
      <point x="112.90234375" y="1.0"/>
      <point x="111.94140625" y="0.0"/>
      <point x="108.140625" y="0.0" type="curve" smooth="yes"/>
      <point x="12.140625" y="0.0" type="line" smooth="yes"/>
      <point x="9.140625" y="0.0"/>
      <point x="7.140625" y="1.0"/>
      <point x="7.140625" y="5.0" type="curve" smooth="yes"/>
      <point x="144.140625" y="1045.0" type="line" smooth="yes"/>
      <point x="144.140625" y="1049.0"/>
      <point x="144.140625" y="1050.0"/>
      <point x="148.140625" y="1050.0" type="curve" smooth="yes"/>
      <point x="251.140625" y="1050.0" type="line" smooth="yes"/>
      <point x="254.140625" y="1050.0"/>
      <point x="256.140625" y="1049.0"/>
      <point x="256.140625" y="1045.0" type="curve" smooth="yes"/>
      <point x="134.140625" y="263.0" type="line"/>
      <point x="376.704101562" y="1045.0" type="line" smooth="yes"/>
      <point x="378.650390625" y="1049.0"/>
      <point x="379.611328125" y="1050.0"/>
      <point x="383.411132812" y="1050.0" type="curve" smooth="yes"/>
      <point x="464.161132812" y="1050.0" type="line" smooth="yes"/>
      <point x="467.01171875" y="1050.0"/>
      <point x="468.900390625" y="1049.0"/>
      <point x="468.853515625" y="1045.0" type="curve" smooth="yes"/>
    </contour>
  </outline>
</glyph>
<glyph name="x" format="2">
  <advance height="960" width="325"/>
  <unicode hex="0078"/>
  <outline>
    <contour>
      <point x="-7.88671875" y="0.0" type="curve" smooth="yes"/>
      <point x="-112.88671875" y="0.0" type="line" smooth="yes"/>
      <point x="-116.88671875" y="0.0"/>
      <point x="-116.88671875" y="1.0"/>
      <point x="-112.88671875" y="5.0" type="curve" smooth="yes"/>
      <point x="120.11328125" y="534.0" type="line"/>
      <point x="136.11328125" y="1045.0" type="line" smooth="yes"/>
      <point x="134.11328125" y="1049.0"/>
      <point x="134.11328125" y="1050.0"/>
      <point x="138.11328125" y="1050.0" type="curve" smooth="yes"/>
      <point x="257.42578125" y="1050.0" type="line" smooth="yes"/>
      <point x="261.225585938" y="1050.0"/>
      <point x="263.114257812" y="1049.0"/>
      <point x="264.017578125" y="1045.0" type="curve" smooth="yes"/>
      <point x="203.084960938" y="622.0" type="line"/>
      <point x="334.462890625" y="1045.0" type="line" smooth="yes"/>
      <point x="337.462890625" y="1049.0"/>
      <point x="339.462890625" y="1050.0"/>
      <point x="343.462890625" y="1050.0" type="curve" smooth="yes"/>
      <point x="449.462890625" y="1050.0" type="line" smooth="yes"/>
      <point x="453.462890625" y="1050.0"/>
      <point x="453.462890625" y="1049.0"/>
      <point x="449.462890625" y="1045.0" type="curve" smooth="yes"/>
      <point x="230.462890625" y="542.0" type="line"/>
      <point x="218.462890625" y="5.0" type="line" smooth="yes"/>
      <point x="220.462890625" y="1.0"/>
      <point x="219.462890625" y="0.0"/>
      <point x="215.462890625" y="0.0" type="curve" smooth="yes"/>
      <point x="98.462890625" y="0.0" type="line" smooth="yes"/>
      <point x="94.462890625" y="0.0"/>
      <point x="92.462890625" y="1.0"/>
      <point x="91.462890625" y="5.0" type="curve" smooth="yes"/>
      <point x="149.845703125" y="454.0" type="line"/>
      <point x="3.11328125" y="5.0" type="line" smooth="yes"/>
      <point x="0.11328125" y="1.0"/>
      <point x="-3.88671875" y="0.0"/>
    </contour>
  </outline>
</glyph>
<glyph name="y" format="2">
  <advance height="960" width="386"/>
  <unicode hex="0079"/>
  <anchor x="345.0" y="1050.0" name="top"/>
  <outline>
    <contour>
      <point x="165.151367188" y="275.0" type="line"/>
      <point x="416.151367188" y="1045.0" type="line" smooth="yes"/>
      <point x="418.151367188" y="1048.0"/>
      <point x="419.151367188" y="1050.0"/>
      <point x="423.151367188" y="1050.0" type="curve" smooth="yes"/>
      <point x="503.151367188" y="1050.0" type="line" smooth="yes"/>
      <point x="507.151367188" y="1050.0"/>
      <point x="507.151367188" y="1048.0"/>
      <point x="505.151367188" y="1045.0" type="curve" smooth="yes"/>
      <point x="174.151367188" y="90.0" type="line" smooth="yes"/>
      <point x="51.1513671875" y="-266.0"/>
      <point x="14.1513671875" y="-371.0"/>
      <point x="-98.8486328125" y="-371.0" type="curve" smooth="yes"/>
      <point x="-217.848632812" y="-371.0"/>
      <point x="-168.848632812" y="-200.0"/>
      <point x="-133.848632812" y="-107.0" type="curve" smooth="yes"/>
      <point x="-131.848632812" y="-102.0"/>
      <point x="-128.848632812" y="-100.0"/>
      <point x="-121.848632812" y="-100.0" type="curve" smooth="yes"/>
      <point x="-75.8486328125" y="-100.0" type="line" smooth="yes"/>
      <point x="-68.8486328125" y="-100.0"/>
      <point x="-65.8486328125" y="-103.0"/>
      <point x="-67.8486328125" y="-107.0" type="curve" smooth="yes"/>
      <point x="-103.848632812" y="-201.0"/>
      <point x="-112.848632812" y="-284.0"/>
      <point x="-92.8486328125" y="-284.0" type="curve" smooth="yes"/>
      <point x="-61.8486328125" y="-284.0"/>
      <point x="0.1513671875" y="-97.0"/>
      <point x="58.1513671875" y="78.0" type="curve"/>
      <point x="165.151367188" y="1045.0" type="line" smooth="yes"/>
      <point x="165.151367188" y="1048.0"/>
      <point x="164.151367188" y="1050.0"/>
      <point x="168.151367188" y="1050.0" type="curve" smooth="yes"/>
      <point x="274.151367188" y="1050.0" type="line" smooth="yes"/>
      <point x="278.151367188" y="1050.0"/>
      <point x="279.151367188" y="1048.0"/>
      <point x="279.151367188" y="1045.0" type="curve" smooth="yes"/>
    </contour>
  </outline>
</glyph>
<glyph name="z" format="2">
  <advance height="960" width="344"/>
  <unicode hex="007A"/>
  <anchor x="316.0" y="1050.0" name="top"/>
  <outline>
    <contour>
      <point x="-104.336914062" y="5.0" type="curve" smooth="yes"/>
      <point x="319.663085938" y="962.0" type="line"/>
      <point x="152.663085938" y="962.0" type="line" smooth="yes"/>
      <point x="148.663085938" y="962.0"/>
      <point x="147.663085938" y="964.0"/>
      <point x="148.663085938" y="968.0" type="curve" smooth="yes"/>
      <point x="166.663085938" y="1045.0" type="line" smooth="yes"/>
      <point x="167.663085938" y="1049.0"/>
      <point x="168.663085938" y="1050.0"/>
      <point x="172.663085938" y="1050.0" type="curve" smooth="yes"/>
      <point x="467.663085938" y="1050.0" type="line" smooth="yes"/>
      <point x="471.663085938" y="1050.0"/>
      <point x="472.663085938" y="1049.0"/>
      <point x="468.663085938" y="1045.0" type="curve" smooth="yes"/>
      <point x="47.6630859375" y="88.0" type="line"/>
      <point x="233.663085938" y="88.0" type="line" smooth="yes"/>
      <point x="237.663085938" y="88.0"/>
      <point x="238.663085938" y="86.0"/>
      <point x="237.663085938" y="82.0" type="curve" smooth="yes"/>
      <point x="219.663085938" y="5.0" type="line" smooth="yes"/>
      <point x="218.663085938" y="2.0"/>
      <point x="217.663085938" y="0.0"/>
      <point x="213.663085938" y="0.0" type="curve" smooth="yes"/>
      <point x="-104.336914062" y="0.0" type="line" smooth="yes"/>
      <point x="-108.336914062" y="0.0"/>
      <point x="-108.336914062" y="1.0"/>
    </contour>
  </outline>
</glyph>
<glyph name="braceleft" format="2">
  <advance height="2048" width="300"/>
  <unicode hex="007B"/>
  <outline>
    <contour>
      <point x="290.0" y="1439.0" type="line" smooth="yes"/>
      <point x="316.0" y="1553.0"/>
      <point x="350.0" y="1599.0"/>
      <point x="493.0" y="1600.0" type="curve" smooth="yes"/>
      <point x="497.0" y="1600.0"/>
      <point x="499.0" y="1599.0"/>
      <point x="498.0" y="1595.0" type="curve" smooth="yes"/>
      <point x="488.0" y="1551.0" type="line" smooth="yes"/>
      <point x="487.0" y="1547.0"/>
      <point x="485.0" y="1546.0"/>
      <point x="481.0" y="1546.0" type="curve" smooth="yes"/>
      <point x="431.0" y="1544.0"/>
      <point x="408.0" y="1517.0"/>
      <point x="388.0" y="1430.0" type="curve" smooth="yes"/>
      <point x="240.0" y="788.0" type="line" smooth="yes"/>
      <point x="219.0" y="696.0"/>
      <point x="189.0" y="644.0"/>
      <point x="105.0" y="620.0" type="curve"/>
      <point x="177.0" y="596.0"/>
      <point x="183.0" y="544.0"/>
      <point x="162.0" y="452.0" type="curve" smooth="yes"/>
      <point x="14.0" y="-190.0" type="line" smooth="yes"/>
      <point x="-6.0" y="-276.0"/>
      <point x="6.0" y="-303.0"/>
      <point x="53.0" y="-306.0" type="curve" smooth="yes"/>
      <point x="58.0" y="-306.0"/>
      <point x="59.0" y="-307.0"/>
      <point x="58.0" y="-311.0" type="curve" smooth="yes"/>
      <point x="48.0" y="-355.0" type="line" smooth="yes"/>
      <point x="47.0" y="-359.0"/>
      <point x="45.0" y="-360.0"/>
      <point x="41.0" y="-360.0" type="curve" smooth="yes"/>
      <point x="-101.0" y="-358.0"/>
      <point x="-114.0" y="-313.0"/>
      <point x="-88.0" y="-199.0" type="curve" smooth="yes"/>
      <point x="62.0" y="452.0" type="line" smooth="yes"/>
      <point x="81.0" y="536.0"/>
      <point x="70.0" y="567.0"/>
      <point x="26.0" y="583.0" type="curve" smooth="yes"/>
      <point x="22.0" y="585.0"/>
      <point x="20.0" y="586.0"/>
      <point x="21.0" y="590.0" type="curve" smooth="yes"/>
      <point x="35.0" y="650.0" type="line" smooth="yes"/>
      <point x="36.0" y="654.0"/>
      <point x="38.0" y="656.0"/>
      <point x="42.0" y="657.0" type="curve" smooth="yes"/>
      <point x="96.0" y="673.0"/>
      <point x="121.0" y="704.0"/>
      <point x="140.0" y="788.0" type="curve" smooth="yes"/>
    </contour>
  </outline>
</glyph>
<glyph name="bar" format="2">
  <advance height="1920" width="312"/>
  <unicode hex="007C"/>
  <outline>
    <contour>
      <point x="375.0" y="1600.0" type="curve" smooth="yes"/>
      <point x="436.0" y="1600.0" type="line" smooth="yes"/>
      <point x="443.0" y="1600.0"/>
      <point x="445.0" y="1597.0"/>
      <point x="443.0" y="1590.0" type="curve" smooth="yes"/>
      <point x="-5.0" y="-350.0" type="line" smooth="yes"/>
      <point x="-7.0" y="-357.0"/>
      <point x="-9.0" y="-360.0"/>
      <point x="-16.0" y="-360.0" type="curve" smooth="yes"/>
      <point x="-77.0" y="-360.0" type="line" smooth="yes"/>
      <point x="-84.0" y="-360.0"/>
      <point x="-86.0" y="-357.0"/>
      <point x="-84.0" y="-350.0" type="curve" smooth="yes"/>
      <point x="364.0" y="1590.0" type="line" smooth="yes"/>
      <point x="366.0" y="1597.0"/>
      <point x="368.0" y="1600.0"/>
    </contour>
  </outline>
</glyph>
<glyph name="braceright" format="2">
  <advance height="2048" width="300"/>
  <unicode hex="007D"/>
  <outline>
    <contour>
      <point x="56.0" y="-199.0" type="line" smooth="yes"/>
      <point x="30.0" y="-313.0"/>
      <point x="-4.0" y="-359.0"/>
      <point x="-147.0" y="-360.0" type="curve" smooth="yes"/>
      <point x="-151.0" y="-360.0"/>
      <point x="-153.0" y="-359.0"/>
      <point x="-152.0" y="-355.0" type="curve" smooth="yes"/>
      <point x="-142.0" y="-311.0" type="line" smooth="yes"/>
      <point x="-141.0" y="-307.0"/>
      <point x="-139.0" y="-306.0"/>
      <point x="-135.0" y="-306.0" type="curve" smooth="yes"/>
      <point x="-85.0" y="-304.0"/>
      <point x="-61.0" y="-277.0"/>
      <point x="-41.0" y="-190.0" type="curve" smooth="yes"/>
      <point x="107.0" y="452.0" type="line" smooth="yes"/>
      <point x="128.0" y="544.0"/>
      <point x="158.0" y="596.0"/>
      <point x="242.0" y="620.0" type="curve"/>
      <point x="170.0" y="644.0"/>
      <point x="164.0" y="696.0"/>
      <point x="185.0" y="788.0" type="curve" smooth="yes"/>
      <point x="333.0" y="1430.0" type="line" smooth="yes"/>
      <point x="353.0" y="1516.0"/>
      <point x="341.0" y="1543.0"/>
      <point x="294.0" y="1546.0" type="curve" smooth="yes"/>
      <point x="289.0" y="1546.0"/>
      <point x="287.0" y="1547.0"/>
      <point x="288.0" y="1551.0" type="curve" smooth="yes"/>
      <point x="298.0" y="1595.0" type="line" smooth="yes"/>
      <point x="299.0" y="1599.0"/>
      <point x="301.0" y="1600.0"/>
      <point x="305.0" y="1600.0" type="curve" smooth="yes"/>
      <point x="447.0" y="1598.0"/>
      <point x="460.0" y="1553.0"/>
      <point x="434.0" y="1439.0" type="curve" smooth="yes"/>
      <point x="284.0" y="788.0" type="line" smooth="yes"/>
      <point x="265.0" y="704.0"/>
      <point x="278.0" y="673.0"/>
      <point x="322.0" y="657.0" type="curve" smooth="yes"/>
      <point x="326.0" y="655.0"/>
      <point x="327.0" y="654.0"/>
      <point x="326.0" y="650.0" type="curve" smooth="yes"/>
      <point x="312.0" y="590.0" type="line" smooth="yes"/>
      <point x="311.0" y="586.0"/>
      <point x="309.0" y="584.0"/>
      <point x="305.0" y="583.0" type="curve" smooth="yes"/>
      <point x="251.0" y="567.0"/>
      <point x="225.0" y="536.0"/>
      <point x="206.0" y="452.0" type="curve" smooth="yes"/>
    </contour>
  </outline>
</glyph>
<glyph name="asciitilde" format="2">
  <advance height="2048" width="664"/>
  <unicode hex="007E"/>
  <outline>
    <contour>
      <point x="234.0" y="623.0" type="curve" smooth="yes"/>
      <point x="190.0" y="623.0"/>
      <point x="154.0" y="589.0"/>
      <point x="137.0" y="524.0" type="curve" smooth="yes"/>
      <point x="136.0" y="521.0"/>
      <point x="133.0" y="520.0"/>
      <point x="130.0" y="520.0" type="curve" smooth="yes"/>
      <point x="48.0" y="520.0" type="line" smooth="yes"/>
      <point x="44.0" y="520.0"/>
      <point x="44.0" y="521.0"/>
      <point x="45.0" y="524.0" type="curve" smooth="yes"/>
      <point x="71.0" y="628.0"/>
      <point x="163.0" y="711.0"/>
      <point x="254.0" y="711.0" type="curve" smooth="yes"/>
      <point x="377.0" y="711.0"/>
      <point x="397.0" y="587.0"/>
      <point x="470.0" y="587.0" type="curve" smooth="yes"/>
      <point x="514.0" y="587.0"/>
      <point x="550.0" y="621.0"/>
      <point x="567.0" y="686.0" type="curve" smooth="yes"/>
      <point x="568.0" y="690.0"/>
      <point x="571.0" y="691.0"/>
      <point x="574.0" y="691.0" type="curve" smooth="yes"/>
      <point x="655.0" y="691.0" type="line" smooth="yes"/>
      <point x="659.0" y="691.0"/>
      <point x="659.0" y="690.0"/>
      <point x="658.0" y="686.0" type="curve" smooth="yes"/>
      <point x="632.0" y="582.0"/>
      <point x="540.0" y="500.0"/>
      <point x="449.0" y="500.0" type="curve" smooth="yes"/>
      <point x="326.0" y="500.0"/>
      <point x="307.0" y="623.0"/>
    </contour>
  </outline>
</glyph>
<glyph name="exclamdown" format="2">
  <advance height="1920" width="290"/>
  <unicode hex="00A1"/>
  <outline>
    <contour>
      <point x="216.0" y="1050.0" type="curve" smooth="yes"/>
      <point x="319.0" y="1050.0" type="line" smooth="yes"/>
      <point x="326.0" y="1050.0"/>
      <point x="329.0" y="1047.0"/>
      <point x="327.0" y="1040.0" type="curve" smooth="yes"/>
      <point x="279.0" y="831.0" type="line" smooth="yes"/>
      <point x="277.0" y="824.0"/>
      <point x="274.0" y="821.0"/>
      <point x="267.0" y="821.0" type="curve" smooth="yes"/>
      <point x="164.0" y="821.0" type="line" smooth="yes"/>
      <point x="157.0" y="821.0"/>
      <point x="154.0" y="824.0"/>
      <point x="156.0" y="831.0" type="curve" smooth="yes"/>
      <point x="204.0" y="1040.0" type="line" smooth="yes"/>
      <point x="206.0" y="1047.0"/>
      <point x="209.0" y="1050.0"/>
    </contour>
    <contour>
      <point x="114.0" y="100.0" type="curve" smooth="yes"/>
      <point x="1.0" y="-390.0" type="line" smooth="yes"/>
      <point x="-1.0" y="-397.0"/>
      <point x="-4.0" y="-400.0"/>
      <point x="-11.0" y="-400.0" type="curve" smooth="yes"/>
      <point x="-122.0" y="-400.0" type="line" smooth="yes"/>
      <point x="-129.0" y="-400.0"/>
      <point x="-132.0" y="-397.0"/>
      <point x="-130.0" y="-390.0" type="curve" smooth="yes"/>
      <point x="-17.0" y="100.0" type="line" smooth="yes"/>
      <point x="-15.0" y="107.0"/>
      <point x="-14.0" y="113.0"/>
      <point x="-11.0" y="120.0" type="curve" smooth="yes"/>
      <point x="137.0" y="601.0" type="line" smooth="yes"/>
      <point x="140.0" y="608.0"/>
      <point x="143.0" y="611.0"/>
      <point x="150.0" y="611.0" type="curve" smooth="yes"/>
      <point x="183.0" y="611.0" type="line" smooth="yes"/>
      <point x="190.0" y="611.0"/>
      <point x="193.0" y="608.0"/>
      <point x="192.0" y="601.0" type="curve" smooth="yes"/>
      <point x="118.0" y="120.0" type="line" smooth="yes"/>
      <point x="117.0" y="113.0"/>
      <point x="116.0" y="107.0"/>
    </contour>
  </outline>
</glyph>
<glyph name="cent" format="2">
  <advance height="1920" width="359"/>
  <unicode hex="00A2"/>
  <outline>
    <contour>
      <point x="352.09765625" y="1240.0" type="curve" smooth="yes"/>
      <point x="382.09765625" y="1240.0" type="line" smooth="yes"/>
      <point x="386.09765625" y="1240.0"/>
      <point x="387.09765625" y="1239.0"/>
      <point x="386.09765625" y="1235.0" type="curve" smooth="yes"/>
      <point x="58.09765625" y="-185.0" type="line" smooth="yes"/>
      <point x="57.09765625" y="-189.0"/>
      <point x="56.09765625" y="-190.0"/>
      <point x="52.09765625" y="-190.0" type="curve" smooth="yes"/>
      <point x="22.09765625" y="-190.0" type="line" smooth="yes"/>
      <point x="18.09765625" y="-190.0"/>
      <point x="17.09765625" y="-189.0"/>
      <point x="18.09765625" y="-185.0" type="curve" smooth="yes"/>
      <point x="346.09765625" y="1235.0" type="line" smooth="yes"/>
      <point x="347.09765625" y="1239.0"/>
      <point x="348.09765625" y="1240.0"/>
    </contour>
    <component base="c"/>
  </outline>
</glyph>
<glyph name="sterling" format="2">
  <advance height="1920" width="487"/>
  <unicode hex="00A3"/>
  <outline>
    <contour>
      <point x="91.0" y="657.0" type="curve" smooth="yes"/>
      <point x="105.0" y="718.0" type="line" smooth="yes"/>
      <point x="106.0" y="722.0"/>
      <point x="107.0" y="722.0"/>
      <point x="111.0" y="722.0" type="curve" smooth="yes"/>
      <point x="383.0" y="722.0" type="line" smooth="yes"/>
      <point x="387.0" y="722.0"/>
      <point x="388.0" y="722.0"/>
      <point x="387.0" y="718.0" type="curve" smooth="yes"/>
      <point x="373.0" y="657.0" type="line" smooth="yes"/>
      <point x="372.0" y="653.0"/>
      <point x="371.0" y="653.0"/>
      <point x="367.0" y="653.0" type="curve" smooth="yes"/>
      <point x="95.0" y="653.0" type="line" smooth="yes"/>
      <point x="91.0" y="653.0"/>
      <point x="90.0" y="653.0"/>
    </contour>
    <contour>
      <point x="-58.0" y="90.0" type="curve" smooth="yes"/>
      <point x="16.0" y="156.0"/>
      <point x="128.0" y="369.0"/>
      <point x="182.0" y="604.0" type="curve" smooth="yes"/>
      <point x="228.0" y="803.0"/>
      <point x="158.0" y="907.0"/>
      <point x="203.0" y="1100.0" type="curve" smooth="yes"/>
      <point x="251.0" y="1306.0"/>
      <point x="308.0" y="1417.0"/>
      <point x="455.0" y="1417.0" type="curve" smooth="yes"/>
      <point x="605.0" y="1417.0"/>
      <point x="604.0" y="1289.0"/>
      <point x="531.0" y="967.0" type="curve" smooth="yes"/>
      <point x="530.0" y="963.0"/>
      <point x="529.0" y="963.0"/>
      <point x="525.0" y="963.0" type="curve" smooth="yes"/>
      <point x="431.0" y="963.0" type="line" smooth="yes"/>
      <point x="428.0" y="963.0"/>
      <point x="426.0" y="963.0"/>
      <point x="427.0" y="967.0" type="curve" smooth="yes"/>
      <point x="481.0" y="1210.0"/>
      <point x="512.0" y="1334.0"/>
      <point x="441.0" y="1334.0" type="curve" smooth="yes"/>
      <point x="371.0" y="1334.0"/>
      <point x="352.0" y="1272.0"/>
      <point x="313.0" y="1105.0" type="curve" smooth="yes"/>
      <point x="276.0" y="945.0"/>
      <point x="331.0" y="819.0"/>
      <point x="282.0" y="606.0" type="curve" smooth="yes"/>
      <point x="230.0" y="382.0"/>
      <point x="110.0" y="142.0"/>
      <point x="38.0" y="90.0" type="curve"/>
      <point x="337.0" y="90.0" type="line" smooth="yes"/>
      <point x="341.0" y="90.0"/>
      <point x="341.0" y="88.0"/>
      <point x="340.0" y="84.0" type="curve" smooth="yes"/>
      <point x="322.0" y="5.0" type="line" smooth="yes"/>
      <point x="321.0" y="1.0"/>
      <point x="320.0" y="0.0"/>
      <point x="316.0" y="0.0" type="curve" smooth="yes"/>
      <point x="-76.0" y="0.0" type="line" smooth="yes"/>
      <point x="-80.0" y="0.0"/>
      <point x="-81.0" y="1.0"/>
      <point x="-80.0" y="5.0" type="curve" smooth="yes"/>
      <point x="-62.0" y="84.0" type="line" smooth="yes"/>
      <point x="-62.0" y="86.0"/>
      <point x="-60.0" y="88.0"/>
    </contour>
  </outline>
</glyph>
